G04 Layer: BottomLayer*
G04 EasyEDA v6.2.46, 2019-11-02T22:46:44+01:00*
G04 ac1458d9b49046569834fa52976d048a,2f1dc3ff27c442d188d0821d71f234e9,NaN*
G04 Gerber Generator version 0.2*
G04 Scale: 100 percent, Rotated: No, Reflected: No *
G04 Dimensions in millimeters *
G04 leading zeros omitted , absolute positions ,3 integer and 3 decimal *
%FSLAX33Y33*%
%MOMM*%
G90*
G71D02*

%ADD11C,0.250012*%
%ADD12C,0.609600*%
%ADD13C,1.524000*%

%LPD*%
G36*
G01X25549Y48257D02*
G01X104Y48257D01*
G01X89Y48256D01*
G01X75Y48253D01*
G01X61Y48248D01*
G01X49Y48241D01*
G01X37Y48232D01*
G01X27Y48222D01*
G01X18Y48210D01*
G01X11Y48198D01*
G01X6Y48184D01*
G01X3Y48170D01*
G01X2Y48155D01*
G01X2Y104D01*
G01X3Y89D01*
G01X6Y75D01*
G01X11Y61D01*
G01X18Y49D01*
G01X27Y37D01*
G01X37Y27D01*
G01X49Y18D01*
G01X61Y11D01*
G01X75Y6D01*
G01X89Y3D01*
G01X104Y2D01*
G01X25549Y2D01*
G01X25564Y3D01*
G01X25578Y6D01*
G01X25592Y11D01*
G01X25604Y18D01*
G01X25616Y27D01*
G01X25626Y37D01*
G01X25635Y49D01*
G01X25642Y61D01*
G01X25647Y75D01*
G01X25650Y89D01*
G01X25651Y104D01*
G01X25651Y48155D01*
G01X25650Y48170D01*
G01X25647Y48184D01*
G01X25642Y48198D01*
G01X25635Y48210D01*
G01X25626Y48222D01*
G01X25616Y48232D01*
G01X25604Y48241D01*
G01X25592Y48248D01*
G01X25578Y48253D01*
G01X25564Y48256D01*
G01X25549Y48257D01*
G37*

%LPC*%
G36*
G01X11602Y44705D02*
G01X11557Y44706D01*
G01X11511Y44705D01*
G01X11465Y44702D01*
G01X11420Y44697D01*
G01X11375Y44690D01*
G01X11330Y44681D01*
G01X11286Y44669D01*
G01X11242Y44656D01*
G01X11199Y44641D01*
G01X11156Y44624D01*
G01X11115Y44605D01*
G01X11074Y44584D01*
G01X11034Y44562D01*
G01X10995Y44538D01*
G01X10958Y44512D01*
G01X10921Y44484D01*
G01X10886Y44455D01*
G01X10853Y44424D01*
G01X10820Y44391D01*
G01X10789Y44358D01*
G01X10760Y44323D01*
G01X10732Y44286D01*
G01X10706Y44249D01*
G01X10682Y44210D01*
G01X10660Y44170D01*
G01X10639Y44129D01*
G01X10620Y44088D01*
G01X10603Y44045D01*
G01X10588Y44002D01*
G01X10575Y43958D01*
G01X10563Y43914D01*
G01X10554Y43869D01*
G01X10547Y43824D01*
G01X10542Y43779D01*
G01X10539Y43733D01*
G01X10538Y43688D01*
G01X10539Y43642D01*
G01X10542Y43596D01*
G01X10547Y43551D01*
G01X10554Y43506D01*
G01X10563Y43461D01*
G01X10575Y43417D01*
G01X10588Y43373D01*
G01X10603Y43330D01*
G01X10620Y43287D01*
G01X10639Y43246D01*
G01X10660Y43205D01*
G01X10682Y43165D01*
G01X10706Y43126D01*
G01X10732Y43089D01*
G01X10760Y43052D01*
G01X10789Y43017D01*
G01X10820Y42984D01*
G01X10853Y42951D01*
G01X10886Y42920D01*
G01X10921Y42891D01*
G01X10958Y42863D01*
G01X10995Y42837D01*
G01X11034Y42813D01*
G01X11074Y42791D01*
G01X11115Y42770D01*
G01X11156Y42751D01*
G01X11199Y42734D01*
G01X11242Y42719D01*
G01X11286Y42706D01*
G01X11330Y42694D01*
G01X11375Y42685D01*
G01X11420Y42678D01*
G01X11465Y42673D01*
G01X11511Y42670D01*
G01X11557Y42669D01*
G01X11606Y42670D01*
G01X11655Y42674D01*
G01X11704Y42680D01*
G01X11753Y42688D01*
G01X11801Y42699D01*
G01X11849Y42712D01*
G01X11896Y42727D01*
G01X11912Y42731D01*
G01X11929Y42733D01*
G01X11945Y42732D01*
G01X11961Y42728D01*
G01X11976Y42722D01*
G01X11989Y42713D01*
G01X12001Y42703D01*
G01X12415Y42289D01*
G01X12426Y42277D01*
G01X12434Y42264D01*
G01X12440Y42249D01*
G01X12444Y42233D01*
G01X12445Y42217D01*
G01X12445Y41945D01*
G01X12444Y41930D01*
G01X12441Y41916D01*
G01X12436Y41903D01*
G01X12429Y41890D01*
G01X12420Y41878D01*
G01X12410Y41868D01*
G01X12398Y41859D01*
G01X12386Y41852D01*
G01X12372Y41847D01*
G01X12358Y41844D01*
G01X12343Y41843D01*
G01X12328Y41844D01*
G01X12312Y41848D01*
G01X12298Y41854D01*
G01X12284Y41862D01*
G01X12272Y41872D01*
G01X12238Y41904D01*
G01X12203Y41935D01*
G01X12166Y41964D01*
G01X12128Y41991D01*
G01X12089Y42016D01*
G01X12048Y42039D01*
G01X12007Y42061D01*
G01X11965Y42081D01*
G01X11922Y42098D01*
G01X11878Y42114D01*
G01X11833Y42128D01*
G01X11788Y42139D01*
G01X11742Y42149D01*
G01X11696Y42156D01*
G01X11650Y42162D01*
G01X11603Y42165D01*
G01X11557Y42166D01*
G01X11511Y42165D01*
G01X11465Y42162D01*
G01X11420Y42157D01*
G01X11375Y42150D01*
G01X11330Y42141D01*
G01X11286Y42129D01*
G01X11242Y42116D01*
G01X11199Y42101D01*
G01X11156Y42084D01*
G01X11115Y42065D01*
G01X11074Y42044D01*
G01X11034Y42022D01*
G01X10995Y41998D01*
G01X10958Y41972D01*
G01X10921Y41944D01*
G01X10886Y41915D01*
G01X10853Y41884D01*
G01X10820Y41851D01*
G01X10789Y41818D01*
G01X10760Y41783D01*
G01X10732Y41746D01*
G01X10706Y41709D01*
G01X10682Y41670D01*
G01X10660Y41630D01*
G01X10639Y41589D01*
G01X10620Y41548D01*
G01X10603Y41505D01*
G01X10588Y41462D01*
G01X10575Y41418D01*
G01X10563Y41374D01*
G01X10554Y41329D01*
G01X10547Y41284D01*
G01X10542Y41239D01*
G01X10539Y41193D01*
G01X10538Y41147D01*
G01X10539Y41102D01*
G01X10542Y41056D01*
G01X10547Y41010D01*
G01X10554Y40965D01*
G01X10564Y40920D01*
G01X10575Y40876D01*
G01X10588Y40832D01*
G01X10603Y40789D01*
G01X10620Y40746D01*
G01X10639Y40705D01*
G01X10660Y40664D01*
G01X10683Y40624D01*
G01X10707Y40585D01*
G01X10733Y40548D01*
G01X10761Y40511D01*
G01X10791Y40476D01*
G01X10822Y40442D01*
G01X10854Y40410D01*
G01X10888Y40379D01*
G01X10923Y40350D01*
G01X10960Y40322D01*
G01X10998Y40296D01*
G01X11036Y40272D01*
G01X11076Y40249D01*
G01X11117Y40229D01*
G01X11131Y40220D01*
G01X11144Y40210D01*
G01X11155Y40198D01*
G01X11163Y40184D01*
G01X11170Y40169D01*
G01X11174Y40153D01*
G01X11175Y40137D01*
G01X11175Y37284D01*
G01X11174Y37268D01*
G01X11170Y37252D01*
G01X11164Y37237D01*
G01X11156Y37224D01*
G01X11145Y37212D01*
G01X3681Y29748D01*
G01X3669Y29737D01*
G01X3656Y29729D01*
G01X3641Y29723D01*
G01X3625Y29719D01*
G01X3609Y29718D01*
G01X2336Y29718D01*
G01X2321Y29719D01*
G01X2307Y29722D01*
G01X2294Y29727D01*
G01X2281Y29734D01*
G01X2270Y29743D01*
G01X2259Y29753D01*
G01X2251Y29764D01*
G01X2225Y29802D01*
G01X2197Y29839D01*
G01X2168Y29875D01*
G01X2137Y29909D01*
G01X2105Y29942D01*
G01X2071Y29973D01*
G01X2036Y30003D01*
G01X1999Y30031D01*
G01X1961Y30057D01*
G01X1922Y30082D01*
G01X1882Y30105D01*
G01X1842Y30126D01*
G01X1800Y30145D01*
G01X1757Y30162D01*
G01X1714Y30177D01*
G01X1669Y30191D01*
G01X1625Y30202D01*
G01X1580Y30211D01*
G01X1534Y30219D01*
G01X1488Y30224D01*
G01X1443Y30227D01*
G01X1397Y30228D01*
G01X1351Y30227D01*
G01X1305Y30224D01*
G01X1260Y30219D01*
G01X1215Y30212D01*
G01X1170Y30203D01*
G01X1126Y30191D01*
G01X1082Y30178D01*
G01X1039Y30163D01*
G01X996Y30146D01*
G01X955Y30127D01*
G01X914Y30106D01*
G01X874Y30084D01*
G01X835Y30060D01*
G01X798Y30034D01*
G01X761Y30006D01*
G01X726Y29977D01*
G01X693Y29946D01*
G01X660Y29913D01*
G01X629Y29880D01*
G01X600Y29845D01*
G01X572Y29808D01*
G01X546Y29771D01*
G01X522Y29732D01*
G01X500Y29692D01*
G01X479Y29651D01*
G01X460Y29610D01*
G01X443Y29567D01*
G01X428Y29524D01*
G01X415Y29480D01*
G01X403Y29436D01*
G01X394Y29391D01*
G01X387Y29346D01*
G01X382Y29301D01*
G01X379Y29255D01*
G01X378Y29210D01*
G01X379Y29164D01*
G01X382Y29118D01*
G01X387Y29073D01*
G01X394Y29028D01*
G01X403Y28983D01*
G01X415Y28939D01*
G01X428Y28895D01*
G01X443Y28852D01*
G01X460Y28809D01*
G01X479Y28768D01*
G01X500Y28727D01*
G01X522Y28687D01*
G01X546Y28648D01*
G01X572Y28611D01*
G01X600Y28574D01*
G01X629Y28539D01*
G01X660Y28506D01*
G01X693Y28473D01*
G01X726Y28442D01*
G01X761Y28413D01*
G01X798Y28385D01*
G01X835Y28359D01*
G01X874Y28335D01*
G01X914Y28313D01*
G01X955Y28292D01*
G01X996Y28273D01*
G01X1039Y28256D01*
G01X1082Y28241D01*
G01X1126Y28228D01*
G01X1170Y28216D01*
G01X1215Y28207D01*
G01X1260Y28200D01*
G01X1305Y28195D01*
G01X1351Y28192D01*
G01X1397Y28191D01*
G01X1444Y28192D01*
G01X1490Y28195D01*
G01X1537Y28201D01*
G01X1584Y28208D01*
G01X1630Y28218D01*
G01X1675Y28230D01*
G01X1720Y28244D01*
G01X1764Y28260D01*
G01X1808Y28278D01*
G01X1850Y28298D01*
G01X1892Y28320D01*
G01X1933Y28343D01*
G01X1972Y28369D01*
G01X2010Y28397D01*
G01X2047Y28426D01*
G01X2083Y28457D01*
G01X2117Y28489D01*
G01X2149Y28523D01*
G01X2180Y28559D01*
G01X2209Y28596D01*
G01X2237Y28634D01*
G01X2262Y28673D01*
G01X2286Y28714D01*
G01X2308Y28755D01*
G01X2328Y28798D01*
G01X2346Y28841D01*
G01X2362Y28886D01*
G01X2368Y28900D01*
G01X2377Y28914D01*
G01X2387Y28926D01*
G01X2399Y28936D01*
G01X2413Y28944D01*
G01X2427Y28950D01*
G01X2443Y28954D01*
G01X2459Y28955D01*
G01X3810Y28955D01*
G01X3839Y28956D01*
G01X3869Y28960D01*
G01X3899Y28965D01*
G01X3927Y28974D01*
G01X3956Y28984D01*
G01X3983Y28997D01*
G01X4009Y29011D01*
G01X4034Y29028D01*
G01X4057Y29046D01*
G01X4079Y29067D01*
G01X11826Y36814D01*
G01X11847Y36836D01*
G01X11865Y36859D01*
G01X11882Y36884D01*
G01X11896Y36910D01*
G01X11909Y36937D01*
G01X11919Y36966D01*
G01X11928Y36994D01*
G01X11933Y37024D01*
G01X11937Y37054D01*
G01X11938Y37084D01*
G01X11938Y40137D01*
G01X11939Y40153D01*
G01X11943Y40169D01*
G01X11950Y40184D01*
G01X11958Y40198D01*
G01X11969Y40210D01*
G01X11982Y40220D01*
G01X11996Y40229D01*
G01X12039Y40250D01*
G01X12081Y40274D01*
G01X12122Y40300D01*
G01X12162Y40328D01*
G01X12200Y40358D01*
G01X12237Y40389D01*
G01X12272Y40423D01*
G01X12284Y40433D01*
G01X12298Y40441D01*
G01X12312Y40447D01*
G01X12328Y40451D01*
G01X12343Y40452D01*
G01X12358Y40451D01*
G01X12372Y40448D01*
G01X12386Y40443D01*
G01X12398Y40436D01*
G01X12410Y40427D01*
G01X12420Y40417D01*
G01X12429Y40405D01*
G01X12436Y40392D01*
G01X12441Y40379D01*
G01X12444Y40365D01*
G01X12445Y40350D01*
G01X12445Y33474D01*
G01X12444Y33458D01*
G01X12440Y33442D01*
G01X12434Y33427D01*
G01X12426Y33414D01*
G01X12415Y33402D01*
G01X3554Y24541D01*
G01X3542Y24530D01*
G01X3529Y24522D01*
G01X3514Y24516D01*
G01X3498Y24512D01*
G01X3482Y24511D01*
G01X2407Y24511D01*
G01X2391Y24512D01*
G01X2375Y24516D01*
G01X2360Y24523D01*
G01X2346Y24531D01*
G01X2334Y24542D01*
G01X2324Y24555D01*
G01X2315Y24569D01*
G01X2295Y24610D01*
G01X2272Y24650D01*
G01X2248Y24688D01*
G01X2222Y24726D01*
G01X2194Y24763D01*
G01X2165Y24798D01*
G01X2134Y24832D01*
G01X2102Y24864D01*
G01X2068Y24895D01*
G01X2033Y24925D01*
G01X1996Y24953D01*
G01X1959Y24979D01*
G01X1920Y25003D01*
G01X1880Y25026D01*
G01X1839Y25047D01*
G01X1798Y25066D01*
G01X1755Y25083D01*
G01X1712Y25098D01*
G01X1668Y25111D01*
G01X1624Y25122D01*
G01X1579Y25132D01*
G01X1534Y25139D01*
G01X1488Y25144D01*
G01X1442Y25147D01*
G01X1397Y25148D01*
G01X1351Y25147D01*
G01X1305Y25144D01*
G01X1260Y25139D01*
G01X1215Y25132D01*
G01X1170Y25123D01*
G01X1126Y25111D01*
G01X1082Y25098D01*
G01X1039Y25083D01*
G01X996Y25066D01*
G01X955Y25047D01*
G01X914Y25026D01*
G01X874Y25004D01*
G01X835Y24980D01*
G01X798Y24954D01*
G01X761Y24926D01*
G01X726Y24897D01*
G01X693Y24866D01*
G01X660Y24833D01*
G01X629Y24800D01*
G01X600Y24765D01*
G01X572Y24728D01*
G01X546Y24691D01*
G01X522Y24652D01*
G01X500Y24612D01*
G01X479Y24571D01*
G01X460Y24530D01*
G01X443Y24487D01*
G01X428Y24444D01*
G01X415Y24400D01*
G01X403Y24356D01*
G01X394Y24311D01*
G01X387Y24266D01*
G01X382Y24221D01*
G01X379Y24175D01*
G01X378Y24130D01*
G01X379Y24084D01*
G01X382Y24038D01*
G01X387Y23993D01*
G01X394Y23948D01*
G01X403Y23903D01*
G01X415Y23859D01*
G01X428Y23815D01*
G01X443Y23772D01*
G01X460Y23729D01*
G01X479Y23688D01*
G01X500Y23647D01*
G01X522Y23607D01*
G01X546Y23568D01*
G01X572Y23531D01*
G01X600Y23494D01*
G01X629Y23459D01*
G01X660Y23426D01*
G01X693Y23393D01*
G01X726Y23362D01*
G01X761Y23333D01*
G01X798Y23305D01*
G01X835Y23279D01*
G01X874Y23255D01*
G01X914Y23233D01*
G01X955Y23212D01*
G01X996Y23193D01*
G01X1039Y23176D01*
G01X1082Y23161D01*
G01X1126Y23148D01*
G01X1170Y23136D01*
G01X1215Y23127D01*
G01X1260Y23120D01*
G01X1305Y23115D01*
G01X1351Y23112D01*
G01X1397Y23111D01*
G01X1442Y23112D01*
G01X1488Y23115D01*
G01X1534Y23120D01*
G01X1579Y23127D01*
G01X1624Y23137D01*
G01X1668Y23148D01*
G01X1712Y23161D01*
G01X1755Y23176D01*
G01X1798Y23193D01*
G01X1839Y23212D01*
G01X1880Y23233D01*
G01X1920Y23256D01*
G01X1959Y23280D01*
G01X1996Y23306D01*
G01X2033Y23334D01*
G01X2068Y23364D01*
G01X2102Y23395D01*
G01X2134Y23427D01*
G01X2165Y23461D01*
G01X2194Y23496D01*
G01X2222Y23533D01*
G01X2248Y23571D01*
G01X2272Y23609D01*
G01X2295Y23649D01*
G01X2315Y23690D01*
G01X2324Y23704D01*
G01X2334Y23717D01*
G01X2346Y23728D01*
G01X2360Y23736D01*
G01X2375Y23743D01*
G01X2391Y23747D01*
G01X2407Y23748D01*
G01X3683Y23748D01*
G01X3712Y23749D01*
G01X3742Y23753D01*
G01X3772Y23758D01*
G01X3800Y23767D01*
G01X3829Y23777D01*
G01X3856Y23790D01*
G01X3882Y23804D01*
G01X3907Y23821D01*
G01X3930Y23839D01*
G01X3952Y23860D01*
G01X13096Y33004D01*
G01X13117Y33026D01*
G01X13135Y33049D01*
G01X13152Y33074D01*
G01X13166Y33100D01*
G01X13179Y33127D01*
G01X13189Y33156D01*
G01X13198Y33184D01*
G01X13203Y33214D01*
G01X13207Y33244D01*
G01X13208Y33274D01*
G01X13208Y40350D01*
G01X13209Y40365D01*
G01X13212Y40379D01*
G01X13217Y40392D01*
G01X13224Y40405D01*
G01X13233Y40417D01*
G01X13243Y40427D01*
G01X13255Y40436D01*
G01X13267Y40443D01*
G01X13281Y40448D01*
G01X13295Y40451D01*
G01X13310Y40452D01*
G01X13325Y40451D01*
G01X13341Y40447D01*
G01X13355Y40441D01*
G01X13369Y40433D01*
G01X13381Y40423D01*
G01X13416Y40389D01*
G01X13453Y40358D01*
G01X13491Y40328D01*
G01X13531Y40300D01*
G01X13572Y40274D01*
G01X13614Y40250D01*
G01X13657Y40229D01*
G01X13671Y40220D01*
G01X13684Y40210D01*
G01X13695Y40198D01*
G01X13703Y40184D01*
G01X13710Y40169D01*
G01X13714Y40153D01*
G01X13715Y40137D01*
G01X13715Y35505D01*
G01X13714Y35490D01*
G01X13710Y35475D01*
G01X13705Y35461D01*
G01X13697Y35448D01*
G01X13687Y35436D01*
G01X13664Y35409D01*
G01X13642Y35382D01*
G01X13623Y35352D01*
G01X13605Y35322D01*
G01X13589Y35291D01*
G01X13575Y35258D01*
G01X13563Y35225D01*
G01X13553Y35191D01*
G01X13545Y35157D01*
G01X13540Y35122D01*
G01X13536Y35087D01*
G01X13535Y35052D01*
G01X13536Y35018D01*
G01X13539Y34984D01*
G01X13544Y34950D01*
G01X13551Y34917D01*
G01X13561Y34884D01*
G01X13572Y34852D01*
G01X13585Y34821D01*
G01X13599Y34791D01*
G01X13616Y34761D01*
G01X13635Y34733D01*
G01X13655Y34705D01*
G01X13676Y34679D01*
G01X13724Y34631D01*
G01X13750Y34610D01*
G01X13778Y34590D01*
G01X13806Y34571D01*
G01X13836Y34554D01*
G01X13866Y34540D01*
G01X13897Y34527D01*
G01X13929Y34516D01*
G01X13962Y34506D01*
G01X13995Y34499D01*
G01X14029Y34494D01*
G01X14063Y34491D01*
G01X14097Y34490D01*
G01X14130Y34491D01*
G01X14164Y34494D01*
G01X14198Y34499D01*
G01X14231Y34506D01*
G01X14264Y34516D01*
G01X14296Y34527D01*
G01X14327Y34540D01*
G01X14357Y34554D01*
G01X14387Y34571D01*
G01X14415Y34590D01*
G01X14443Y34610D01*
G01X14469Y34631D01*
G01X14517Y34679D01*
G01X14538Y34705D01*
G01X14558Y34733D01*
G01X14577Y34761D01*
G01X14594Y34791D01*
G01X14608Y34821D01*
G01X14621Y34852D01*
G01X14632Y34884D01*
G01X14642Y34917D01*
G01X14649Y34950D01*
G01X14654Y34984D01*
G01X14657Y35018D01*
G01X14658Y35051D01*
G01X14657Y35087D01*
G01X14653Y35122D01*
G01X14648Y35157D01*
G01X14640Y35191D01*
G01X14630Y35225D01*
G01X14618Y35258D01*
G01X14604Y35291D01*
G01X14588Y35322D01*
G01X14570Y35352D01*
G01X14551Y35382D01*
G01X14529Y35409D01*
G01X14506Y35436D01*
G01X14496Y35448D01*
G01X14488Y35461D01*
G01X14483Y35475D01*
G01X14479Y35490D01*
G01X14478Y35505D01*
G01X14478Y40137D01*
G01X14479Y40153D01*
G01X14483Y40169D01*
G01X14490Y40184D01*
G01X14498Y40198D01*
G01X14509Y40210D01*
G01X14522Y40220D01*
G01X14536Y40229D01*
G01X14579Y40250D01*
G01X14621Y40274D01*
G01X14662Y40300D01*
G01X14702Y40328D01*
G01X14740Y40358D01*
G01X14777Y40389D01*
G01X14812Y40423D01*
G01X14824Y40433D01*
G01X14838Y40441D01*
G01X14852Y40447D01*
G01X14868Y40451D01*
G01X14883Y40452D01*
G01X14898Y40451D01*
G01X14912Y40448D01*
G01X14926Y40443D01*
G01X14938Y40436D01*
G01X14950Y40427D01*
G01X14960Y40417D01*
G01X14969Y40405D01*
G01X14976Y40392D01*
G01X14981Y40379D01*
G01X14984Y40365D01*
G01X14985Y40350D01*
G01X14985Y24330D01*
G01X14984Y24314D01*
G01X14980Y24298D01*
G01X14974Y24283D01*
G01X14966Y24270D01*
G01X14955Y24258D01*
G01X2538Y11841D01*
G01X2526Y11830D01*
G01X2513Y11822D01*
G01X2498Y11816D01*
G01X2482Y11812D01*
G01X2466Y11811D01*
G01X2407Y11811D01*
G01X2391Y11812D01*
G01X2375Y11816D01*
G01X2360Y11823D01*
G01X2346Y11831D01*
G01X2334Y11842D01*
G01X2324Y11855D01*
G01X2315Y11869D01*
G01X2295Y11910D01*
G01X2272Y11950D01*
G01X2248Y11988D01*
G01X2222Y12026D01*
G01X2194Y12063D01*
G01X2165Y12098D01*
G01X2134Y12132D01*
G01X2102Y12164D01*
G01X2068Y12195D01*
G01X2033Y12225D01*
G01X1996Y12253D01*
G01X1959Y12279D01*
G01X1920Y12303D01*
G01X1880Y12326D01*
G01X1839Y12347D01*
G01X1798Y12366D01*
G01X1755Y12383D01*
G01X1712Y12398D01*
G01X1668Y12411D01*
G01X1624Y12422D01*
G01X1579Y12432D01*
G01X1534Y12439D01*
G01X1488Y12444D01*
G01X1442Y12447D01*
G01X1397Y12448D01*
G01X1351Y12447D01*
G01X1305Y12444D01*
G01X1260Y12439D01*
G01X1215Y12432D01*
G01X1170Y12423D01*
G01X1126Y12411D01*
G01X1082Y12398D01*
G01X1039Y12383D01*
G01X996Y12366D01*
G01X955Y12347D01*
G01X914Y12326D01*
G01X874Y12304D01*
G01X835Y12280D01*
G01X798Y12254D01*
G01X761Y12226D01*
G01X726Y12197D01*
G01X693Y12166D01*
G01X660Y12133D01*
G01X629Y12100D01*
G01X600Y12065D01*
G01X572Y12028D01*
G01X546Y11991D01*
G01X522Y11952D01*
G01X500Y11912D01*
G01X479Y11871D01*
G01X460Y11830D01*
G01X443Y11787D01*
G01X428Y11744D01*
G01X415Y11700D01*
G01X403Y11656D01*
G01X394Y11611D01*
G01X387Y11566D01*
G01X382Y11521D01*
G01X379Y11475D01*
G01X378Y11430D01*
G01X379Y11384D01*
G01X382Y11338D01*
G01X387Y11293D01*
G01X394Y11248D01*
G01X403Y11203D01*
G01X415Y11159D01*
G01X428Y11115D01*
G01X443Y11072D01*
G01X460Y11029D01*
G01X479Y10988D01*
G01X500Y10947D01*
G01X522Y10907D01*
G01X546Y10868D01*
G01X572Y10831D01*
G01X600Y10794D01*
G01X629Y10759D01*
G01X660Y10726D01*
G01X693Y10693D01*
G01X726Y10662D01*
G01X761Y10633D01*
G01X798Y10605D01*
G01X835Y10579D01*
G01X874Y10555D01*
G01X914Y10533D01*
G01X955Y10512D01*
G01X996Y10493D01*
G01X1039Y10476D01*
G01X1082Y10461D01*
G01X1126Y10448D01*
G01X1170Y10436D01*
G01X1215Y10427D01*
G01X1260Y10420D01*
G01X1305Y10415D01*
G01X1351Y10412D01*
G01X1397Y10411D01*
G01X1442Y10412D01*
G01X1488Y10415D01*
G01X1534Y10420D01*
G01X1579Y10427D01*
G01X1624Y10437D01*
G01X1668Y10448D01*
G01X1712Y10461D01*
G01X1755Y10476D01*
G01X1798Y10493D01*
G01X1839Y10512D01*
G01X1880Y10533D01*
G01X1920Y10556D01*
G01X1959Y10580D01*
G01X1996Y10606D01*
G01X2033Y10634D01*
G01X2068Y10664D01*
G01X2102Y10695D01*
G01X2134Y10727D01*
G01X2165Y10761D01*
G01X2194Y10796D01*
G01X2222Y10833D01*
G01X2248Y10871D01*
G01X2272Y10909D01*
G01X2295Y10949D01*
G01X2315Y10990D01*
G01X2324Y11004D01*
G01X2334Y11017D01*
G01X2346Y11028D01*
G01X2360Y11036D01*
G01X2375Y11043D01*
G01X2391Y11047D01*
G01X2407Y11048D01*
G01X2667Y11048D01*
G01X2696Y11049D01*
G01X2726Y11053D01*
G01X2756Y11058D01*
G01X2784Y11067D01*
G01X2813Y11077D01*
G01X2840Y11090D01*
G01X2866Y11104D01*
G01X2891Y11121D01*
G01X2914Y11139D01*
G01X2936Y11160D01*
G01X15636Y23860D01*
G01X15657Y23882D01*
G01X15675Y23905D01*
G01X15692Y23930D01*
G01X15706Y23956D01*
G01X15719Y23983D01*
G01X15729Y24012D01*
G01X15738Y24040D01*
G01X15743Y24070D01*
G01X15747Y24100D01*
G01X15748Y24130D01*
G01X15748Y40350D01*
G01X15749Y40365D01*
G01X15752Y40379D01*
G01X15757Y40392D01*
G01X15764Y40405D01*
G01X15773Y40417D01*
G01X15783Y40427D01*
G01X15795Y40436D01*
G01X15807Y40443D01*
G01X15821Y40448D01*
G01X15835Y40451D01*
G01X15850Y40452D01*
G01X15865Y40451D01*
G01X15881Y40447D01*
G01X15895Y40441D01*
G01X15909Y40433D01*
G01X15921Y40423D01*
G01X15956Y40389D01*
G01X15993Y40358D01*
G01X16031Y40328D01*
G01X16071Y40300D01*
G01X16112Y40274D01*
G01X16154Y40250D01*
G01X16197Y40229D01*
G01X16211Y40220D01*
G01X16224Y40210D01*
G01X16235Y40198D01*
G01X16243Y40184D01*
G01X16250Y40169D01*
G01X16254Y40153D01*
G01X16255Y40137D01*
G01X16255Y37592D01*
G01X16256Y37562D01*
G01X16260Y37532D01*
G01X16265Y37502D01*
G01X16274Y37474D01*
G01X16284Y37445D01*
G01X16297Y37418D01*
G01X16311Y37392D01*
G01X16328Y37367D01*
G01X16346Y37344D01*
G01X16367Y37322D01*
G01X22209Y31480D01*
G01X22231Y31459D01*
G01X22254Y31441D01*
G01X22279Y31424D01*
G01X22305Y31410D01*
G01X22332Y31397D01*
G01X22361Y31387D01*
G01X22389Y31378D01*
G01X22419Y31373D01*
G01X22449Y31369D01*
G01X22478Y31368D01*
G01X23246Y31368D01*
G01X23262Y31367D01*
G01X23278Y31363D01*
G01X23293Y31356D01*
G01X23307Y31348D01*
G01X23319Y31337D01*
G01X23329Y31324D01*
G01X23338Y31310D01*
G01X23358Y31269D01*
G01X23381Y31229D01*
G01X23405Y31191D01*
G01X23431Y31153D01*
G01X23459Y31116D01*
G01X23488Y31081D01*
G01X23519Y31047D01*
G01X23551Y31015D01*
G01X23585Y30984D01*
G01X23620Y30954D01*
G01X23657Y30926D01*
G01X23694Y30900D01*
G01X23733Y30876D01*
G01X23773Y30853D01*
G01X23814Y30832D01*
G01X23855Y30813D01*
G01X23898Y30796D01*
G01X23941Y30781D01*
G01X23985Y30768D01*
G01X24029Y30757D01*
G01X24074Y30747D01*
G01X24119Y30740D01*
G01X24165Y30735D01*
G01X24211Y30732D01*
G01X24257Y30731D01*
G01X24302Y30732D01*
G01X24348Y30735D01*
G01X24393Y30740D01*
G01X24438Y30747D01*
G01X24483Y30756D01*
G01X24527Y30768D01*
G01X24571Y30781D01*
G01X24614Y30796D01*
G01X24657Y30813D01*
G01X24698Y30832D01*
G01X24739Y30853D01*
G01X24779Y30875D01*
G01X24818Y30899D01*
G01X24855Y30925D01*
G01X24892Y30953D01*
G01X24927Y30982D01*
G01X24960Y31013D01*
G01X24993Y31046D01*
G01X25024Y31079D01*
G01X25053Y31114D01*
G01X25081Y31151D01*
G01X25107Y31188D01*
G01X25131Y31227D01*
G01X25153Y31267D01*
G01X25174Y31308D01*
G01X25193Y31349D01*
G01X25210Y31392D01*
G01X25225Y31435D01*
G01X25238Y31479D01*
G01X25250Y31523D01*
G01X25259Y31568D01*
G01X25266Y31613D01*
G01X25271Y31658D01*
G01X25274Y31704D01*
G01X25275Y31750D01*
G01X25274Y31795D01*
G01X25271Y31841D01*
G01X25266Y31886D01*
G01X25259Y31931D01*
G01X25250Y31976D01*
G01X25238Y32020D01*
G01X25225Y32064D01*
G01X25210Y32107D01*
G01X25193Y32150D01*
G01X25174Y32191D01*
G01X25153Y32232D01*
G01X25131Y32272D01*
G01X25107Y32311D01*
G01X25081Y32348D01*
G01X25053Y32385D01*
G01X25024Y32420D01*
G01X24993Y32453D01*
G01X24960Y32486D01*
G01X24927Y32517D01*
G01X24892Y32546D01*
G01X24855Y32574D01*
G01X24818Y32600D01*
G01X24779Y32624D01*
G01X24739Y32646D01*
G01X24698Y32667D01*
G01X24657Y32686D01*
G01X24614Y32703D01*
G01X24571Y32718D01*
G01X24527Y32731D01*
G01X24483Y32743D01*
G01X24438Y32752D01*
G01X24393Y32759D01*
G01X24348Y32764D01*
G01X24302Y32767D01*
G01X24257Y32768D01*
G01X24211Y32767D01*
G01X24165Y32764D01*
G01X24119Y32759D01*
G01X24074Y32752D01*
G01X24029Y32742D01*
G01X23985Y32731D01*
G01X23941Y32718D01*
G01X23898Y32703D01*
G01X23855Y32686D01*
G01X23814Y32667D01*
G01X23773Y32646D01*
G01X23733Y32623D01*
G01X23694Y32599D01*
G01X23657Y32573D01*
G01X23620Y32545D01*
G01X23585Y32515D01*
G01X23551Y32484D01*
G01X23519Y32452D01*
G01X23488Y32418D01*
G01X23459Y32383D01*
G01X23431Y32346D01*
G01X23405Y32308D01*
G01X23381Y32270D01*
G01X23358Y32230D01*
G01X23338Y32189D01*
G01X23329Y32175D01*
G01X23319Y32162D01*
G01X23307Y32151D01*
G01X23293Y32143D01*
G01X23278Y32136D01*
G01X23262Y32132D01*
G01X23246Y32131D01*
G01X22679Y32131D01*
G01X22663Y32132D01*
G01X22647Y32136D01*
G01X22632Y32142D01*
G01X22619Y32150D01*
G01X22607Y32161D01*
G01X17048Y37720D01*
G01X17037Y37732D01*
G01X17029Y37745D01*
G01X17023Y37760D01*
G01X17019Y37776D01*
G01X17018Y37792D01*
G01X17018Y40137D01*
G01X17019Y40153D01*
G01X17023Y40169D01*
G01X17030Y40184D01*
G01X17038Y40198D01*
G01X17049Y40210D01*
G01X17062Y40220D01*
G01X17076Y40229D01*
G01X17117Y40249D01*
G01X17157Y40272D01*
G01X17195Y40296D01*
G01X17233Y40322D01*
G01X17270Y40350D01*
G01X17305Y40379D01*
G01X17339Y40410D01*
G01X17371Y40442D01*
G01X17402Y40476D01*
G01X17432Y40511D01*
G01X17460Y40548D01*
G01X17486Y40585D01*
G01X17510Y40624D01*
G01X17533Y40664D01*
G01X17554Y40705D01*
G01X17573Y40746D01*
G01X17590Y40789D01*
G01X17605Y40832D01*
G01X17618Y40876D01*
G01X17629Y40920D01*
G01X17639Y40965D01*
G01X17646Y41010D01*
G01X17651Y41056D01*
G01X17654Y41102D01*
G01X17655Y41148D01*
G01X17654Y41193D01*
G01X17651Y41239D01*
G01X17646Y41284D01*
G01X17639Y41329D01*
G01X17630Y41374D01*
G01X17618Y41418D01*
G01X17605Y41462D01*
G01X17590Y41505D01*
G01X17573Y41548D01*
G01X17554Y41589D01*
G01X17533Y41630D01*
G01X17511Y41670D01*
G01X17487Y41709D01*
G01X17461Y41746D01*
G01X17433Y41783D01*
G01X17404Y41818D01*
G01X17373Y41851D01*
G01X17340Y41884D01*
G01X17307Y41915D01*
G01X17272Y41944D01*
G01X17235Y41972D01*
G01X17198Y41998D01*
G01X17159Y42022D01*
G01X17119Y42044D01*
G01X17078Y42065D01*
G01X17037Y42084D01*
G01X16994Y42101D01*
G01X16951Y42116D01*
G01X16907Y42129D01*
G01X16863Y42141D01*
G01X16818Y42150D01*
G01X16773Y42157D01*
G01X16728Y42162D01*
G01X16682Y42165D01*
G01X16636Y42166D01*
G01X16590Y42165D01*
G01X16543Y42162D01*
G01X16497Y42156D01*
G01X16451Y42149D01*
G01X16405Y42139D01*
G01X16360Y42128D01*
G01X16315Y42114D01*
G01X16271Y42098D01*
G01X16228Y42081D01*
G01X16186Y42061D01*
G01X16145Y42039D01*
G01X16104Y42016D01*
G01X16065Y41991D01*
G01X16027Y41964D01*
G01X15990Y41935D01*
G01X15955Y41904D01*
G01X15921Y41872D01*
G01X15909Y41862D01*
G01X15895Y41854D01*
G01X15881Y41848D01*
G01X15865Y41844D01*
G01X15850Y41843D01*
G01X15835Y41844D01*
G01X15821Y41847D01*
G01X15807Y41852D01*
G01X15795Y41859D01*
G01X15783Y41868D01*
G01X15773Y41878D01*
G01X15764Y41890D01*
G01X15757Y41903D01*
G01X15752Y41916D01*
G01X15749Y41930D01*
G01X15748Y41945D01*
G01X15748Y42290D01*
G01X15747Y42320D01*
G01X15743Y42350D01*
G01X15738Y42380D01*
G01X15729Y42408D01*
G01X15719Y42437D01*
G01X15706Y42464D01*
G01X15692Y42490D01*
G01X15675Y42515D01*
G01X15657Y42538D01*
G01X15636Y42560D01*
G01X15044Y43152D01*
G01X15034Y43164D01*
G01X15026Y43178D01*
G01X15020Y43193D01*
G01X15016Y43208D01*
G01X15015Y43224D01*
G01X15016Y43238D01*
G01X15019Y43253D01*
G01X15024Y43266D01*
G01X15043Y43310D01*
G01X15059Y43356D01*
G01X15074Y43402D01*
G01X15087Y43448D01*
G01X15097Y43496D01*
G01X15105Y43543D01*
G01X15110Y43591D01*
G01X15114Y43639D01*
G01X15115Y43688D01*
G01X15114Y43733D01*
G01X15111Y43779D01*
G01X15106Y43824D01*
G01X15099Y43869D01*
G01X15090Y43914D01*
G01X15078Y43958D01*
G01X15065Y44002D01*
G01X15050Y44045D01*
G01X15033Y44088D01*
G01X15014Y44129D01*
G01X14993Y44170D01*
G01X14971Y44210D01*
G01X14947Y44249D01*
G01X14921Y44286D01*
G01X14893Y44323D01*
G01X14864Y44358D01*
G01X14833Y44391D01*
G01X14800Y44424D01*
G01X14767Y44455D01*
G01X14732Y44484D01*
G01X14695Y44512D01*
G01X14658Y44538D01*
G01X14619Y44562D01*
G01X14579Y44584D01*
G01X14538Y44605D01*
G01X14497Y44624D01*
G01X14454Y44641D01*
G01X14411Y44656D01*
G01X14367Y44669D01*
G01X14323Y44681D01*
G01X14278Y44690D01*
G01X14233Y44697D01*
G01X14188Y44702D01*
G01X14142Y44705D01*
G01X14097Y44706D01*
G01X14051Y44705D01*
G01X14005Y44702D01*
G01X13960Y44697D01*
G01X13915Y44690D01*
G01X13870Y44681D01*
G01X13826Y44669D01*
G01X13782Y44656D01*
G01X13739Y44641D01*
G01X13696Y44624D01*
G01X13655Y44605D01*
G01X13614Y44584D01*
G01X13574Y44562D01*
G01X13535Y44538D01*
G01X13498Y44512D01*
G01X13461Y44484D01*
G01X13426Y44455D01*
G01X13393Y44424D01*
G01X13360Y44391D01*
G01X13329Y44358D01*
G01X13300Y44323D01*
G01X13272Y44286D01*
G01X13246Y44249D01*
G01X13222Y44210D01*
G01X13200Y44170D01*
G01X13179Y44129D01*
G01X13160Y44088D01*
G01X13143Y44045D01*
G01X13128Y44002D01*
G01X13115Y43958D01*
G01X13103Y43914D01*
G01X13094Y43869D01*
G01X13087Y43824D01*
G01X13082Y43779D01*
G01X13079Y43733D01*
G01X13078Y43688D01*
G01X13079Y43642D01*
G01X13082Y43596D01*
G01X13087Y43551D01*
G01X13094Y43506D01*
G01X13103Y43461D01*
G01X13115Y43417D01*
G01X13128Y43373D01*
G01X13143Y43330D01*
G01X13160Y43287D01*
G01X13179Y43246D01*
G01X13200Y43205D01*
G01X13222Y43165D01*
G01X13246Y43126D01*
G01X13272Y43089D01*
G01X13300Y43052D01*
G01X13329Y43017D01*
G01X13360Y42984D01*
G01X13393Y42951D01*
G01X13426Y42920D01*
G01X13461Y42891D01*
G01X13498Y42863D01*
G01X13535Y42837D01*
G01X13574Y42813D01*
G01X13614Y42791D01*
G01X13655Y42770D01*
G01X13696Y42751D01*
G01X13739Y42734D01*
G01X13782Y42719D01*
G01X13826Y42706D01*
G01X13870Y42694D01*
G01X13915Y42685D01*
G01X13960Y42678D01*
G01X14005Y42673D01*
G01X14051Y42670D01*
G01X14097Y42669D01*
G01X14147Y42670D01*
G01X14198Y42674D01*
G01X14248Y42680D01*
G01X14298Y42689D01*
G01X14347Y42700D01*
G01X14372Y42703D01*
G01X14388Y42702D01*
G01X14403Y42698D01*
G01X14418Y42692D01*
G01X14432Y42684D01*
G01X14444Y42674D01*
G01X14955Y42162D01*
G01X14966Y42150D01*
G01X14974Y42137D01*
G01X14980Y42122D01*
G01X14984Y42106D01*
G01X14985Y42090D01*
G01X14985Y41945D01*
G01X14984Y41930D01*
G01X14981Y41916D01*
G01X14976Y41903D01*
G01X14969Y41890D01*
G01X14960Y41878D01*
G01X14950Y41868D01*
G01X14938Y41859D01*
G01X14926Y41852D01*
G01X14912Y41847D01*
G01X14898Y41844D01*
G01X14883Y41843D01*
G01X14868Y41844D01*
G01X14852Y41848D01*
G01X14838Y41854D01*
G01X14824Y41862D01*
G01X14812Y41872D01*
G01X14778Y41904D01*
G01X14743Y41935D01*
G01X14706Y41964D01*
G01X14668Y41991D01*
G01X14629Y42016D01*
G01X14588Y42039D01*
G01X14547Y42061D01*
G01X14505Y42081D01*
G01X14462Y42098D01*
G01X14418Y42114D01*
G01X14373Y42128D01*
G01X14328Y42139D01*
G01X14282Y42149D01*
G01X14236Y42156D01*
G01X14190Y42162D01*
G01X14143Y42165D01*
G01X14096Y42166D01*
G01X14050Y42165D01*
G01X14003Y42162D01*
G01X13957Y42156D01*
G01X13911Y42149D01*
G01X13865Y42139D01*
G01X13820Y42128D01*
G01X13775Y42114D01*
G01X13731Y42098D01*
G01X13688Y42081D01*
G01X13646Y42061D01*
G01X13605Y42039D01*
G01X13564Y42016D01*
G01X13525Y41991D01*
G01X13487Y41964D01*
G01X13450Y41935D01*
G01X13415Y41904D01*
G01X13381Y41872D01*
G01X13369Y41862D01*
G01X13355Y41854D01*
G01X13341Y41848D01*
G01X13325Y41844D01*
G01X13310Y41843D01*
G01X13295Y41844D01*
G01X13281Y41847D01*
G01X13267Y41852D01*
G01X13255Y41859D01*
G01X13243Y41868D01*
G01X13233Y41878D01*
G01X13224Y41890D01*
G01X13217Y41903D01*
G01X13212Y41916D01*
G01X13209Y41930D01*
G01X13208Y41945D01*
G01X13208Y42417D01*
G01X13207Y42447D01*
G01X13203Y42477D01*
G01X13198Y42507D01*
G01X13189Y42535D01*
G01X13179Y42564D01*
G01X13166Y42591D01*
G01X13152Y42617D01*
G01X13135Y42642D01*
G01X13117Y42665D01*
G01X13096Y42687D01*
G01X12541Y43243D01*
G01X12531Y43255D01*
G01X12522Y43268D01*
G01X12516Y43283D01*
G01X12512Y43299D01*
G01X12511Y43315D01*
G01X12513Y43332D01*
G01X12517Y43348D01*
G01X12532Y43395D01*
G01X12545Y43443D01*
G01X12556Y43491D01*
G01X12564Y43540D01*
G01X12570Y43589D01*
G01X12574Y43638D01*
G01X12575Y43688D01*
G01X12574Y43733D01*
G01X12571Y43779D01*
G01X12566Y43824D01*
G01X12559Y43869D01*
G01X12550Y43914D01*
G01X12538Y43958D01*
G01X12525Y44002D01*
G01X12510Y44045D01*
G01X12493Y44088D01*
G01X12474Y44129D01*
G01X12453Y44170D01*
G01X12431Y44210D01*
G01X12407Y44249D01*
G01X12381Y44286D01*
G01X12353Y44323D01*
G01X12324Y44358D01*
G01X12293Y44391D01*
G01X12260Y44424D01*
G01X12227Y44455D01*
G01X12192Y44484D01*
G01X12155Y44512D01*
G01X12118Y44538D01*
G01X12079Y44562D01*
G01X12039Y44584D01*
G01X11998Y44605D01*
G01X11957Y44624D01*
G01X11914Y44641D01*
G01X11871Y44656D01*
G01X11827Y44669D01*
G01X11783Y44681D01*
G01X11738Y44690D01*
G01X11693Y44697D01*
G01X11648Y44702D01*
G01X11602Y44705D01*
G37*
G36*
G01X9062Y44705D02*
G01X9017Y44706D01*
G01X8971Y44705D01*
G01X8925Y44702D01*
G01X8880Y44697D01*
G01X8835Y44690D01*
G01X8790Y44681D01*
G01X8746Y44669D01*
G01X8702Y44656D01*
G01X8659Y44641D01*
G01X8616Y44624D01*
G01X8575Y44605D01*
G01X8534Y44584D01*
G01X8494Y44562D01*
G01X8455Y44538D01*
G01X8418Y44512D01*
G01X8381Y44484D01*
G01X8346Y44455D01*
G01X8313Y44424D01*
G01X8280Y44391D01*
G01X8249Y44358D01*
G01X8220Y44323D01*
G01X8192Y44286D01*
G01X8166Y44249D01*
G01X8142Y44210D01*
G01X8120Y44170D01*
G01X8099Y44129D01*
G01X8080Y44088D01*
G01X8063Y44045D01*
G01X8048Y44002D01*
G01X8035Y43958D01*
G01X8023Y43914D01*
G01X8014Y43869D01*
G01X8007Y43824D01*
G01X8002Y43779D01*
G01X7999Y43733D01*
G01X7998Y43688D01*
G01X7999Y43638D01*
G01X8003Y43589D01*
G01X8009Y43540D01*
G01X8017Y43491D01*
G01X8028Y43443D01*
G01X8041Y43395D01*
G01X8056Y43348D01*
G01X8060Y43332D01*
G01X8062Y43315D01*
G01X8061Y43299D01*
G01X8057Y43283D01*
G01X8051Y43268D01*
G01X8042Y43255D01*
G01X8032Y43243D01*
G01X5826Y41036D01*
G01X5805Y41014D01*
G01X5787Y40991D01*
G01X5770Y40966D01*
G01X5756Y40940D01*
G01X5743Y40913D01*
G01X5733Y40884D01*
G01X5724Y40856D01*
G01X5719Y40826D01*
G01X5715Y40796D01*
G01X5714Y40767D01*
G01X5714Y33727D01*
G01X5713Y33712D01*
G01X5709Y33697D01*
G01X5704Y33683D01*
G01X5696Y33670D01*
G01X5686Y33658D01*
G01X5663Y33631D01*
G01X5641Y33604D01*
G01X5622Y33574D01*
G01X5604Y33544D01*
G01X5588Y33513D01*
G01X5574Y33480D01*
G01X5562Y33447D01*
G01X5552Y33413D01*
G01X5544Y33379D01*
G01X5539Y33344D01*
G01X5535Y33309D01*
G01X5534Y33274D01*
G01X5535Y33240D01*
G01X5538Y33206D01*
G01X5543Y33172D01*
G01X5550Y33139D01*
G01X5560Y33106D01*
G01X5571Y33074D01*
G01X5584Y33043D01*
G01X5598Y33013D01*
G01X5615Y32983D01*
G01X5634Y32955D01*
G01X5654Y32927D01*
G01X5675Y32901D01*
G01X5723Y32853D01*
G01X5749Y32832D01*
G01X5777Y32812D01*
G01X5805Y32793D01*
G01X5835Y32776D01*
G01X5865Y32762D01*
G01X5896Y32749D01*
G01X5928Y32738D01*
G01X5961Y32728D01*
G01X5994Y32721D01*
G01X6028Y32716D01*
G01X6062Y32713D01*
G01X6096Y32712D01*
G01X6129Y32713D01*
G01X6163Y32716D01*
G01X6197Y32721D01*
G01X6230Y32728D01*
G01X6263Y32738D01*
G01X6295Y32749D01*
G01X6326Y32762D01*
G01X6356Y32776D01*
G01X6386Y32793D01*
G01X6414Y32812D01*
G01X6442Y32832D01*
G01X6468Y32853D01*
G01X6516Y32901D01*
G01X6537Y32927D01*
G01X6557Y32955D01*
G01X6576Y32983D01*
G01X6593Y33013D01*
G01X6607Y33043D01*
G01X6620Y33074D01*
G01X6631Y33106D01*
G01X6641Y33139D01*
G01X6648Y33172D01*
G01X6653Y33206D01*
G01X6656Y33240D01*
G01X6657Y33273D01*
G01X6656Y33309D01*
G01X6652Y33344D01*
G01X6647Y33379D01*
G01X6639Y33413D01*
G01X6629Y33447D01*
G01X6617Y33480D01*
G01X6603Y33513D01*
G01X6587Y33544D01*
G01X6569Y33574D01*
G01X6550Y33604D01*
G01X6528Y33631D01*
G01X6505Y33658D01*
G01X6495Y33670D01*
G01X6487Y33683D01*
G01X6482Y33697D01*
G01X6478Y33712D01*
G01X6477Y33727D01*
G01X6477Y40566D01*
G01X6478Y40582D01*
G01X6482Y40598D01*
G01X6488Y40613D01*
G01X6496Y40626D01*
G01X6507Y40638D01*
G01X8572Y42703D01*
G01X8584Y42713D01*
G01X8597Y42722D01*
G01X8612Y42728D01*
G01X8628Y42732D01*
G01X8644Y42733D01*
G01X8661Y42731D01*
G01X8677Y42727D01*
G01X8724Y42712D01*
G01X8772Y42699D01*
G01X8820Y42688D01*
G01X8869Y42680D01*
G01X8918Y42674D01*
G01X8967Y42670D01*
G01X9017Y42669D01*
G01X9062Y42670D01*
G01X9108Y42673D01*
G01X9153Y42678D01*
G01X9198Y42685D01*
G01X9243Y42694D01*
G01X9287Y42706D01*
G01X9331Y42719D01*
G01X9374Y42734D01*
G01X9417Y42751D01*
G01X9458Y42770D01*
G01X9499Y42791D01*
G01X9539Y42813D01*
G01X9578Y42837D01*
G01X9615Y42863D01*
G01X9652Y42891D01*
G01X9687Y42920D01*
G01X9720Y42951D01*
G01X9753Y42984D01*
G01X9784Y43017D01*
G01X9813Y43052D01*
G01X9841Y43089D01*
G01X9867Y43126D01*
G01X9891Y43165D01*
G01X9913Y43205D01*
G01X9934Y43246D01*
G01X9953Y43287D01*
G01X9970Y43330D01*
G01X9985Y43373D01*
G01X9998Y43417D01*
G01X10010Y43461D01*
G01X10019Y43506D01*
G01X10026Y43551D01*
G01X10031Y43596D01*
G01X10034Y43642D01*
G01X10035Y43688D01*
G01X10034Y43733D01*
G01X10031Y43779D01*
G01X10026Y43824D01*
G01X10019Y43869D01*
G01X10010Y43914D01*
G01X9998Y43958D01*
G01X9985Y44002D01*
G01X9970Y44045D01*
G01X9953Y44088D01*
G01X9934Y44129D01*
G01X9913Y44170D01*
G01X9891Y44210D01*
G01X9867Y44249D01*
G01X9841Y44286D01*
G01X9813Y44323D01*
G01X9784Y44358D01*
G01X9753Y44391D01*
G01X9720Y44424D01*
G01X9687Y44455D01*
G01X9652Y44484D01*
G01X9615Y44512D01*
G01X9578Y44538D01*
G01X9539Y44562D01*
G01X9499Y44584D01*
G01X9458Y44605D01*
G01X9417Y44624D01*
G01X9374Y44641D01*
G01X9331Y44656D01*
G01X9287Y44669D01*
G01X9243Y44681D01*
G01X9198Y44690D01*
G01X9153Y44697D01*
G01X9108Y44702D01*
G01X9062Y44705D01*
G37*
G36*
G01X4732Y35612D02*
G01X4699Y35613D01*
G01X4664Y35612D01*
G01X4630Y35609D01*
G01X4595Y35603D01*
G01X4562Y35596D01*
G01X4528Y35586D01*
G01X4496Y35575D01*
G01X4464Y35561D01*
G01X4433Y35546D01*
G01X4403Y35529D01*
G01X4374Y35510D01*
G01X4347Y35489D01*
G01X4320Y35466D01*
G01X4296Y35442D01*
G01X4272Y35417D01*
G01X4251Y35390D01*
G01X4231Y35362D01*
G01X4212Y35332D01*
G01X4196Y35302D01*
G01X4182Y35270D01*
G01X4169Y35238D01*
G01X4159Y35205D01*
G01X4150Y35172D01*
G01X4144Y35138D01*
G01X4140Y35103D01*
G01X4137Y35069D01*
G01X4136Y35054D01*
G01X4132Y35039D01*
G01X4126Y35025D01*
G01X4118Y35012D01*
G01X4108Y35000D01*
G01X1841Y32734D01*
G01X1829Y32724D01*
G01X1816Y32715D01*
G01X1801Y32709D01*
G01X1785Y32705D01*
G01X1769Y32704D01*
G01X1752Y32706D01*
G01X1736Y32710D01*
G01X1689Y32725D01*
G01X1641Y32738D01*
G01X1593Y32749D01*
G01X1544Y32757D01*
G01X1495Y32763D01*
G01X1446Y32767D01*
G01X1397Y32768D01*
G01X1351Y32767D01*
G01X1305Y32764D01*
G01X1260Y32759D01*
G01X1215Y32752D01*
G01X1170Y32743D01*
G01X1126Y32731D01*
G01X1082Y32718D01*
G01X1039Y32703D01*
G01X996Y32686D01*
G01X955Y32667D01*
G01X914Y32646D01*
G01X874Y32624D01*
G01X835Y32600D01*
G01X798Y32574D01*
G01X761Y32546D01*
G01X726Y32517D01*
G01X693Y32486D01*
G01X660Y32453D01*
G01X629Y32420D01*
G01X600Y32385D01*
G01X572Y32348D01*
G01X546Y32311D01*
G01X522Y32272D01*
G01X500Y32232D01*
G01X479Y32191D01*
G01X460Y32150D01*
G01X443Y32107D01*
G01X428Y32064D01*
G01X415Y32020D01*
G01X403Y31976D01*
G01X394Y31931D01*
G01X387Y31886D01*
G01X382Y31841D01*
G01X379Y31795D01*
G01X378Y31750D01*
G01X379Y31704D01*
G01X382Y31658D01*
G01X387Y31613D01*
G01X394Y31568D01*
G01X403Y31523D01*
G01X415Y31479D01*
G01X428Y31435D01*
G01X443Y31392D01*
G01X460Y31349D01*
G01X479Y31308D01*
G01X500Y31267D01*
G01X522Y31227D01*
G01X546Y31188D01*
G01X572Y31151D01*
G01X600Y31114D01*
G01X629Y31079D01*
G01X660Y31046D01*
G01X693Y31013D01*
G01X726Y30982D01*
G01X761Y30953D01*
G01X798Y30925D01*
G01X835Y30899D01*
G01X874Y30875D01*
G01X914Y30853D01*
G01X955Y30832D01*
G01X996Y30813D01*
G01X1039Y30796D01*
G01X1082Y30781D01*
G01X1126Y30768D01*
G01X1170Y30756D01*
G01X1215Y30747D01*
G01X1260Y30740D01*
G01X1305Y30735D01*
G01X1351Y30732D01*
G01X1397Y30731D01*
G01X1442Y30732D01*
G01X1488Y30735D01*
G01X1533Y30740D01*
G01X1578Y30747D01*
G01X1623Y30756D01*
G01X1667Y30768D01*
G01X1711Y30781D01*
G01X1754Y30796D01*
G01X1797Y30813D01*
G01X1838Y30832D01*
G01X1879Y30853D01*
G01X1919Y30875D01*
G01X1958Y30899D01*
G01X1995Y30925D01*
G01X2032Y30953D01*
G01X2067Y30982D01*
G01X2100Y31013D01*
G01X2133Y31046D01*
G01X2164Y31079D01*
G01X2193Y31114D01*
G01X2221Y31151D01*
G01X2247Y31188D01*
G01X2271Y31227D01*
G01X2293Y31267D01*
G01X2314Y31308D01*
G01X2333Y31349D01*
G01X2350Y31392D01*
G01X2365Y31435D01*
G01X2378Y31479D01*
G01X2390Y31523D01*
G01X2399Y31568D01*
G01X2406Y31613D01*
G01X2411Y31658D01*
G01X2414Y31704D01*
G01X2415Y31749D01*
G01X2414Y31799D01*
G01X2410Y31848D01*
G01X2404Y31897D01*
G01X2396Y31946D01*
G01X2385Y31994D01*
G01X2372Y32042D01*
G01X2357Y32089D01*
G01X2353Y32105D01*
G01X2351Y32122D01*
G01X2352Y32138D01*
G01X2356Y32154D01*
G01X2362Y32169D01*
G01X2371Y32182D01*
G01X2381Y32194D01*
G01X4647Y34461D01*
G01X4659Y34471D01*
G01X4672Y34479D01*
G01X4686Y34485D01*
G01X4701Y34489D01*
G01X4716Y34490D01*
G01X4750Y34493D01*
G01X4785Y34497D01*
G01X4819Y34503D01*
G01X4852Y34512D01*
G01X4885Y34522D01*
G01X4917Y34535D01*
G01X4949Y34549D01*
G01X4979Y34565D01*
G01X5009Y34584D01*
G01X5037Y34604D01*
G01X5064Y34625D01*
G01X5089Y34649D01*
G01X5113Y34673D01*
G01X5136Y34700D01*
G01X5157Y34727D01*
G01X5176Y34756D01*
G01X5193Y34786D01*
G01X5208Y34817D01*
G01X5222Y34849D01*
G01X5233Y34881D01*
G01X5243Y34915D01*
G01X5250Y34948D01*
G01X5256Y34983D01*
G01X5259Y35017D01*
G01X5260Y35052D01*
G01X5259Y35085D01*
G01X5256Y35119D01*
G01X5251Y35153D01*
G01X5244Y35186D01*
G01X5234Y35219D01*
G01X5223Y35251D01*
G01X5210Y35282D01*
G01X5196Y35312D01*
G01X5179Y35342D01*
G01X5160Y35370D01*
G01X5140Y35398D01*
G01X5119Y35424D01*
G01X5071Y35472D01*
G01X5045Y35493D01*
G01X5017Y35513D01*
G01X4989Y35532D01*
G01X4959Y35549D01*
G01X4929Y35563D01*
G01X4898Y35576D01*
G01X4866Y35587D01*
G01X4833Y35597D01*
G01X4800Y35604D01*
G01X4766Y35609D01*
G01X4732Y35612D01*
G37*
G36*
G01X6129Y29389D02*
G01X6096Y29390D01*
G01X6061Y29389D01*
G01X6027Y29386D01*
G01X5992Y29380D01*
G01X5959Y29373D01*
G01X5925Y29363D01*
G01X5893Y29352D01*
G01X5861Y29338D01*
G01X5830Y29323D01*
G01X5800Y29306D01*
G01X5771Y29287D01*
G01X5744Y29266D01*
G01X5717Y29243D01*
G01X5693Y29219D01*
G01X5669Y29194D01*
G01X5648Y29167D01*
G01X5628Y29139D01*
G01X5609Y29109D01*
G01X5593Y29079D01*
G01X5579Y29047D01*
G01X5566Y29015D01*
G01X5556Y28982D01*
G01X5547Y28949D01*
G01X5541Y28915D01*
G01X5537Y28880D01*
G01X5534Y28846D01*
G01X5533Y28831D01*
G01X5529Y28816D01*
G01X5523Y28802D01*
G01X5515Y28789D01*
G01X5505Y28777D01*
G01X3808Y27081D01*
G01X3796Y27070D01*
G01X3783Y27062D01*
G01X3768Y27056D01*
G01X3752Y27052D01*
G01X3736Y27051D01*
G01X2407Y27051D01*
G01X2391Y27052D01*
G01X2375Y27056D01*
G01X2360Y27063D01*
G01X2346Y27071D01*
G01X2334Y27082D01*
G01X2324Y27095D01*
G01X2315Y27109D01*
G01X2295Y27150D01*
G01X2272Y27190D01*
G01X2248Y27228D01*
G01X2222Y27266D01*
G01X2194Y27303D01*
G01X2165Y27338D01*
G01X2134Y27372D01*
G01X2102Y27404D01*
G01X2068Y27435D01*
G01X2033Y27465D01*
G01X1996Y27493D01*
G01X1959Y27519D01*
G01X1920Y27543D01*
G01X1880Y27566D01*
G01X1839Y27587D01*
G01X1798Y27606D01*
G01X1755Y27623D01*
G01X1712Y27638D01*
G01X1668Y27651D01*
G01X1624Y27662D01*
G01X1579Y27672D01*
G01X1534Y27679D01*
G01X1488Y27684D01*
G01X1442Y27687D01*
G01X1397Y27688D01*
G01X1351Y27687D01*
G01X1305Y27684D01*
G01X1260Y27679D01*
G01X1215Y27672D01*
G01X1170Y27663D01*
G01X1126Y27651D01*
G01X1082Y27638D01*
G01X1039Y27623D01*
G01X996Y27606D01*
G01X955Y27587D01*
G01X914Y27566D01*
G01X874Y27544D01*
G01X835Y27520D01*
G01X798Y27494D01*
G01X761Y27466D01*
G01X726Y27437D01*
G01X693Y27406D01*
G01X660Y27373D01*
G01X629Y27340D01*
G01X600Y27305D01*
G01X572Y27268D01*
G01X546Y27231D01*
G01X522Y27192D01*
G01X500Y27152D01*
G01X479Y27111D01*
G01X460Y27070D01*
G01X443Y27027D01*
G01X428Y26984D01*
G01X415Y26940D01*
G01X403Y26896D01*
G01X394Y26851D01*
G01X387Y26806D01*
G01X382Y26761D01*
G01X379Y26715D01*
G01X378Y26670D01*
G01X379Y26624D01*
G01X382Y26578D01*
G01X387Y26533D01*
G01X394Y26488D01*
G01X403Y26443D01*
G01X415Y26399D01*
G01X428Y26355D01*
G01X443Y26312D01*
G01X460Y26269D01*
G01X479Y26228D01*
G01X500Y26187D01*
G01X522Y26147D01*
G01X546Y26108D01*
G01X572Y26071D01*
G01X600Y26034D01*
G01X629Y25999D01*
G01X660Y25966D01*
G01X693Y25933D01*
G01X726Y25902D01*
G01X761Y25873D01*
G01X798Y25845D01*
G01X835Y25819D01*
G01X874Y25795D01*
G01X914Y25773D01*
G01X955Y25752D01*
G01X996Y25733D01*
G01X1039Y25716D01*
G01X1082Y25701D01*
G01X1126Y25688D01*
G01X1170Y25676D01*
G01X1215Y25667D01*
G01X1260Y25660D01*
G01X1305Y25655D01*
G01X1351Y25652D01*
G01X1397Y25651D01*
G01X1442Y25652D01*
G01X1488Y25655D01*
G01X1534Y25660D01*
G01X1579Y25667D01*
G01X1624Y25677D01*
G01X1668Y25688D01*
G01X1712Y25701D01*
G01X1755Y25716D01*
G01X1798Y25733D01*
G01X1839Y25752D01*
G01X1880Y25773D01*
G01X1920Y25796D01*
G01X1959Y25820D01*
G01X1996Y25846D01*
G01X2033Y25874D01*
G01X2068Y25904D01*
G01X2102Y25935D01*
G01X2134Y25967D01*
G01X2165Y26001D01*
G01X2194Y26036D01*
G01X2222Y26073D01*
G01X2248Y26111D01*
G01X2272Y26149D01*
G01X2295Y26189D01*
G01X2315Y26230D01*
G01X2324Y26244D01*
G01X2334Y26257D01*
G01X2346Y26268D01*
G01X2360Y26276D01*
G01X2375Y26283D01*
G01X2391Y26287D01*
G01X2407Y26288D01*
G01X3937Y26288D01*
G01X3966Y26289D01*
G01X3996Y26293D01*
G01X4026Y26298D01*
G01X4054Y26307D01*
G01X4083Y26317D01*
G01X4110Y26330D01*
G01X4136Y26344D01*
G01X4161Y26361D01*
G01X4184Y26379D01*
G01X4206Y26400D01*
G01X6044Y28238D01*
G01X6056Y28248D01*
G01X6069Y28256D01*
G01X6083Y28262D01*
G01X6098Y28266D01*
G01X6113Y28267D01*
G01X6147Y28270D01*
G01X6182Y28274D01*
G01X6216Y28280D01*
G01X6249Y28289D01*
G01X6282Y28299D01*
G01X6314Y28312D01*
G01X6346Y28326D01*
G01X6376Y28342D01*
G01X6406Y28361D01*
G01X6434Y28381D01*
G01X6461Y28402D01*
G01X6486Y28426D01*
G01X6510Y28450D01*
G01X6533Y28477D01*
G01X6554Y28504D01*
G01X6573Y28533D01*
G01X6590Y28563D01*
G01X6605Y28594D01*
G01X6619Y28626D01*
G01X6630Y28658D01*
G01X6640Y28692D01*
G01X6647Y28725D01*
G01X6653Y28760D01*
G01X6656Y28794D01*
G01X6657Y28829D01*
G01X6656Y28862D01*
G01X6653Y28896D01*
G01X6648Y28930D01*
G01X6641Y28963D01*
G01X6631Y28996D01*
G01X6620Y29028D01*
G01X6607Y29059D01*
G01X6593Y29089D01*
G01X6576Y29119D01*
G01X6557Y29147D01*
G01X6537Y29175D01*
G01X6516Y29201D01*
G01X6468Y29249D01*
G01X6442Y29270D01*
G01X6414Y29290D01*
G01X6386Y29309D01*
G01X6356Y29326D01*
G01X6326Y29340D01*
G01X6295Y29353D01*
G01X6263Y29364D01*
G01X6230Y29374D01*
G01X6197Y29381D01*
G01X6163Y29386D01*
G01X6129Y29389D01*
G37*
G36*
G01X1442Y14987D02*
G01X1397Y14988D01*
G01X1351Y14987D01*
G01X1305Y14984D01*
G01X1260Y14979D01*
G01X1215Y14972D01*
G01X1170Y14963D01*
G01X1126Y14951D01*
G01X1082Y14938D01*
G01X1039Y14923D01*
G01X996Y14906D01*
G01X955Y14887D01*
G01X914Y14866D01*
G01X874Y14844D01*
G01X835Y14820D01*
G01X798Y14794D01*
G01X761Y14766D01*
G01X726Y14737D01*
G01X693Y14706D01*
G01X660Y14673D01*
G01X629Y14640D01*
G01X600Y14605D01*
G01X572Y14568D01*
G01X546Y14531D01*
G01X522Y14492D01*
G01X500Y14452D01*
G01X479Y14411D01*
G01X460Y14370D01*
G01X443Y14327D01*
G01X428Y14284D01*
G01X415Y14240D01*
G01X403Y14196D01*
G01X394Y14151D01*
G01X387Y14106D01*
G01X382Y14061D01*
G01X379Y14015D01*
G01X378Y13970D01*
G01X379Y13924D01*
G01X382Y13878D01*
G01X387Y13833D01*
G01X394Y13788D01*
G01X403Y13743D01*
G01X415Y13699D01*
G01X428Y13655D01*
G01X443Y13612D01*
G01X460Y13569D01*
G01X479Y13528D01*
G01X500Y13487D01*
G01X522Y13447D01*
G01X546Y13408D01*
G01X572Y13371D01*
G01X600Y13334D01*
G01X629Y13299D01*
G01X660Y13266D01*
G01X693Y13233D01*
G01X726Y13202D01*
G01X761Y13173D01*
G01X798Y13145D01*
G01X835Y13119D01*
G01X874Y13095D01*
G01X914Y13073D01*
G01X955Y13052D01*
G01X996Y13033D01*
G01X1039Y13016D01*
G01X1082Y13001D01*
G01X1126Y12988D01*
G01X1170Y12976D01*
G01X1215Y12967D01*
G01X1260Y12960D01*
G01X1305Y12955D01*
G01X1351Y12952D01*
G01X1397Y12951D01*
G01X1442Y12952D01*
G01X1488Y12955D01*
G01X1533Y12960D01*
G01X1578Y12967D01*
G01X1623Y12976D01*
G01X1667Y12988D01*
G01X1711Y13001D01*
G01X1754Y13016D01*
G01X1797Y13033D01*
G01X1838Y13052D01*
G01X1879Y13073D01*
G01X1919Y13095D01*
G01X1958Y13119D01*
G01X1995Y13145D01*
G01X2032Y13173D01*
G01X2067Y13202D01*
G01X2100Y13233D01*
G01X2133Y13266D01*
G01X2164Y13299D01*
G01X2193Y13334D01*
G01X2221Y13371D01*
G01X2247Y13408D01*
G01X2271Y13447D01*
G01X2293Y13487D01*
G01X2314Y13528D01*
G01X2333Y13569D01*
G01X2350Y13612D01*
G01X2365Y13655D01*
G01X2378Y13699D01*
G01X2390Y13743D01*
G01X2399Y13788D01*
G01X2406Y13833D01*
G01X2411Y13878D01*
G01X2414Y13924D01*
G01X2415Y13970D01*
G01X2414Y14015D01*
G01X2411Y14061D01*
G01X2406Y14106D01*
G01X2399Y14151D01*
G01X2390Y14196D01*
G01X2378Y14240D01*
G01X2365Y14284D01*
G01X2350Y14327D01*
G01X2333Y14370D01*
G01X2314Y14411D01*
G01X2293Y14452D01*
G01X2271Y14492D01*
G01X2247Y14531D01*
G01X2221Y14568D01*
G01X2193Y14605D01*
G01X2164Y14640D01*
G01X2133Y14673D01*
G01X2100Y14706D01*
G01X2067Y14737D01*
G01X2032Y14766D01*
G01X1995Y14794D01*
G01X1958Y14820D01*
G01X1919Y14844D01*
G01X1879Y14866D01*
G01X1838Y14887D01*
G01X1797Y14906D01*
G01X1754Y14923D01*
G01X1711Y14938D01*
G01X1667Y14951D01*
G01X1623Y14963D01*
G01X1578Y14972D01*
G01X1533Y14979D01*
G01X1488Y14984D01*
G01X1442Y14987D01*
G37*
G36*
G01X24302Y14987D02*
G01X24257Y14988D01*
G01X24211Y14987D01*
G01X24165Y14984D01*
G01X24120Y14979D01*
G01X24075Y14972D01*
G01X24030Y14963D01*
G01X23986Y14951D01*
G01X23942Y14938D01*
G01X23899Y14923D01*
G01X23856Y14906D01*
G01X23815Y14887D01*
G01X23774Y14866D01*
G01X23734Y14844D01*
G01X23695Y14820D01*
G01X23658Y14794D01*
G01X23621Y14766D01*
G01X23586Y14737D01*
G01X23553Y14706D01*
G01X23520Y14673D01*
G01X23489Y14640D01*
G01X23460Y14605D01*
G01X23432Y14568D01*
G01X23406Y14531D01*
G01X23382Y14492D01*
G01X23360Y14452D01*
G01X23339Y14411D01*
G01X23320Y14370D01*
G01X23303Y14327D01*
G01X23288Y14284D01*
G01X23275Y14240D01*
G01X23263Y14196D01*
G01X23254Y14151D01*
G01X23247Y14106D01*
G01X23242Y14061D01*
G01X23239Y14015D01*
G01X23238Y13970D01*
G01X23239Y13924D01*
G01X23242Y13878D01*
G01X23247Y13833D01*
G01X23254Y13788D01*
G01X23263Y13743D01*
G01X23275Y13699D01*
G01X23288Y13655D01*
G01X23303Y13612D01*
G01X23320Y13569D01*
G01X23339Y13528D01*
G01X23360Y13487D01*
G01X23382Y13447D01*
G01X23406Y13408D01*
G01X23432Y13371D01*
G01X23460Y13334D01*
G01X23489Y13299D01*
G01X23520Y13266D01*
G01X23553Y13233D01*
G01X23586Y13202D01*
G01X23621Y13173D01*
G01X23658Y13145D01*
G01X23695Y13119D01*
G01X23734Y13095D01*
G01X23774Y13073D01*
G01X23815Y13052D01*
G01X23856Y13033D01*
G01X23899Y13016D01*
G01X23942Y13001D01*
G01X23986Y12988D01*
G01X24030Y12976D01*
G01X24075Y12967D01*
G01X24120Y12960D01*
G01X24165Y12955D01*
G01X24211Y12952D01*
G01X24257Y12951D01*
G01X24302Y12952D01*
G01X24348Y12955D01*
G01X24393Y12960D01*
G01X24438Y12967D01*
G01X24483Y12976D01*
G01X24527Y12988D01*
G01X24571Y13001D01*
G01X24614Y13016D01*
G01X24657Y13033D01*
G01X24698Y13052D01*
G01X24739Y13073D01*
G01X24779Y13095D01*
G01X24818Y13119D01*
G01X24855Y13145D01*
G01X24892Y13173D01*
G01X24927Y13202D01*
G01X24960Y13233D01*
G01X24993Y13266D01*
G01X25024Y13299D01*
G01X25053Y13334D01*
G01X25081Y13371D01*
G01X25107Y13408D01*
G01X25131Y13447D01*
G01X25153Y13487D01*
G01X25174Y13528D01*
G01X25193Y13569D01*
G01X25210Y13612D01*
G01X25225Y13655D01*
G01X25238Y13699D01*
G01X25250Y13743D01*
G01X25259Y13788D01*
G01X25266Y13833D01*
G01X25271Y13878D01*
G01X25274Y13924D01*
G01X25275Y13970D01*
G01X25274Y14015D01*
G01X25271Y14061D01*
G01X25266Y14106D01*
G01X25259Y14151D01*
G01X25250Y14196D01*
G01X25238Y14240D01*
G01X25225Y14284D01*
G01X25210Y14327D01*
G01X25193Y14370D01*
G01X25174Y14411D01*
G01X25153Y14452D01*
G01X25131Y14492D01*
G01X25107Y14531D01*
G01X25081Y14568D01*
G01X25053Y14605D01*
G01X25024Y14640D01*
G01X24993Y14673D01*
G01X24960Y14706D01*
G01X24927Y14737D01*
G01X24892Y14766D01*
G01X24855Y14794D01*
G01X24818Y14820D01*
G01X24779Y14844D01*
G01X24739Y14866D01*
G01X24698Y14887D01*
G01X24657Y14906D01*
G01X24614Y14923D01*
G01X24571Y14938D01*
G01X24527Y14951D01*
G01X24483Y14963D01*
G01X24438Y14972D01*
G01X24393Y14979D01*
G01X24348Y14984D01*
G01X24302Y14987D01*
G37*
G36*
G01X24302Y17527D02*
G01X24257Y17528D01*
G01X24211Y17527D01*
G01X24165Y17524D01*
G01X24120Y17519D01*
G01X24075Y17512D01*
G01X24030Y17503D01*
G01X23986Y17491D01*
G01X23942Y17478D01*
G01X23899Y17463D01*
G01X23856Y17446D01*
G01X23815Y17427D01*
G01X23774Y17406D01*
G01X23734Y17384D01*
G01X23695Y17360D01*
G01X23658Y17334D01*
G01X23621Y17306D01*
G01X23586Y17277D01*
G01X23553Y17246D01*
G01X23520Y17213D01*
G01X23489Y17180D01*
G01X23460Y17145D01*
G01X23432Y17108D01*
G01X23406Y17071D01*
G01X23382Y17032D01*
G01X23360Y16992D01*
G01X23339Y16951D01*
G01X23320Y16910D01*
G01X23303Y16867D01*
G01X23288Y16824D01*
G01X23275Y16780D01*
G01X23263Y16736D01*
G01X23254Y16691D01*
G01X23247Y16646D01*
G01X23242Y16601D01*
G01X23239Y16555D01*
G01X23238Y16510D01*
G01X23239Y16464D01*
G01X23242Y16418D01*
G01X23247Y16373D01*
G01X23254Y16328D01*
G01X23263Y16283D01*
G01X23275Y16239D01*
G01X23288Y16195D01*
G01X23303Y16152D01*
G01X23320Y16109D01*
G01X23339Y16068D01*
G01X23360Y16027D01*
G01X23382Y15987D01*
G01X23406Y15948D01*
G01X23432Y15911D01*
G01X23460Y15874D01*
G01X23489Y15839D01*
G01X23520Y15806D01*
G01X23553Y15773D01*
G01X23586Y15742D01*
G01X23621Y15713D01*
G01X23658Y15685D01*
G01X23695Y15659D01*
G01X23734Y15635D01*
G01X23774Y15613D01*
G01X23815Y15592D01*
G01X23856Y15573D01*
G01X23899Y15556D01*
G01X23942Y15541D01*
G01X23986Y15528D01*
G01X24030Y15516D01*
G01X24075Y15507D01*
G01X24120Y15500D01*
G01X24165Y15495D01*
G01X24211Y15492D01*
G01X24257Y15491D01*
G01X24302Y15492D01*
G01X24348Y15495D01*
G01X24393Y15500D01*
G01X24438Y15507D01*
G01X24483Y15516D01*
G01X24527Y15528D01*
G01X24571Y15541D01*
G01X24614Y15556D01*
G01X24657Y15573D01*
G01X24698Y15592D01*
G01X24739Y15613D01*
G01X24779Y15635D01*
G01X24818Y15659D01*
G01X24855Y15685D01*
G01X24892Y15713D01*
G01X24927Y15742D01*
G01X24960Y15773D01*
G01X24993Y15806D01*
G01X25024Y15839D01*
G01X25053Y15874D01*
G01X25081Y15911D01*
G01X25107Y15948D01*
G01X25131Y15987D01*
G01X25153Y16027D01*
G01X25174Y16068D01*
G01X25193Y16109D01*
G01X25210Y16152D01*
G01X25225Y16195D01*
G01X25238Y16239D01*
G01X25250Y16283D01*
G01X25259Y16328D01*
G01X25266Y16373D01*
G01X25271Y16418D01*
G01X25274Y16464D01*
G01X25275Y16510D01*
G01X25274Y16555D01*
G01X25271Y16601D01*
G01X25266Y16646D01*
G01X25259Y16691D01*
G01X25250Y16736D01*
G01X25238Y16780D01*
G01X25225Y16824D01*
G01X25210Y16867D01*
G01X25193Y16910D01*
G01X25174Y16951D01*
G01X25153Y16992D01*
G01X25131Y17032D01*
G01X25107Y17071D01*
G01X25081Y17108D01*
G01X25053Y17145D01*
G01X25024Y17180D01*
G01X24993Y17213D01*
G01X24960Y17246D01*
G01X24927Y17277D01*
G01X24892Y17306D01*
G01X24855Y17334D01*
G01X24818Y17360D01*
G01X24779Y17384D01*
G01X24739Y17406D01*
G01X24698Y17427D01*
G01X24657Y17446D01*
G01X24614Y17463D01*
G01X24571Y17478D01*
G01X24527Y17491D01*
G01X24483Y17503D01*
G01X24438Y17512D01*
G01X24393Y17519D01*
G01X24348Y17524D01*
G01X24302Y17527D01*
G37*
G36*
G01X1442Y17527D02*
G01X1397Y17528D01*
G01X1351Y17527D01*
G01X1305Y17524D01*
G01X1260Y17519D01*
G01X1215Y17512D01*
G01X1170Y17503D01*
G01X1126Y17491D01*
G01X1082Y17478D01*
G01X1039Y17463D01*
G01X996Y17446D01*
G01X955Y17427D01*
G01X914Y17406D01*
G01X874Y17384D01*
G01X835Y17360D01*
G01X798Y17334D01*
G01X761Y17306D01*
G01X726Y17277D01*
G01X693Y17246D01*
G01X660Y17213D01*
G01X629Y17180D01*
G01X600Y17145D01*
G01X572Y17108D01*
G01X546Y17071D01*
G01X522Y17032D01*
G01X500Y16992D01*
G01X479Y16951D01*
G01X460Y16910D01*
G01X443Y16867D01*
G01X428Y16824D01*
G01X415Y16780D01*
G01X403Y16736D01*
G01X394Y16691D01*
G01X387Y16646D01*
G01X382Y16601D01*
G01X379Y16555D01*
G01X378Y16510D01*
G01X379Y16464D01*
G01X382Y16418D01*
G01X387Y16373D01*
G01X394Y16328D01*
G01X403Y16283D01*
G01X415Y16239D01*
G01X428Y16195D01*
G01X443Y16152D01*
G01X460Y16109D01*
G01X479Y16068D01*
G01X500Y16027D01*
G01X522Y15987D01*
G01X546Y15948D01*
G01X572Y15911D01*
G01X600Y15874D01*
G01X629Y15839D01*
G01X660Y15806D01*
G01X693Y15773D01*
G01X726Y15742D01*
G01X761Y15713D01*
G01X798Y15685D01*
G01X835Y15659D01*
G01X874Y15635D01*
G01X914Y15613D01*
G01X955Y15592D01*
G01X996Y15573D01*
G01X1039Y15556D01*
G01X1082Y15541D01*
G01X1126Y15528D01*
G01X1170Y15516D01*
G01X1215Y15507D01*
G01X1260Y15500D01*
G01X1305Y15495D01*
G01X1351Y15492D01*
G01X1397Y15491D01*
G01X1442Y15492D01*
G01X1488Y15495D01*
G01X1533Y15500D01*
G01X1578Y15507D01*
G01X1623Y15516D01*
G01X1667Y15528D01*
G01X1711Y15541D01*
G01X1754Y15556D01*
G01X1797Y15573D01*
G01X1838Y15592D01*
G01X1879Y15613D01*
G01X1919Y15635D01*
G01X1958Y15659D01*
G01X1995Y15685D01*
G01X2032Y15713D01*
G01X2067Y15742D01*
G01X2100Y15773D01*
G01X2133Y15806D01*
G01X2164Y15839D01*
G01X2193Y15874D01*
G01X2221Y15911D01*
G01X2247Y15948D01*
G01X2271Y15987D01*
G01X2293Y16027D01*
G01X2314Y16068D01*
G01X2333Y16109D01*
G01X2350Y16152D01*
G01X2365Y16195D01*
G01X2378Y16239D01*
G01X2390Y16283D01*
G01X2399Y16328D01*
G01X2406Y16373D01*
G01X2411Y16418D01*
G01X2414Y16464D01*
G01X2415Y16510D01*
G01X2414Y16555D01*
G01X2411Y16601D01*
G01X2406Y16646D01*
G01X2399Y16691D01*
G01X2390Y16736D01*
G01X2378Y16780D01*
G01X2365Y16824D01*
G01X2350Y16867D01*
G01X2333Y16910D01*
G01X2314Y16951D01*
G01X2293Y16992D01*
G01X2271Y17032D01*
G01X2247Y17071D01*
G01X2221Y17108D01*
G01X2193Y17145D01*
G01X2164Y17180D01*
G01X2133Y17213D01*
G01X2100Y17246D01*
G01X2067Y17277D01*
G01X2032Y17306D01*
G01X1995Y17334D01*
G01X1958Y17360D01*
G01X1919Y17384D01*
G01X1879Y17406D01*
G01X1838Y17427D01*
G01X1797Y17446D01*
G01X1754Y17463D01*
G01X1711Y17478D01*
G01X1667Y17491D01*
G01X1623Y17503D01*
G01X1578Y17512D01*
G01X1533Y17519D01*
G01X1488Y17524D01*
G01X1442Y17527D01*
G37*
G36*
G01X1442Y20067D02*
G01X1397Y20068D01*
G01X1351Y20067D01*
G01X1305Y20064D01*
G01X1260Y20059D01*
G01X1215Y20052D01*
G01X1170Y20043D01*
G01X1126Y20031D01*
G01X1082Y20018D01*
G01X1039Y20003D01*
G01X996Y19986D01*
G01X955Y19967D01*
G01X914Y19946D01*
G01X874Y19924D01*
G01X835Y19900D01*
G01X798Y19874D01*
G01X761Y19846D01*
G01X726Y19817D01*
G01X693Y19786D01*
G01X660Y19753D01*
G01X629Y19720D01*
G01X600Y19685D01*
G01X572Y19648D01*
G01X546Y19611D01*
G01X522Y19572D01*
G01X500Y19532D01*
G01X479Y19491D01*
G01X460Y19450D01*
G01X443Y19407D01*
G01X428Y19364D01*
G01X415Y19320D01*
G01X403Y19276D01*
G01X394Y19231D01*
G01X387Y19186D01*
G01X382Y19141D01*
G01X379Y19095D01*
G01X378Y19050D01*
G01X379Y19004D01*
G01X382Y18958D01*
G01X387Y18913D01*
G01X394Y18868D01*
G01X403Y18823D01*
G01X415Y18779D01*
G01X428Y18735D01*
G01X443Y18692D01*
G01X460Y18649D01*
G01X479Y18608D01*
G01X500Y18567D01*
G01X522Y18527D01*
G01X546Y18488D01*
G01X572Y18451D01*
G01X600Y18414D01*
G01X629Y18379D01*
G01X660Y18346D01*
G01X693Y18313D01*
G01X726Y18282D01*
G01X761Y18253D01*
G01X798Y18225D01*
G01X835Y18199D01*
G01X874Y18175D01*
G01X914Y18153D01*
G01X955Y18132D01*
G01X996Y18113D01*
G01X1039Y18096D01*
G01X1082Y18081D01*
G01X1126Y18068D01*
G01X1170Y18056D01*
G01X1215Y18047D01*
G01X1260Y18040D01*
G01X1305Y18035D01*
G01X1351Y18032D01*
G01X1397Y18031D01*
G01X1442Y18032D01*
G01X1488Y18035D01*
G01X1533Y18040D01*
G01X1578Y18047D01*
G01X1623Y18056D01*
G01X1667Y18068D01*
G01X1711Y18081D01*
G01X1754Y18096D01*
G01X1797Y18113D01*
G01X1838Y18132D01*
G01X1879Y18153D01*
G01X1919Y18175D01*
G01X1958Y18199D01*
G01X1995Y18225D01*
G01X2032Y18253D01*
G01X2067Y18282D01*
G01X2100Y18313D01*
G01X2133Y18346D01*
G01X2164Y18379D01*
G01X2193Y18414D01*
G01X2221Y18451D01*
G01X2247Y18488D01*
G01X2271Y18527D01*
G01X2293Y18567D01*
G01X2314Y18608D01*
G01X2333Y18649D01*
G01X2350Y18692D01*
G01X2365Y18735D01*
G01X2378Y18779D01*
G01X2390Y18823D01*
G01X2399Y18868D01*
G01X2406Y18913D01*
G01X2411Y18958D01*
G01X2414Y19004D01*
G01X2415Y19050D01*
G01X2414Y19095D01*
G01X2411Y19141D01*
G01X2406Y19186D01*
G01X2399Y19231D01*
G01X2390Y19276D01*
G01X2378Y19320D01*
G01X2365Y19364D01*
G01X2350Y19407D01*
G01X2333Y19450D01*
G01X2314Y19491D01*
G01X2293Y19532D01*
G01X2271Y19572D01*
G01X2247Y19611D01*
G01X2221Y19648D01*
G01X2193Y19685D01*
G01X2164Y19720D01*
G01X2133Y19753D01*
G01X2100Y19786D01*
G01X2067Y19817D01*
G01X2032Y19846D01*
G01X1995Y19874D01*
G01X1958Y19900D01*
G01X1919Y19924D01*
G01X1879Y19946D01*
G01X1838Y19967D01*
G01X1797Y19986D01*
G01X1754Y20003D01*
G01X1711Y20018D01*
G01X1667Y20031D01*
G01X1623Y20043D01*
G01X1578Y20052D01*
G01X1533Y20059D01*
G01X1488Y20064D01*
G01X1442Y20067D01*
G37*
G36*
G01X1442Y22607D02*
G01X1397Y22608D01*
G01X1351Y22607D01*
G01X1305Y22604D01*
G01X1260Y22599D01*
G01X1215Y22592D01*
G01X1170Y22583D01*
G01X1126Y22571D01*
G01X1082Y22558D01*
G01X1039Y22543D01*
G01X996Y22526D01*
G01X955Y22507D01*
G01X914Y22486D01*
G01X874Y22464D01*
G01X835Y22440D01*
G01X798Y22414D01*
G01X761Y22386D01*
G01X726Y22357D01*
G01X693Y22326D01*
G01X660Y22293D01*
G01X629Y22260D01*
G01X600Y22225D01*
G01X572Y22188D01*
G01X546Y22151D01*
G01X522Y22112D01*
G01X500Y22072D01*
G01X479Y22031D01*
G01X460Y21990D01*
G01X443Y21947D01*
G01X428Y21904D01*
G01X415Y21860D01*
G01X403Y21816D01*
G01X394Y21771D01*
G01X387Y21726D01*
G01X382Y21681D01*
G01X379Y21635D01*
G01X378Y21590D01*
G01X379Y21544D01*
G01X382Y21498D01*
G01X387Y21453D01*
G01X394Y21408D01*
G01X403Y21363D01*
G01X415Y21319D01*
G01X428Y21275D01*
G01X443Y21232D01*
G01X460Y21189D01*
G01X479Y21148D01*
G01X500Y21107D01*
G01X522Y21067D01*
G01X546Y21028D01*
G01X572Y20991D01*
G01X600Y20954D01*
G01X629Y20919D01*
G01X660Y20886D01*
G01X693Y20853D01*
G01X726Y20822D01*
G01X761Y20793D01*
G01X798Y20765D01*
G01X835Y20739D01*
G01X874Y20715D01*
G01X914Y20693D01*
G01X955Y20672D01*
G01X996Y20653D01*
G01X1039Y20636D01*
G01X1082Y20621D01*
G01X1126Y20608D01*
G01X1170Y20596D01*
G01X1215Y20587D01*
G01X1260Y20580D01*
G01X1305Y20575D01*
G01X1351Y20572D01*
G01X1397Y20571D01*
G01X1442Y20572D01*
G01X1488Y20575D01*
G01X1533Y20580D01*
G01X1578Y20587D01*
G01X1623Y20596D01*
G01X1667Y20608D01*
G01X1711Y20621D01*
G01X1754Y20636D01*
G01X1797Y20653D01*
G01X1838Y20672D01*
G01X1879Y20693D01*
G01X1919Y20715D01*
G01X1958Y20739D01*
G01X1995Y20765D01*
G01X2032Y20793D01*
G01X2067Y20822D01*
G01X2100Y20853D01*
G01X2133Y20886D01*
G01X2164Y20919D01*
G01X2193Y20954D01*
G01X2221Y20991D01*
G01X2247Y21028D01*
G01X2271Y21067D01*
G01X2293Y21107D01*
G01X2314Y21148D01*
G01X2333Y21189D01*
G01X2350Y21232D01*
G01X2365Y21275D01*
G01X2378Y21319D01*
G01X2390Y21363D01*
G01X2399Y21408D01*
G01X2406Y21453D01*
G01X2411Y21498D01*
G01X2414Y21544D01*
G01X2415Y21590D01*
G01X2414Y21635D01*
G01X2411Y21681D01*
G01X2406Y21726D01*
G01X2399Y21771D01*
G01X2390Y21816D01*
G01X2378Y21860D01*
G01X2365Y21904D01*
G01X2350Y21947D01*
G01X2333Y21990D01*
G01X2314Y22031D01*
G01X2293Y22072D01*
G01X2271Y22112D01*
G01X2247Y22151D01*
G01X2221Y22188D01*
G01X2193Y22225D01*
G01X2164Y22260D01*
G01X2133Y22293D01*
G01X2100Y22326D01*
G01X2067Y22357D01*
G01X2032Y22386D01*
G01X1995Y22414D01*
G01X1958Y22440D01*
G01X1919Y22464D01*
G01X1879Y22486D01*
G01X1838Y22507D01*
G01X1797Y22526D01*
G01X1754Y22543D01*
G01X1711Y22558D01*
G01X1667Y22571D01*
G01X1623Y22583D01*
G01X1578Y22592D01*
G01X1533Y22599D01*
G01X1488Y22604D01*
G01X1442Y22607D01*
G37*
G36*
G01X24302Y12447D02*
G01X24257Y12448D01*
G01X24211Y12447D01*
G01X24165Y12444D01*
G01X24120Y12439D01*
G01X24075Y12432D01*
G01X24030Y12423D01*
G01X23986Y12411D01*
G01X23942Y12398D01*
G01X23899Y12383D01*
G01X23856Y12366D01*
G01X23815Y12347D01*
G01X23774Y12326D01*
G01X23734Y12304D01*
G01X23695Y12280D01*
G01X23658Y12254D01*
G01X23621Y12226D01*
G01X23586Y12197D01*
G01X23553Y12166D01*
G01X23520Y12133D01*
G01X23489Y12100D01*
G01X23460Y12065D01*
G01X23432Y12028D01*
G01X23406Y11991D01*
G01X23382Y11952D01*
G01X23360Y11912D01*
G01X23339Y11871D01*
G01X23320Y11830D01*
G01X23303Y11787D01*
G01X23288Y11744D01*
G01X23275Y11700D01*
G01X23263Y11656D01*
G01X23254Y11611D01*
G01X23247Y11566D01*
G01X23242Y11521D01*
G01X23239Y11475D01*
G01X23238Y11430D01*
G01X23239Y11384D01*
G01X23242Y11338D01*
G01X23247Y11293D01*
G01X23254Y11248D01*
G01X23263Y11203D01*
G01X23275Y11159D01*
G01X23288Y11115D01*
G01X23303Y11072D01*
G01X23320Y11029D01*
G01X23339Y10988D01*
G01X23360Y10947D01*
G01X23382Y10907D01*
G01X23406Y10868D01*
G01X23432Y10831D01*
G01X23460Y10794D01*
G01X23489Y10759D01*
G01X23520Y10726D01*
G01X23553Y10693D01*
G01X23586Y10662D01*
G01X23621Y10633D01*
G01X23658Y10605D01*
G01X23695Y10579D01*
G01X23734Y10555D01*
G01X23774Y10533D01*
G01X23815Y10512D01*
G01X23856Y10493D01*
G01X23899Y10476D01*
G01X23942Y10461D01*
G01X23986Y10448D01*
G01X24030Y10436D01*
G01X24075Y10427D01*
G01X24120Y10420D01*
G01X24165Y10415D01*
G01X24211Y10412D01*
G01X24257Y10411D01*
G01X24302Y10412D01*
G01X24348Y10415D01*
G01X24393Y10420D01*
G01X24438Y10427D01*
G01X24483Y10436D01*
G01X24527Y10448D01*
G01X24571Y10461D01*
G01X24614Y10476D01*
G01X24657Y10493D01*
G01X24698Y10512D01*
G01X24739Y10533D01*
G01X24779Y10555D01*
G01X24818Y10579D01*
G01X24855Y10605D01*
G01X24892Y10633D01*
G01X24927Y10662D01*
G01X24960Y10693D01*
G01X24993Y10726D01*
G01X25024Y10759D01*
G01X25053Y10794D01*
G01X25081Y10831D01*
G01X25107Y10868D01*
G01X25131Y10907D01*
G01X25153Y10947D01*
G01X25174Y10988D01*
G01X25193Y11029D01*
G01X25210Y11072D01*
G01X25225Y11115D01*
G01X25238Y11159D01*
G01X25250Y11203D01*
G01X25259Y11248D01*
G01X25266Y11293D01*
G01X25271Y11338D01*
G01X25274Y11384D01*
G01X25275Y11430D01*
G01X25274Y11475D01*
G01X25271Y11521D01*
G01X25266Y11566D01*
G01X25259Y11611D01*
G01X25250Y11656D01*
G01X25238Y11700D01*
G01X25225Y11744D01*
G01X25210Y11787D01*
G01X25193Y11830D01*
G01X25174Y11871D01*
G01X25153Y11912D01*
G01X25131Y11952D01*
G01X25107Y11991D01*
G01X25081Y12028D01*
G01X25053Y12065D01*
G01X25024Y12100D01*
G01X24993Y12133D01*
G01X24960Y12166D01*
G01X24927Y12197D01*
G01X24892Y12226D01*
G01X24855Y12254D01*
G01X24818Y12280D01*
G01X24779Y12304D01*
G01X24739Y12326D01*
G01X24698Y12347D01*
G01X24657Y12366D01*
G01X24614Y12383D01*
G01X24571Y12398D01*
G01X24527Y12411D01*
G01X24483Y12423D01*
G01X24438Y12432D01*
G01X24393Y12439D01*
G01X24348Y12444D01*
G01X24302Y12447D01*
G37*
G36*
G01X24302Y9907D02*
G01X24257Y9908D01*
G01X24211Y9907D01*
G01X24165Y9904D01*
G01X24120Y9899D01*
G01X24075Y9892D01*
G01X24030Y9883D01*
G01X23986Y9871D01*
G01X23942Y9858D01*
G01X23899Y9843D01*
G01X23856Y9826D01*
G01X23815Y9807D01*
G01X23774Y9786D01*
G01X23734Y9764D01*
G01X23695Y9740D01*
G01X23658Y9714D01*
G01X23621Y9686D01*
G01X23586Y9657D01*
G01X23553Y9626D01*
G01X23520Y9593D01*
G01X23489Y9560D01*
G01X23460Y9525D01*
G01X23432Y9488D01*
G01X23406Y9451D01*
G01X23382Y9412D01*
G01X23360Y9372D01*
G01X23339Y9331D01*
G01X23320Y9290D01*
G01X23303Y9247D01*
G01X23288Y9204D01*
G01X23275Y9160D01*
G01X23263Y9116D01*
G01X23254Y9071D01*
G01X23247Y9026D01*
G01X23242Y8981D01*
G01X23239Y8935D01*
G01X23238Y8890D01*
G01X23239Y8844D01*
G01X23242Y8798D01*
G01X23247Y8753D01*
G01X23254Y8708D01*
G01X23263Y8663D01*
G01X23275Y8619D01*
G01X23288Y8575D01*
G01X23303Y8532D01*
G01X23320Y8489D01*
G01X23339Y8448D01*
G01X23360Y8407D01*
G01X23382Y8367D01*
G01X23406Y8328D01*
G01X23432Y8291D01*
G01X23460Y8254D01*
G01X23489Y8219D01*
G01X23520Y8186D01*
G01X23553Y8153D01*
G01X23586Y8122D01*
G01X23621Y8093D01*
G01X23658Y8065D01*
G01X23695Y8039D01*
G01X23734Y8015D01*
G01X23774Y7993D01*
G01X23815Y7972D01*
G01X23856Y7953D01*
G01X23899Y7936D01*
G01X23942Y7921D01*
G01X23986Y7908D01*
G01X24030Y7896D01*
G01X24075Y7887D01*
G01X24120Y7880D01*
G01X24165Y7875D01*
G01X24211Y7872D01*
G01X24257Y7871D01*
G01X24302Y7872D01*
G01X24348Y7875D01*
G01X24393Y7880D01*
G01X24438Y7887D01*
G01X24483Y7896D01*
G01X24527Y7908D01*
G01X24571Y7921D01*
G01X24614Y7936D01*
G01X24657Y7953D01*
G01X24698Y7972D01*
G01X24739Y7993D01*
G01X24779Y8015D01*
G01X24818Y8039D01*
G01X24855Y8065D01*
G01X24892Y8093D01*
G01X24927Y8122D01*
G01X24960Y8153D01*
G01X24993Y8186D01*
G01X25024Y8219D01*
G01X25053Y8254D01*
G01X25081Y8291D01*
G01X25107Y8328D01*
G01X25131Y8367D01*
G01X25153Y8407D01*
G01X25174Y8448D01*
G01X25193Y8489D01*
G01X25210Y8532D01*
G01X25225Y8575D01*
G01X25238Y8619D01*
G01X25250Y8663D01*
G01X25259Y8708D01*
G01X25266Y8753D01*
G01X25271Y8798D01*
G01X25274Y8844D01*
G01X25275Y8890D01*
G01X25274Y8935D01*
G01X25271Y8981D01*
G01X25266Y9026D01*
G01X25259Y9071D01*
G01X25250Y9116D01*
G01X25238Y9160D01*
G01X25225Y9204D01*
G01X25210Y9247D01*
G01X25193Y9290D01*
G01X25174Y9331D01*
G01X25153Y9372D01*
G01X25131Y9412D01*
G01X25107Y9451D01*
G01X25081Y9488D01*
G01X25053Y9525D01*
G01X25024Y9560D01*
G01X24993Y9593D01*
G01X24960Y9626D01*
G01X24927Y9657D01*
G01X24892Y9686D01*
G01X24855Y9714D01*
G01X24818Y9740D01*
G01X24779Y9764D01*
G01X24739Y9786D01*
G01X24698Y9807D01*
G01X24657Y9826D01*
G01X24614Y9843D01*
G01X24571Y9858D01*
G01X24527Y9871D01*
G01X24483Y9883D01*
G01X24438Y9892D01*
G01X24393Y9899D01*
G01X24348Y9904D01*
G01X24302Y9907D01*
G37*
G36*
G01X24302Y7367D02*
G01X24257Y7368D01*
G01X24211Y7367D01*
G01X24165Y7364D01*
G01X24120Y7359D01*
G01X24075Y7352D01*
G01X24030Y7343D01*
G01X23986Y7331D01*
G01X23942Y7318D01*
G01X23899Y7303D01*
G01X23856Y7286D01*
G01X23815Y7267D01*
G01X23774Y7246D01*
G01X23734Y7224D01*
G01X23695Y7200D01*
G01X23658Y7174D01*
G01X23621Y7146D01*
G01X23586Y7117D01*
G01X23553Y7086D01*
G01X23520Y7053D01*
G01X23489Y7020D01*
G01X23460Y6985D01*
G01X23432Y6948D01*
G01X23406Y6911D01*
G01X23382Y6872D01*
G01X23360Y6832D01*
G01X23339Y6791D01*
G01X23320Y6750D01*
G01X23303Y6707D01*
G01X23288Y6664D01*
G01X23275Y6620D01*
G01X23263Y6576D01*
G01X23254Y6531D01*
G01X23247Y6486D01*
G01X23242Y6441D01*
G01X23239Y6395D01*
G01X23238Y6350D01*
G01X23239Y6304D01*
G01X23242Y6258D01*
G01X23247Y6213D01*
G01X23254Y6168D01*
G01X23263Y6123D01*
G01X23275Y6079D01*
G01X23288Y6035D01*
G01X23303Y5992D01*
G01X23320Y5949D01*
G01X23339Y5908D01*
G01X23360Y5867D01*
G01X23382Y5827D01*
G01X23406Y5788D01*
G01X23432Y5751D01*
G01X23460Y5714D01*
G01X23489Y5679D01*
G01X23520Y5646D01*
G01X23553Y5613D01*
G01X23586Y5582D01*
G01X23621Y5553D01*
G01X23658Y5525D01*
G01X23695Y5499D01*
G01X23734Y5475D01*
G01X23774Y5453D01*
G01X23815Y5432D01*
G01X23856Y5413D01*
G01X23899Y5396D01*
G01X23942Y5381D01*
G01X23986Y5368D01*
G01X24030Y5356D01*
G01X24075Y5347D01*
G01X24120Y5340D01*
G01X24165Y5335D01*
G01X24211Y5332D01*
G01X24257Y5331D01*
G01X24302Y5332D01*
G01X24348Y5335D01*
G01X24393Y5340D01*
G01X24438Y5347D01*
G01X24483Y5356D01*
G01X24527Y5368D01*
G01X24571Y5381D01*
G01X24614Y5396D01*
G01X24657Y5413D01*
G01X24698Y5432D01*
G01X24739Y5453D01*
G01X24779Y5475D01*
G01X24818Y5499D01*
G01X24855Y5525D01*
G01X24892Y5553D01*
G01X24927Y5582D01*
G01X24960Y5613D01*
G01X24993Y5646D01*
G01X25024Y5679D01*
G01X25053Y5714D01*
G01X25081Y5751D01*
G01X25107Y5788D01*
G01X25131Y5827D01*
G01X25153Y5867D01*
G01X25174Y5908D01*
G01X25193Y5949D01*
G01X25210Y5992D01*
G01X25225Y6035D01*
G01X25238Y6079D01*
G01X25250Y6123D01*
G01X25259Y6168D01*
G01X25266Y6213D01*
G01X25271Y6258D01*
G01X25274Y6304D01*
G01X25275Y6350D01*
G01X25274Y6395D01*
G01X25271Y6441D01*
G01X25266Y6486D01*
G01X25259Y6531D01*
G01X25250Y6576D01*
G01X25238Y6620D01*
G01X25225Y6664D01*
G01X25210Y6707D01*
G01X25193Y6750D01*
G01X25174Y6791D01*
G01X25153Y6832D01*
G01X25131Y6872D01*
G01X25107Y6911D01*
G01X25081Y6948D01*
G01X25053Y6985D01*
G01X25024Y7020D01*
G01X24993Y7053D01*
G01X24960Y7086D01*
G01X24927Y7117D01*
G01X24892Y7146D01*
G01X24855Y7174D01*
G01X24818Y7200D01*
G01X24779Y7224D01*
G01X24739Y7246D01*
G01X24698Y7267D01*
G01X24657Y7286D01*
G01X24614Y7303D01*
G01X24571Y7318D01*
G01X24527Y7331D01*
G01X24483Y7343D01*
G01X24438Y7352D01*
G01X24393Y7359D01*
G01X24348Y7364D01*
G01X24302Y7367D01*
G37*
G36*
G01X24302Y35307D02*
G01X24257Y35308D01*
G01X24211Y35307D01*
G01X24165Y35304D01*
G01X24120Y35299D01*
G01X24075Y35292D01*
G01X24030Y35283D01*
G01X23986Y35271D01*
G01X23942Y35258D01*
G01X23899Y35243D01*
G01X23856Y35226D01*
G01X23815Y35207D01*
G01X23774Y35186D01*
G01X23734Y35164D01*
G01X23695Y35140D01*
G01X23658Y35114D01*
G01X23621Y35086D01*
G01X23586Y35057D01*
G01X23553Y35026D01*
G01X23520Y34993D01*
G01X23489Y34960D01*
G01X23460Y34925D01*
G01X23432Y34888D01*
G01X23406Y34851D01*
G01X23382Y34812D01*
G01X23360Y34772D01*
G01X23339Y34731D01*
G01X23320Y34690D01*
G01X23303Y34647D01*
G01X23288Y34604D01*
G01X23275Y34560D01*
G01X23263Y34516D01*
G01X23254Y34471D01*
G01X23247Y34426D01*
G01X23242Y34381D01*
G01X23239Y34335D01*
G01X23238Y34290D01*
G01X23239Y34244D01*
G01X23242Y34198D01*
G01X23247Y34153D01*
G01X23254Y34108D01*
G01X23263Y34063D01*
G01X23275Y34019D01*
G01X23288Y33975D01*
G01X23303Y33932D01*
G01X23320Y33889D01*
G01X23339Y33848D01*
G01X23360Y33807D01*
G01X23382Y33767D01*
G01X23406Y33728D01*
G01X23432Y33691D01*
G01X23460Y33654D01*
G01X23489Y33619D01*
G01X23520Y33586D01*
G01X23553Y33553D01*
G01X23586Y33522D01*
G01X23621Y33493D01*
G01X23658Y33465D01*
G01X23695Y33439D01*
G01X23734Y33415D01*
G01X23774Y33393D01*
G01X23815Y33372D01*
G01X23856Y33353D01*
G01X23899Y33336D01*
G01X23942Y33321D01*
G01X23986Y33308D01*
G01X24030Y33296D01*
G01X24075Y33287D01*
G01X24120Y33280D01*
G01X24165Y33275D01*
G01X24211Y33272D01*
G01X24257Y33271D01*
G01X24302Y33272D01*
G01X24348Y33275D01*
G01X24393Y33280D01*
G01X24438Y33287D01*
G01X24483Y33296D01*
G01X24527Y33308D01*
G01X24571Y33321D01*
G01X24614Y33336D01*
G01X24657Y33353D01*
G01X24698Y33372D01*
G01X24739Y33393D01*
G01X24779Y33415D01*
G01X24818Y33439D01*
G01X24855Y33465D01*
G01X24892Y33493D01*
G01X24927Y33522D01*
G01X24960Y33553D01*
G01X24993Y33586D01*
G01X25024Y33619D01*
G01X25053Y33654D01*
G01X25081Y33691D01*
G01X25107Y33728D01*
G01X25131Y33767D01*
G01X25153Y33807D01*
G01X25174Y33848D01*
G01X25193Y33889D01*
G01X25210Y33932D01*
G01X25225Y33975D01*
G01X25238Y34019D01*
G01X25250Y34063D01*
G01X25259Y34108D01*
G01X25266Y34153D01*
G01X25271Y34198D01*
G01X25274Y34244D01*
G01X25275Y34290D01*
G01X25274Y34335D01*
G01X25271Y34381D01*
G01X25266Y34426D01*
G01X25259Y34471D01*
G01X25250Y34516D01*
G01X25238Y34560D01*
G01X25225Y34604D01*
G01X25210Y34647D01*
G01X25193Y34690D01*
G01X25174Y34731D01*
G01X25153Y34772D01*
G01X25131Y34812D01*
G01X25107Y34851D01*
G01X25081Y34888D01*
G01X25053Y34925D01*
G01X25024Y34960D01*
G01X24993Y34993D01*
G01X24960Y35026D01*
G01X24927Y35057D01*
G01X24892Y35086D01*
G01X24855Y35114D01*
G01X24818Y35140D01*
G01X24779Y35164D01*
G01X24739Y35186D01*
G01X24698Y35207D01*
G01X24657Y35226D01*
G01X24614Y35243D01*
G01X24571Y35258D01*
G01X24527Y35271D01*
G01X24483Y35283D01*
G01X24438Y35292D01*
G01X24393Y35299D01*
G01X24348Y35304D01*
G01X24302Y35307D01*
G37*
G36*
G01X24302Y37847D02*
G01X24257Y37848D01*
G01X24211Y37847D01*
G01X24165Y37844D01*
G01X24120Y37839D01*
G01X24075Y37832D01*
G01X24030Y37823D01*
G01X23986Y37811D01*
G01X23942Y37798D01*
G01X23899Y37783D01*
G01X23856Y37766D01*
G01X23815Y37747D01*
G01X23774Y37726D01*
G01X23734Y37704D01*
G01X23695Y37680D01*
G01X23658Y37654D01*
G01X23621Y37626D01*
G01X23586Y37597D01*
G01X23553Y37566D01*
G01X23520Y37533D01*
G01X23489Y37500D01*
G01X23460Y37465D01*
G01X23432Y37428D01*
G01X23406Y37391D01*
G01X23382Y37352D01*
G01X23360Y37312D01*
G01X23339Y37271D01*
G01X23320Y37230D01*
G01X23303Y37187D01*
G01X23288Y37144D01*
G01X23275Y37100D01*
G01X23263Y37056D01*
G01X23254Y37011D01*
G01X23247Y36966D01*
G01X23242Y36921D01*
G01X23239Y36875D01*
G01X23238Y36830D01*
G01X23239Y36784D01*
G01X23242Y36738D01*
G01X23247Y36693D01*
G01X23254Y36648D01*
G01X23263Y36603D01*
G01X23275Y36559D01*
G01X23288Y36515D01*
G01X23303Y36472D01*
G01X23320Y36429D01*
G01X23339Y36388D01*
G01X23360Y36347D01*
G01X23382Y36307D01*
G01X23406Y36268D01*
G01X23432Y36231D01*
G01X23460Y36194D01*
G01X23489Y36159D01*
G01X23520Y36126D01*
G01X23553Y36093D01*
G01X23586Y36062D01*
G01X23621Y36033D01*
G01X23658Y36005D01*
G01X23695Y35979D01*
G01X23734Y35955D01*
G01X23774Y35933D01*
G01X23815Y35912D01*
G01X23856Y35893D01*
G01X23899Y35876D01*
G01X23942Y35861D01*
G01X23986Y35848D01*
G01X24030Y35836D01*
G01X24075Y35827D01*
G01X24120Y35820D01*
G01X24165Y35815D01*
G01X24211Y35812D01*
G01X24257Y35811D01*
G01X24302Y35812D01*
G01X24348Y35815D01*
G01X24393Y35820D01*
G01X24438Y35827D01*
G01X24483Y35836D01*
G01X24527Y35848D01*
G01X24571Y35861D01*
G01X24614Y35876D01*
G01X24657Y35893D01*
G01X24698Y35912D01*
G01X24739Y35933D01*
G01X24779Y35955D01*
G01X24818Y35979D01*
G01X24855Y36005D01*
G01X24892Y36033D01*
G01X24927Y36062D01*
G01X24960Y36093D01*
G01X24993Y36126D01*
G01X25024Y36159D01*
G01X25053Y36194D01*
G01X25081Y36231D01*
G01X25107Y36268D01*
G01X25131Y36307D01*
G01X25153Y36347D01*
G01X25174Y36388D01*
G01X25193Y36429D01*
G01X25210Y36472D01*
G01X25225Y36515D01*
G01X25238Y36559D01*
G01X25250Y36603D01*
G01X25259Y36648D01*
G01X25266Y36693D01*
G01X25271Y36738D01*
G01X25274Y36784D01*
G01X25275Y36830D01*
G01X25274Y36875D01*
G01X25271Y36921D01*
G01X25266Y36966D01*
G01X25259Y37011D01*
G01X25250Y37056D01*
G01X25238Y37100D01*
G01X25225Y37144D01*
G01X25210Y37187D01*
G01X25193Y37230D01*
G01X25174Y37271D01*
G01X25153Y37312D01*
G01X25131Y37352D01*
G01X25107Y37391D01*
G01X25081Y37428D01*
G01X25053Y37465D01*
G01X25024Y37500D01*
G01X24993Y37533D01*
G01X24960Y37566D01*
G01X24927Y37597D01*
G01X24892Y37626D01*
G01X24855Y37654D01*
G01X24818Y37680D01*
G01X24779Y37704D01*
G01X24739Y37726D01*
G01X24698Y37747D01*
G01X24657Y37766D01*
G01X24614Y37783D01*
G01X24571Y37798D01*
G01X24527Y37811D01*
G01X24483Y37823D01*
G01X24438Y37832D01*
G01X24393Y37839D01*
G01X24348Y37844D01*
G01X24302Y37847D01*
G37*
G36*
G01X9062Y42165D02*
G01X9017Y42166D01*
G01X8971Y42165D01*
G01X8925Y42162D01*
G01X8880Y42157D01*
G01X8835Y42150D01*
G01X8790Y42141D01*
G01X8746Y42129D01*
G01X8702Y42116D01*
G01X8659Y42101D01*
G01X8616Y42084D01*
G01X8575Y42065D01*
G01X8534Y42044D01*
G01X8494Y42022D01*
G01X8455Y41998D01*
G01X8418Y41972D01*
G01X8381Y41944D01*
G01X8346Y41915D01*
G01X8313Y41884D01*
G01X8280Y41851D01*
G01X8249Y41818D01*
G01X8220Y41783D01*
G01X8192Y41746D01*
G01X8166Y41709D01*
G01X8142Y41670D01*
G01X8120Y41630D01*
G01X8099Y41589D01*
G01X8080Y41548D01*
G01X8063Y41505D01*
G01X8048Y41462D01*
G01X8035Y41418D01*
G01X8023Y41374D01*
G01X8014Y41329D01*
G01X8007Y41284D01*
G01X8002Y41239D01*
G01X7999Y41193D01*
G01X7998Y41148D01*
G01X7999Y41102D01*
G01X8002Y41056D01*
G01X8007Y41011D01*
G01X8014Y40966D01*
G01X8023Y40921D01*
G01X8035Y40877D01*
G01X8048Y40833D01*
G01X8063Y40790D01*
G01X8080Y40747D01*
G01X8099Y40706D01*
G01X8120Y40665D01*
G01X8142Y40625D01*
G01X8166Y40586D01*
G01X8192Y40549D01*
G01X8220Y40512D01*
G01X8249Y40477D01*
G01X8280Y40444D01*
G01X8313Y40411D01*
G01X8346Y40380D01*
G01X8381Y40351D01*
G01X8418Y40323D01*
G01X8455Y40297D01*
G01X8494Y40273D01*
G01X8534Y40251D01*
G01X8575Y40230D01*
G01X8616Y40211D01*
G01X8659Y40194D01*
G01X8702Y40179D01*
G01X8746Y40166D01*
G01X8790Y40154D01*
G01X8835Y40145D01*
G01X8880Y40138D01*
G01X8925Y40133D01*
G01X8971Y40130D01*
G01X9017Y40129D01*
G01X9062Y40130D01*
G01X9108Y40133D01*
G01X9153Y40138D01*
G01X9198Y40145D01*
G01X9243Y40154D01*
G01X9287Y40166D01*
G01X9331Y40179D01*
G01X9374Y40194D01*
G01X9417Y40211D01*
G01X9458Y40230D01*
G01X9499Y40251D01*
G01X9539Y40273D01*
G01X9578Y40297D01*
G01X9615Y40323D01*
G01X9652Y40351D01*
G01X9687Y40380D01*
G01X9720Y40411D01*
G01X9753Y40444D01*
G01X9784Y40477D01*
G01X9813Y40512D01*
G01X9841Y40549D01*
G01X9867Y40586D01*
G01X9891Y40625D01*
G01X9913Y40665D01*
G01X9934Y40706D01*
G01X9953Y40747D01*
G01X9970Y40790D01*
G01X9985Y40833D01*
G01X9998Y40877D01*
G01X10010Y40921D01*
G01X10019Y40966D01*
G01X10026Y41011D01*
G01X10031Y41056D01*
G01X10034Y41102D01*
G01X10035Y41148D01*
G01X10034Y41193D01*
G01X10031Y41239D01*
G01X10026Y41284D01*
G01X10019Y41329D01*
G01X10010Y41374D01*
G01X9998Y41418D01*
G01X9985Y41462D01*
G01X9970Y41505D01*
G01X9953Y41548D01*
G01X9934Y41589D01*
G01X9913Y41630D01*
G01X9891Y41670D01*
G01X9867Y41709D01*
G01X9841Y41746D01*
G01X9813Y41783D01*
G01X9784Y41818D01*
G01X9753Y41851D01*
G01X9720Y41884D01*
G01X9687Y41915D01*
G01X9652Y41944D01*
G01X9615Y41972D01*
G01X9578Y41998D01*
G01X9539Y42022D01*
G01X9499Y42044D01*
G01X9458Y42065D01*
G01X9417Y42084D01*
G01X9374Y42101D01*
G01X9331Y42116D01*
G01X9287Y42129D01*
G01X9243Y42141D01*
G01X9198Y42150D01*
G01X9153Y42157D01*
G01X9108Y42162D01*
G01X9062Y42165D01*
G37*
G36*
G01X24302Y42927D02*
G01X24257Y42928D01*
G01X24211Y42927D01*
G01X24165Y42924D01*
G01X24120Y42919D01*
G01X24075Y42912D01*
G01X24030Y42903D01*
G01X23986Y42891D01*
G01X23942Y42878D01*
G01X23899Y42863D01*
G01X23856Y42846D01*
G01X23815Y42827D01*
G01X23774Y42806D01*
G01X23734Y42784D01*
G01X23695Y42760D01*
G01X23658Y42734D01*
G01X23621Y42706D01*
G01X23586Y42677D01*
G01X23553Y42646D01*
G01X23520Y42613D01*
G01X23489Y42580D01*
G01X23460Y42545D01*
G01X23432Y42508D01*
G01X23406Y42471D01*
G01X23382Y42432D01*
G01X23360Y42392D01*
G01X23339Y42351D01*
G01X23320Y42310D01*
G01X23303Y42267D01*
G01X23288Y42224D01*
G01X23275Y42180D01*
G01X23263Y42136D01*
G01X23254Y42091D01*
G01X23247Y42046D01*
G01X23242Y42001D01*
G01X23239Y41955D01*
G01X23238Y41910D01*
G01X23239Y41864D01*
G01X23242Y41818D01*
G01X23247Y41773D01*
G01X23254Y41728D01*
G01X23263Y41683D01*
G01X23275Y41639D01*
G01X23288Y41595D01*
G01X23303Y41552D01*
G01X23320Y41509D01*
G01X23339Y41468D01*
G01X23360Y41427D01*
G01X23382Y41387D01*
G01X23406Y41348D01*
G01X23432Y41311D01*
G01X23460Y41274D01*
G01X23489Y41239D01*
G01X23520Y41206D01*
G01X23553Y41173D01*
G01X23586Y41142D01*
G01X23621Y41113D01*
G01X23658Y41085D01*
G01X23695Y41059D01*
G01X23734Y41035D01*
G01X23774Y41013D01*
G01X23815Y40992D01*
G01X23856Y40973D01*
G01X23899Y40956D01*
G01X23942Y40941D01*
G01X23986Y40928D01*
G01X24030Y40916D01*
G01X24075Y40907D01*
G01X24120Y40900D01*
G01X24165Y40895D01*
G01X24211Y40892D01*
G01X24257Y40891D01*
G01X24302Y40892D01*
G01X24348Y40895D01*
G01X24393Y40900D01*
G01X24438Y40907D01*
G01X24483Y40916D01*
G01X24527Y40928D01*
G01X24571Y40941D01*
G01X24614Y40956D01*
G01X24657Y40973D01*
G01X24698Y40992D01*
G01X24739Y41013D01*
G01X24779Y41035D01*
G01X24818Y41059D01*
G01X24855Y41085D01*
G01X24892Y41113D01*
G01X24927Y41142D01*
G01X24960Y41173D01*
G01X24993Y41206D01*
G01X25024Y41239D01*
G01X25053Y41274D01*
G01X25081Y41311D01*
G01X25107Y41348D01*
G01X25131Y41387D01*
G01X25153Y41427D01*
G01X25174Y41468D01*
G01X25193Y41509D01*
G01X25210Y41552D01*
G01X25225Y41595D01*
G01X25238Y41639D01*
G01X25250Y41683D01*
G01X25259Y41728D01*
G01X25266Y41773D01*
G01X25271Y41818D01*
G01X25274Y41864D01*
G01X25275Y41910D01*
G01X25274Y41955D01*
G01X25271Y42001D01*
G01X25266Y42046D01*
G01X25259Y42091D01*
G01X25250Y42136D01*
G01X25238Y42180D01*
G01X25225Y42224D01*
G01X25210Y42267D01*
G01X25193Y42310D01*
G01X25174Y42351D01*
G01X25153Y42392D01*
G01X25131Y42432D01*
G01X25107Y42471D01*
G01X25081Y42508D01*
G01X25053Y42545D01*
G01X25024Y42580D01*
G01X24993Y42613D01*
G01X24960Y42646D01*
G01X24927Y42677D01*
G01X24892Y42706D01*
G01X24855Y42734D01*
G01X24818Y42760D01*
G01X24779Y42784D01*
G01X24739Y42806D01*
G01X24698Y42827D01*
G01X24657Y42846D01*
G01X24614Y42863D01*
G01X24571Y42878D01*
G01X24527Y42891D01*
G01X24483Y42903D01*
G01X24438Y42912D01*
G01X24393Y42919D01*
G01X24348Y42924D01*
G01X24302Y42927D01*
G37*
G36*
G01X16192Y44132D02*
G01X16192Y44604D01*
G01X16149Y44582D01*
G01X16107Y44557D01*
G01X16066Y44531D01*
G01X16026Y44503D01*
G01X15988Y44473D01*
G01X15951Y44441D01*
G01X15916Y44408D01*
G01X15883Y44373D01*
G01X15851Y44336D01*
G01X15821Y44298D01*
G01X15793Y44258D01*
G01X15767Y44217D01*
G01X15742Y44175D01*
G01X15720Y44132D01*
G01X16192Y44132D01*
G37*
G36*
G01X17553Y43243D02*
G01X17081Y43243D01*
G01X17081Y42771D01*
G01X17124Y42793D01*
G01X17166Y42818D01*
G01X17207Y42844D01*
G01X17247Y42872D01*
G01X17285Y42902D01*
G01X17322Y42934D01*
G01X17357Y42967D01*
G01X17390Y43002D01*
G01X17422Y43039D01*
G01X17452Y43077D01*
G01X17480Y43117D01*
G01X17506Y43158D01*
G01X17531Y43200D01*
G01X17553Y43243D01*
G37*
G36*
G01X17124Y44582D02*
G01X17081Y44604D01*
G01X17081Y44132D01*
G01X17553Y44132D01*
G01X17531Y44175D01*
G01X17506Y44217D01*
G01X17480Y44258D01*
G01X17452Y44298D01*
G01X17422Y44336D01*
G01X17390Y44373D01*
G01X17357Y44408D01*
G01X17322Y44441D01*
G01X17285Y44473D01*
G01X17247Y44503D01*
G01X17207Y44531D01*
G01X17166Y44557D01*
G01X17124Y44582D01*
G37*
G36*
G01X16192Y43243D02*
G01X15720Y43243D01*
G01X15742Y43200D01*
G01X15767Y43158D01*
G01X15793Y43117D01*
G01X15821Y43077D01*
G01X15851Y43039D01*
G01X15883Y43002D01*
G01X15916Y42967D01*
G01X15951Y42934D01*
G01X15988Y42902D01*
G01X16026Y42872D01*
G01X16066Y42844D01*
G01X16107Y42818D01*
G01X16149Y42793D01*
G01X16192Y42771D01*
G01X16192Y43243D01*
G37*
G36*
G01X23812Y39814D02*
G01X23812Y40286D01*
G01X23769Y40264D01*
G01X23727Y40239D01*
G01X23686Y40213D01*
G01X23646Y40185D01*
G01X23608Y40155D01*
G01X23571Y40123D01*
G01X23536Y40090D01*
G01X23503Y40055D01*
G01X23471Y40018D01*
G01X23441Y39980D01*
G01X23413Y39940D01*
G01X23387Y39899D01*
G01X23362Y39857D01*
G01X23340Y39814D01*
G01X23812Y39814D01*
G37*
G36*
G01X24744Y40264D02*
G01X24701Y40286D01*
G01X24701Y39814D01*
G01X25173Y39814D01*
G01X25151Y39857D01*
G01X25126Y39899D01*
G01X25100Y39940D01*
G01X25072Y39980D01*
G01X25042Y40018D01*
G01X25010Y40055D01*
G01X24977Y40090D01*
G01X24942Y40123D01*
G01X24905Y40155D01*
G01X24867Y40185D01*
G01X24827Y40213D01*
G01X24786Y40239D01*
G01X24744Y40264D01*
G37*
G36*
G01X23812Y38925D02*
G01X23340Y38925D01*
G01X23362Y38882D01*
G01X23387Y38840D01*
G01X23413Y38799D01*
G01X23441Y38759D01*
G01X23471Y38721D01*
G01X23503Y38684D01*
G01X23536Y38649D01*
G01X23571Y38616D01*
G01X23608Y38584D01*
G01X23646Y38554D01*
G01X23686Y38526D01*
G01X23727Y38500D01*
G01X23769Y38475D01*
G01X23812Y38453D01*
G01X23812Y38925D01*
G37*
G36*
G01X25173Y38925D02*
G01X24701Y38925D01*
G01X24701Y38453D01*
G01X24744Y38475D01*
G01X24786Y38500D01*
G01X24827Y38526D01*
G01X24867Y38554D01*
G01X24905Y38584D01*
G01X24942Y38616D01*
G01X24977Y38649D01*
G01X25010Y38684D01*
G01X25042Y38721D01*
G01X25072Y38759D01*
G01X25100Y38799D01*
G01X25126Y38840D01*
G01X25151Y38882D01*
G01X25173Y38925D01*
G37*

%LPD*%
G54D11*
G01X14097Y41148D02*
G01X14097Y35052D01*
G01X4699Y35052D02*
G01X1397Y31750D01*
G01X1397Y24130D02*
G01X3683Y24130D01*
G01X12827Y33274D01*
G01X12827Y42418D01*
G01X11557Y43688D01*
G01X6096Y33274D02*
G01X6096Y40767D01*
G01X9017Y43688D01*
G01X1397Y26670D02*
G01X3937Y26670D01*
G01X6096Y28829D01*
G01X1270Y11430D02*
G01X2667Y11430D01*
G01X15367Y24130D01*
G01X15367Y42291D01*
G01X13970Y43688D01*
G01X24257Y31750D02*
G01X22479Y31750D01*
G01X16637Y37592D01*
G01X16637Y41148D01*
G01X11557Y41148D02*
G01X11557Y37084D01*
G01X3810Y29337D01*
G01X1524Y29337D01*
G01X1397Y29210D01*
G54D13*
G01X24257Y41910D03*
G01X24257Y39370D03*
G01X24257Y36830D03*
G01X24257Y34290D03*
G01X24257Y31750D03*
G01X24257Y16510D03*
G01X24257Y13970D03*
G01X24257Y11430D03*
G01X24257Y8890D03*
G01X24257Y6350D03*
G01X1397Y11430D03*
G01X1397Y13970D03*
G01X1397Y16510D03*
G01X1397Y19050D03*
G01X1397Y21590D03*
G01X1397Y24130D03*
G01X1397Y26670D03*
G01X1397Y29210D03*
G01X1397Y31750D03*
G01X16637Y43688D03*
G01X16637Y41148D03*
G01X14097Y43688D03*
G01X14097Y41148D03*
G01X11557Y43688D03*
G01X11557Y41148D03*
G01X9017Y43688D03*
G01X9017Y41148D03*
G54D12*
G01X6096Y28829D03*
G01X6096Y33274D03*
G01X14097Y35052D03*
G01X4699Y35052D03*
M00*
M02*
