G04 Layer: TopLayer*
G04 EasyEDA v6.2.46, 2019-11-02T22:46:44+01:00*
G04 ac1458d9b49046569834fa52976d048a,2f1dc3ff27c442d188d0821d71f234e9,NaN*
G04 Gerber Generator version 0.2*
G04 Scale: 100 percent, Rotated: No, Reflected: No *
G04 Dimensions in millimeters *
G04 leading zeros omitted , absolute positions ,3 integer and 3 decimal *
%FSLAX33Y33*%
%MOMM*%
G90*
G71D02*

%ADD11C,0.250012*%
%ADD12C,0.609600*%
%ADD13C,1.524000*%

%LPD*%
G36*
G01X25549Y48257D02*
G01X104Y48257D01*
G01X89Y48256D01*
G01X75Y48253D01*
G01X61Y48248D01*
G01X49Y48241D01*
G01X37Y48232D01*
G01X27Y48222D01*
G01X18Y48210D01*
G01X11Y48198D01*
G01X6Y48184D01*
G01X3Y48170D01*
G01X2Y48155D01*
G01X2Y104D01*
G01X3Y89D01*
G01X6Y75D01*
G01X11Y61D01*
G01X18Y49D01*
G01X27Y37D01*
G01X37Y27D01*
G01X49Y18D01*
G01X61Y11D01*
G01X75Y6D01*
G01X89Y3D01*
G01X104Y2D01*
G01X25549Y2D01*
G01X25564Y3D01*
G01X25578Y6D01*
G01X25592Y11D01*
G01X25604Y18D01*
G01X25616Y27D01*
G01X25626Y37D01*
G01X25635Y49D01*
G01X25642Y61D01*
G01X25647Y75D01*
G01X25650Y89D01*
G01X25651Y104D01*
G01X25651Y48155D01*
G01X25650Y48170D01*
G01X25647Y48184D01*
G01X25642Y48198D01*
G01X25635Y48210D01*
G01X25626Y48222D01*
G01X25616Y48232D01*
G01X25604Y48241D01*
G01X25592Y48248D01*
G01X25578Y48253D01*
G01X25564Y48256D01*
G01X25549Y48257D01*
G37*

%LPC*%
G36*
G01X4734Y35612D02*
G01X4699Y35613D01*
G01X4665Y35612D01*
G01X4631Y35609D01*
G01X4597Y35604D01*
G01X4564Y35597D01*
G01X4531Y35587D01*
G01X4499Y35576D01*
G01X4468Y35563D01*
G01X4438Y35549D01*
G01X4408Y35532D01*
G01X4380Y35513D01*
G01X4352Y35493D01*
G01X4326Y35472D01*
G01X4278Y35424D01*
G01X4257Y35398D01*
G01X4237Y35370D01*
G01X4218Y35342D01*
G01X4201Y35312D01*
G01X4187Y35282D01*
G01X4174Y35251D01*
G01X4163Y35219D01*
G01X4153Y35186D01*
G01X4146Y35153D01*
G01X4141Y35119D01*
G01X4138Y35085D01*
G01X4137Y35052D01*
G01X4138Y35018D01*
G01X4141Y34984D01*
G01X4146Y34950D01*
G01X4153Y34917D01*
G01X4163Y34884D01*
G01X4174Y34852D01*
G01X4187Y34821D01*
G01X4201Y34791D01*
G01X4218Y34761D01*
G01X4237Y34733D01*
G01X4257Y34705D01*
G01X4278Y34679D01*
G01X4326Y34631D01*
G01X4352Y34610D01*
G01X4380Y34590D01*
G01X4408Y34571D01*
G01X4438Y34554D01*
G01X4468Y34540D01*
G01X4499Y34527D01*
G01X4531Y34516D01*
G01X4564Y34506D01*
G01X4597Y34499D01*
G01X4631Y34494D01*
G01X4665Y34491D01*
G01X4698Y34490D01*
G01X4734Y34491D01*
G01X4769Y34495D01*
G01X4804Y34500D01*
G01X4838Y34508D01*
G01X4872Y34518D01*
G01X4905Y34530D01*
G01X4938Y34544D01*
G01X4969Y34560D01*
G01X4999Y34578D01*
G01X5029Y34597D01*
G01X5056Y34619D01*
G01X5083Y34642D01*
G01X5095Y34652D01*
G01X5108Y34660D01*
G01X5122Y34665D01*
G01X5137Y34669D01*
G01X5152Y34670D01*
G01X13643Y34670D01*
G01X13658Y34669D01*
G01X13673Y34665D01*
G01X13687Y34660D01*
G01X13700Y34652D01*
G01X13712Y34642D01*
G01X13739Y34619D01*
G01X13766Y34597D01*
G01X13796Y34578D01*
G01X13826Y34560D01*
G01X13857Y34544D01*
G01X13890Y34530D01*
G01X13923Y34518D01*
G01X13957Y34508D01*
G01X13991Y34500D01*
G01X14026Y34495D01*
G01X14061Y34491D01*
G01X14097Y34490D01*
G01X14130Y34491D01*
G01X14164Y34494D01*
G01X14198Y34499D01*
G01X14231Y34506D01*
G01X14264Y34516D01*
G01X14296Y34527D01*
G01X14327Y34540D01*
G01X14357Y34554D01*
G01X14387Y34571D01*
G01X14415Y34590D01*
G01X14443Y34610D01*
G01X14469Y34631D01*
G01X14517Y34679D01*
G01X14538Y34705D01*
G01X14558Y34733D01*
G01X14577Y34761D01*
G01X14594Y34791D01*
G01X14608Y34821D01*
G01X14621Y34852D01*
G01X14632Y34884D01*
G01X14642Y34917D01*
G01X14649Y34950D01*
G01X14654Y34984D01*
G01X14657Y35018D01*
G01X14658Y35052D01*
G01X14657Y35085D01*
G01X14654Y35119D01*
G01X14649Y35153D01*
G01X14642Y35186D01*
G01X14632Y35219D01*
G01X14621Y35251D01*
G01X14608Y35282D01*
G01X14594Y35312D01*
G01X14577Y35342D01*
G01X14558Y35370D01*
G01X14538Y35398D01*
G01X14517Y35424D01*
G01X14469Y35472D01*
G01X14443Y35493D01*
G01X14415Y35513D01*
G01X14387Y35532D01*
G01X14357Y35549D01*
G01X14327Y35563D01*
G01X14296Y35576D01*
G01X14264Y35587D01*
G01X14231Y35597D01*
G01X14198Y35604D01*
G01X14164Y35609D01*
G01X14130Y35612D01*
G01X14097Y35613D01*
G01X14061Y35612D01*
G01X14026Y35608D01*
G01X13991Y35603D01*
G01X13957Y35595D01*
G01X13923Y35585D01*
G01X13890Y35573D01*
G01X13857Y35559D01*
G01X13826Y35543D01*
G01X13796Y35525D01*
G01X13766Y35506D01*
G01X13739Y35484D01*
G01X13712Y35461D01*
G01X13700Y35451D01*
G01X13687Y35443D01*
G01X13673Y35438D01*
G01X13658Y35434D01*
G01X13643Y35433D01*
G01X5152Y35433D01*
G01X5137Y35434D01*
G01X5122Y35438D01*
G01X5108Y35443D01*
G01X5095Y35451D01*
G01X5083Y35461D01*
G01X5056Y35484D01*
G01X5029Y35506D01*
G01X4999Y35525D01*
G01X4969Y35543D01*
G01X4938Y35559D01*
G01X4905Y35573D01*
G01X4872Y35585D01*
G01X4838Y35595D01*
G01X4804Y35603D01*
G01X4769Y35608D01*
G01X4734Y35612D01*
G37*
G36*
G01X6129Y33834D02*
G01X6096Y33835D01*
G01X6062Y33834D01*
G01X6028Y33831D01*
G01X5994Y33826D01*
G01X5961Y33819D01*
G01X5928Y33809D01*
G01X5896Y33798D01*
G01X5865Y33785D01*
G01X5835Y33771D01*
G01X5805Y33754D01*
G01X5777Y33735D01*
G01X5749Y33715D01*
G01X5723Y33694D01*
G01X5675Y33646D01*
G01X5654Y33620D01*
G01X5634Y33592D01*
G01X5615Y33564D01*
G01X5598Y33534D01*
G01X5584Y33504D01*
G01X5571Y33473D01*
G01X5560Y33441D01*
G01X5550Y33408D01*
G01X5543Y33375D01*
G01X5538Y33341D01*
G01X5535Y33307D01*
G01X5534Y33274D01*
G01X5535Y33238D01*
G01X5539Y33203D01*
G01X5544Y33168D01*
G01X5552Y33134D01*
G01X5562Y33100D01*
G01X5574Y33067D01*
G01X5588Y33034D01*
G01X5604Y33003D01*
G01X5622Y32973D01*
G01X5641Y32943D01*
G01X5663Y32916D01*
G01X5686Y32889D01*
G01X5696Y32877D01*
G01X5704Y32864D01*
G01X5709Y32850D01*
G01X5713Y32835D01*
G01X5714Y32820D01*
G01X5714Y29282D01*
G01X5713Y29267D01*
G01X5709Y29252D01*
G01X5704Y29238D01*
G01X5696Y29225D01*
G01X5686Y29213D01*
G01X5663Y29186D01*
G01X5641Y29159D01*
G01X5622Y29129D01*
G01X5604Y29099D01*
G01X5588Y29068D01*
G01X5574Y29035D01*
G01X5562Y29002D01*
G01X5552Y28968D01*
G01X5544Y28934D01*
G01X5539Y28899D01*
G01X5535Y28864D01*
G01X5534Y28829D01*
G01X5535Y28795D01*
G01X5538Y28761D01*
G01X5543Y28727D01*
G01X5550Y28694D01*
G01X5560Y28661D01*
G01X5571Y28629D01*
G01X5584Y28598D01*
G01X5598Y28568D01*
G01X5615Y28538D01*
G01X5634Y28510D01*
G01X5654Y28482D01*
G01X5675Y28456D01*
G01X5723Y28408D01*
G01X5749Y28387D01*
G01X5777Y28367D01*
G01X5805Y28348D01*
G01X5835Y28331D01*
G01X5865Y28317D01*
G01X5896Y28304D01*
G01X5928Y28293D01*
G01X5961Y28283D01*
G01X5994Y28276D01*
G01X6028Y28271D01*
G01X6062Y28268D01*
G01X6096Y28267D01*
G01X6129Y28268D01*
G01X6163Y28271D01*
G01X6197Y28276D01*
G01X6230Y28283D01*
G01X6263Y28293D01*
G01X6295Y28304D01*
G01X6326Y28317D01*
G01X6356Y28331D01*
G01X6386Y28348D01*
G01X6414Y28367D01*
G01X6442Y28387D01*
G01X6468Y28408D01*
G01X6516Y28456D01*
G01X6537Y28482D01*
G01X6557Y28510D01*
G01X6576Y28538D01*
G01X6593Y28568D01*
G01X6607Y28598D01*
G01X6620Y28629D01*
G01X6631Y28661D01*
G01X6641Y28694D01*
G01X6648Y28727D01*
G01X6653Y28761D01*
G01X6656Y28795D01*
G01X6657Y28828D01*
G01X6656Y28864D01*
G01X6652Y28899D01*
G01X6647Y28934D01*
G01X6639Y28968D01*
G01X6629Y29002D01*
G01X6617Y29035D01*
G01X6603Y29068D01*
G01X6587Y29099D01*
G01X6569Y29129D01*
G01X6550Y29159D01*
G01X6528Y29186D01*
G01X6505Y29213D01*
G01X6495Y29225D01*
G01X6487Y29238D01*
G01X6482Y29252D01*
G01X6478Y29267D01*
G01X6477Y29282D01*
G01X6477Y32820D01*
G01X6478Y32835D01*
G01X6482Y32850D01*
G01X6487Y32864D01*
G01X6495Y32877D01*
G01X6505Y32889D01*
G01X6528Y32916D01*
G01X6550Y32943D01*
G01X6569Y32973D01*
G01X6587Y33003D01*
G01X6603Y33034D01*
G01X6617Y33067D01*
G01X6629Y33100D01*
G01X6639Y33134D01*
G01X6647Y33168D01*
G01X6652Y33203D01*
G01X6656Y33238D01*
G01X6657Y33274D01*
G01X6656Y33307D01*
G01X6653Y33341D01*
G01X6648Y33375D01*
G01X6641Y33408D01*
G01X6631Y33441D01*
G01X6620Y33473D01*
G01X6607Y33504D01*
G01X6593Y33534D01*
G01X6576Y33564D01*
G01X6557Y33592D01*
G01X6537Y33620D01*
G01X6516Y33646D01*
G01X6468Y33694D01*
G01X6442Y33715D01*
G01X6414Y33735D01*
G01X6386Y33754D01*
G01X6356Y33771D01*
G01X6326Y33785D01*
G01X6295Y33798D01*
G01X6263Y33809D01*
G01X6230Y33819D01*
G01X6197Y33826D01*
G01X6163Y33831D01*
G01X6129Y33834D01*
G37*
G36*
G01X24302Y12447D02*
G01X24257Y12448D01*
G01X24211Y12447D01*
G01X24165Y12444D01*
G01X24120Y12439D01*
G01X24075Y12432D01*
G01X24030Y12423D01*
G01X23986Y12411D01*
G01X23942Y12398D01*
G01X23899Y12383D01*
G01X23856Y12366D01*
G01X23815Y12347D01*
G01X23774Y12326D01*
G01X23734Y12304D01*
G01X23695Y12280D01*
G01X23658Y12254D01*
G01X23621Y12226D01*
G01X23586Y12197D01*
G01X23553Y12166D01*
G01X23520Y12133D01*
G01X23489Y12100D01*
G01X23460Y12065D01*
G01X23432Y12028D01*
G01X23406Y11991D01*
G01X23382Y11952D01*
G01X23360Y11912D01*
G01X23339Y11871D01*
G01X23320Y11830D01*
G01X23303Y11787D01*
G01X23288Y11744D01*
G01X23275Y11700D01*
G01X23263Y11656D01*
G01X23254Y11611D01*
G01X23247Y11566D01*
G01X23242Y11521D01*
G01X23239Y11475D01*
G01X23238Y11430D01*
G01X23239Y11384D01*
G01X23242Y11338D01*
G01X23247Y11293D01*
G01X23254Y11248D01*
G01X23263Y11203D01*
G01X23275Y11159D01*
G01X23288Y11115D01*
G01X23303Y11072D01*
G01X23320Y11029D01*
G01X23339Y10988D01*
G01X23360Y10947D01*
G01X23382Y10907D01*
G01X23406Y10868D01*
G01X23432Y10831D01*
G01X23460Y10794D01*
G01X23489Y10759D01*
G01X23520Y10726D01*
G01X23553Y10693D01*
G01X23586Y10662D01*
G01X23621Y10633D01*
G01X23658Y10605D01*
G01X23695Y10579D01*
G01X23734Y10555D01*
G01X23774Y10533D01*
G01X23815Y10512D01*
G01X23856Y10493D01*
G01X23899Y10476D01*
G01X23942Y10461D01*
G01X23986Y10448D01*
G01X24030Y10436D01*
G01X24075Y10427D01*
G01X24120Y10420D01*
G01X24165Y10415D01*
G01X24211Y10412D01*
G01X24257Y10411D01*
G01X24302Y10412D01*
G01X24348Y10415D01*
G01X24393Y10420D01*
G01X24438Y10427D01*
G01X24483Y10436D01*
G01X24527Y10448D01*
G01X24571Y10461D01*
G01X24614Y10476D01*
G01X24657Y10493D01*
G01X24698Y10512D01*
G01X24739Y10533D01*
G01X24779Y10555D01*
G01X24818Y10579D01*
G01X24855Y10605D01*
G01X24892Y10633D01*
G01X24927Y10662D01*
G01X24960Y10693D01*
G01X24993Y10726D01*
G01X25024Y10759D01*
G01X25053Y10794D01*
G01X25081Y10831D01*
G01X25107Y10868D01*
G01X25131Y10907D01*
G01X25153Y10947D01*
G01X25174Y10988D01*
G01X25193Y11029D01*
G01X25210Y11072D01*
G01X25225Y11115D01*
G01X25238Y11159D01*
G01X25250Y11203D01*
G01X25259Y11248D01*
G01X25266Y11293D01*
G01X25271Y11338D01*
G01X25274Y11384D01*
G01X25275Y11430D01*
G01X25274Y11475D01*
G01X25271Y11521D01*
G01X25266Y11566D01*
G01X25259Y11611D01*
G01X25250Y11656D01*
G01X25238Y11700D01*
G01X25225Y11744D01*
G01X25210Y11787D01*
G01X25193Y11830D01*
G01X25174Y11871D01*
G01X25153Y11912D01*
G01X25131Y11952D01*
G01X25107Y11991D01*
G01X25081Y12028D01*
G01X25053Y12065D01*
G01X25024Y12100D01*
G01X24993Y12133D01*
G01X24960Y12166D01*
G01X24927Y12197D01*
G01X24892Y12226D01*
G01X24855Y12254D01*
G01X24818Y12280D01*
G01X24779Y12304D01*
G01X24739Y12326D01*
G01X24698Y12347D01*
G01X24657Y12366D01*
G01X24614Y12383D01*
G01X24571Y12398D01*
G01X24527Y12411D01*
G01X24483Y12423D01*
G01X24438Y12432D01*
G01X24393Y12439D01*
G01X24348Y12444D01*
G01X24302Y12447D01*
G37*
G36*
G01X1442Y12447D02*
G01X1397Y12448D01*
G01X1351Y12447D01*
G01X1305Y12444D01*
G01X1260Y12439D01*
G01X1215Y12432D01*
G01X1170Y12423D01*
G01X1126Y12411D01*
G01X1082Y12398D01*
G01X1039Y12383D01*
G01X996Y12366D01*
G01X955Y12347D01*
G01X914Y12326D01*
G01X874Y12304D01*
G01X835Y12280D01*
G01X798Y12254D01*
G01X761Y12226D01*
G01X726Y12197D01*
G01X693Y12166D01*
G01X660Y12133D01*
G01X629Y12100D01*
G01X600Y12065D01*
G01X572Y12028D01*
G01X546Y11991D01*
G01X522Y11952D01*
G01X500Y11912D01*
G01X479Y11871D01*
G01X460Y11830D01*
G01X443Y11787D01*
G01X428Y11744D01*
G01X415Y11700D01*
G01X403Y11656D01*
G01X394Y11611D01*
G01X387Y11566D01*
G01X382Y11521D01*
G01X379Y11475D01*
G01X378Y11430D01*
G01X379Y11384D01*
G01X382Y11338D01*
G01X387Y11293D01*
G01X394Y11248D01*
G01X403Y11203D01*
G01X415Y11159D01*
G01X428Y11115D01*
G01X443Y11072D01*
G01X460Y11029D01*
G01X479Y10988D01*
G01X500Y10947D01*
G01X522Y10907D01*
G01X546Y10868D01*
G01X572Y10831D01*
G01X600Y10794D01*
G01X629Y10759D01*
G01X660Y10726D01*
G01X693Y10693D01*
G01X726Y10662D01*
G01X761Y10633D01*
G01X798Y10605D01*
G01X835Y10579D01*
G01X874Y10555D01*
G01X914Y10533D01*
G01X955Y10512D01*
G01X996Y10493D01*
G01X1039Y10476D01*
G01X1082Y10461D01*
G01X1126Y10448D01*
G01X1170Y10436D01*
G01X1215Y10427D01*
G01X1260Y10420D01*
G01X1305Y10415D01*
G01X1351Y10412D01*
G01X1397Y10411D01*
G01X1442Y10412D01*
G01X1488Y10415D01*
G01X1533Y10420D01*
G01X1578Y10427D01*
G01X1623Y10436D01*
G01X1667Y10448D01*
G01X1711Y10461D01*
G01X1754Y10476D01*
G01X1797Y10493D01*
G01X1838Y10512D01*
G01X1879Y10533D01*
G01X1919Y10555D01*
G01X1958Y10579D01*
G01X1995Y10605D01*
G01X2032Y10633D01*
G01X2067Y10662D01*
G01X2100Y10693D01*
G01X2133Y10726D01*
G01X2164Y10759D01*
G01X2193Y10794D01*
G01X2221Y10831D01*
G01X2247Y10868D01*
G01X2271Y10907D01*
G01X2293Y10947D01*
G01X2314Y10988D01*
G01X2333Y11029D01*
G01X2350Y11072D01*
G01X2365Y11115D01*
G01X2378Y11159D01*
G01X2390Y11203D01*
G01X2399Y11248D01*
G01X2406Y11293D01*
G01X2411Y11338D01*
G01X2414Y11384D01*
G01X2415Y11430D01*
G01X2414Y11475D01*
G01X2411Y11521D01*
G01X2406Y11566D01*
G01X2399Y11611D01*
G01X2390Y11656D01*
G01X2378Y11700D01*
G01X2365Y11744D01*
G01X2350Y11787D01*
G01X2333Y11830D01*
G01X2314Y11871D01*
G01X2293Y11912D01*
G01X2271Y11952D01*
G01X2247Y11991D01*
G01X2221Y12028D01*
G01X2193Y12065D01*
G01X2164Y12100D01*
G01X2133Y12133D01*
G01X2100Y12166D01*
G01X2067Y12197D01*
G01X2032Y12226D01*
G01X1995Y12254D01*
G01X1958Y12280D01*
G01X1919Y12304D01*
G01X1879Y12326D01*
G01X1838Y12347D01*
G01X1797Y12366D01*
G01X1754Y12383D01*
G01X1711Y12398D01*
G01X1667Y12411D01*
G01X1623Y12423D01*
G01X1578Y12432D01*
G01X1533Y12439D01*
G01X1488Y12444D01*
G01X1442Y12447D01*
G37*
G36*
G01X24302Y14987D02*
G01X24257Y14988D01*
G01X24211Y14987D01*
G01X24165Y14984D01*
G01X24120Y14979D01*
G01X24075Y14972D01*
G01X24030Y14963D01*
G01X23986Y14951D01*
G01X23942Y14938D01*
G01X23899Y14923D01*
G01X23856Y14906D01*
G01X23815Y14887D01*
G01X23774Y14866D01*
G01X23734Y14844D01*
G01X23695Y14820D01*
G01X23658Y14794D01*
G01X23621Y14766D01*
G01X23586Y14737D01*
G01X23553Y14706D01*
G01X23520Y14673D01*
G01X23489Y14640D01*
G01X23460Y14605D01*
G01X23432Y14568D01*
G01X23406Y14531D01*
G01X23382Y14492D01*
G01X23360Y14452D01*
G01X23339Y14411D01*
G01X23320Y14370D01*
G01X23303Y14327D01*
G01X23288Y14284D01*
G01X23275Y14240D01*
G01X23263Y14196D01*
G01X23254Y14151D01*
G01X23247Y14106D01*
G01X23242Y14061D01*
G01X23239Y14015D01*
G01X23238Y13970D01*
G01X23239Y13924D01*
G01X23242Y13878D01*
G01X23247Y13833D01*
G01X23254Y13788D01*
G01X23263Y13743D01*
G01X23275Y13699D01*
G01X23288Y13655D01*
G01X23303Y13612D01*
G01X23320Y13569D01*
G01X23339Y13528D01*
G01X23360Y13487D01*
G01X23382Y13447D01*
G01X23406Y13408D01*
G01X23432Y13371D01*
G01X23460Y13334D01*
G01X23489Y13299D01*
G01X23520Y13266D01*
G01X23553Y13233D01*
G01X23586Y13202D01*
G01X23621Y13173D01*
G01X23658Y13145D01*
G01X23695Y13119D01*
G01X23734Y13095D01*
G01X23774Y13073D01*
G01X23815Y13052D01*
G01X23856Y13033D01*
G01X23899Y13016D01*
G01X23942Y13001D01*
G01X23986Y12988D01*
G01X24030Y12976D01*
G01X24075Y12967D01*
G01X24120Y12960D01*
G01X24165Y12955D01*
G01X24211Y12952D01*
G01X24257Y12951D01*
G01X24302Y12952D01*
G01X24348Y12955D01*
G01X24393Y12960D01*
G01X24438Y12967D01*
G01X24483Y12976D01*
G01X24527Y12988D01*
G01X24571Y13001D01*
G01X24614Y13016D01*
G01X24657Y13033D01*
G01X24698Y13052D01*
G01X24739Y13073D01*
G01X24779Y13095D01*
G01X24818Y13119D01*
G01X24855Y13145D01*
G01X24892Y13173D01*
G01X24927Y13202D01*
G01X24960Y13233D01*
G01X24993Y13266D01*
G01X25024Y13299D01*
G01X25053Y13334D01*
G01X25081Y13371D01*
G01X25107Y13408D01*
G01X25131Y13447D01*
G01X25153Y13487D01*
G01X25174Y13528D01*
G01X25193Y13569D01*
G01X25210Y13612D01*
G01X25225Y13655D01*
G01X25238Y13699D01*
G01X25250Y13743D01*
G01X25259Y13788D01*
G01X25266Y13833D01*
G01X25271Y13878D01*
G01X25274Y13924D01*
G01X25275Y13970D01*
G01X25274Y14015D01*
G01X25271Y14061D01*
G01X25266Y14106D01*
G01X25259Y14151D01*
G01X25250Y14196D01*
G01X25238Y14240D01*
G01X25225Y14284D01*
G01X25210Y14327D01*
G01X25193Y14370D01*
G01X25174Y14411D01*
G01X25153Y14452D01*
G01X25131Y14492D01*
G01X25107Y14531D01*
G01X25081Y14568D01*
G01X25053Y14605D01*
G01X25024Y14640D01*
G01X24993Y14673D01*
G01X24960Y14706D01*
G01X24927Y14737D01*
G01X24892Y14766D01*
G01X24855Y14794D01*
G01X24818Y14820D01*
G01X24779Y14844D01*
G01X24739Y14866D01*
G01X24698Y14887D01*
G01X24657Y14906D01*
G01X24614Y14923D01*
G01X24571Y14938D01*
G01X24527Y14951D01*
G01X24483Y14963D01*
G01X24438Y14972D01*
G01X24393Y14979D01*
G01X24348Y14984D01*
G01X24302Y14987D01*
G37*
G36*
G01X1442Y14987D02*
G01X1397Y14988D01*
G01X1351Y14987D01*
G01X1305Y14984D01*
G01X1260Y14979D01*
G01X1215Y14972D01*
G01X1170Y14963D01*
G01X1126Y14951D01*
G01X1082Y14938D01*
G01X1039Y14923D01*
G01X996Y14906D01*
G01X955Y14887D01*
G01X914Y14866D01*
G01X874Y14844D01*
G01X835Y14820D01*
G01X798Y14794D01*
G01X761Y14766D01*
G01X726Y14737D01*
G01X693Y14706D01*
G01X660Y14673D01*
G01X629Y14640D01*
G01X600Y14605D01*
G01X572Y14568D01*
G01X546Y14531D01*
G01X522Y14492D01*
G01X500Y14452D01*
G01X479Y14411D01*
G01X460Y14370D01*
G01X443Y14327D01*
G01X428Y14284D01*
G01X415Y14240D01*
G01X403Y14196D01*
G01X394Y14151D01*
G01X387Y14106D01*
G01X382Y14061D01*
G01X379Y14015D01*
G01X378Y13970D01*
G01X379Y13924D01*
G01X382Y13878D01*
G01X387Y13833D01*
G01X394Y13788D01*
G01X403Y13743D01*
G01X415Y13699D01*
G01X428Y13655D01*
G01X443Y13612D01*
G01X460Y13569D01*
G01X479Y13528D01*
G01X500Y13487D01*
G01X522Y13447D01*
G01X546Y13408D01*
G01X572Y13371D01*
G01X600Y13334D01*
G01X629Y13299D01*
G01X660Y13266D01*
G01X693Y13233D01*
G01X726Y13202D01*
G01X761Y13173D01*
G01X798Y13145D01*
G01X835Y13119D01*
G01X874Y13095D01*
G01X914Y13073D01*
G01X955Y13052D01*
G01X996Y13033D01*
G01X1039Y13016D01*
G01X1082Y13001D01*
G01X1126Y12988D01*
G01X1170Y12976D01*
G01X1215Y12967D01*
G01X1260Y12960D01*
G01X1305Y12955D01*
G01X1351Y12952D01*
G01X1397Y12951D01*
G01X1442Y12952D01*
G01X1488Y12955D01*
G01X1533Y12960D01*
G01X1578Y12967D01*
G01X1623Y12976D01*
G01X1667Y12988D01*
G01X1711Y13001D01*
G01X1754Y13016D01*
G01X1797Y13033D01*
G01X1838Y13052D01*
G01X1879Y13073D01*
G01X1919Y13095D01*
G01X1958Y13119D01*
G01X1995Y13145D01*
G01X2032Y13173D01*
G01X2067Y13202D01*
G01X2100Y13233D01*
G01X2133Y13266D01*
G01X2164Y13299D01*
G01X2193Y13334D01*
G01X2221Y13371D01*
G01X2247Y13408D01*
G01X2271Y13447D01*
G01X2293Y13487D01*
G01X2314Y13528D01*
G01X2333Y13569D01*
G01X2350Y13612D01*
G01X2365Y13655D01*
G01X2378Y13699D01*
G01X2390Y13743D01*
G01X2399Y13788D01*
G01X2406Y13833D01*
G01X2411Y13878D01*
G01X2414Y13924D01*
G01X2415Y13970D01*
G01X2414Y14015D01*
G01X2411Y14061D01*
G01X2406Y14106D01*
G01X2399Y14151D01*
G01X2390Y14196D01*
G01X2378Y14240D01*
G01X2365Y14284D01*
G01X2350Y14327D01*
G01X2333Y14370D01*
G01X2314Y14411D01*
G01X2293Y14452D01*
G01X2271Y14492D01*
G01X2247Y14531D01*
G01X2221Y14568D01*
G01X2193Y14605D01*
G01X2164Y14640D01*
G01X2133Y14673D01*
G01X2100Y14706D01*
G01X2067Y14737D01*
G01X2032Y14766D01*
G01X1995Y14794D01*
G01X1958Y14820D01*
G01X1919Y14844D01*
G01X1879Y14866D01*
G01X1838Y14887D01*
G01X1797Y14906D01*
G01X1754Y14923D01*
G01X1711Y14938D01*
G01X1667Y14951D01*
G01X1623Y14963D01*
G01X1578Y14972D01*
G01X1533Y14979D01*
G01X1488Y14984D01*
G01X1442Y14987D01*
G37*
G36*
G01X1442Y17527D02*
G01X1397Y17528D01*
G01X1351Y17527D01*
G01X1305Y17524D01*
G01X1260Y17519D01*
G01X1215Y17512D01*
G01X1170Y17503D01*
G01X1126Y17491D01*
G01X1082Y17478D01*
G01X1039Y17463D01*
G01X996Y17446D01*
G01X955Y17427D01*
G01X914Y17406D01*
G01X874Y17384D01*
G01X835Y17360D01*
G01X798Y17334D01*
G01X761Y17306D01*
G01X726Y17277D01*
G01X693Y17246D01*
G01X660Y17213D01*
G01X629Y17180D01*
G01X600Y17145D01*
G01X572Y17108D01*
G01X546Y17071D01*
G01X522Y17032D01*
G01X500Y16992D01*
G01X479Y16951D01*
G01X460Y16910D01*
G01X443Y16867D01*
G01X428Y16824D01*
G01X415Y16780D01*
G01X403Y16736D01*
G01X394Y16691D01*
G01X387Y16646D01*
G01X382Y16601D01*
G01X379Y16555D01*
G01X378Y16510D01*
G01X379Y16464D01*
G01X382Y16418D01*
G01X387Y16373D01*
G01X394Y16328D01*
G01X403Y16283D01*
G01X415Y16239D01*
G01X428Y16195D01*
G01X443Y16152D01*
G01X460Y16109D01*
G01X479Y16068D01*
G01X500Y16027D01*
G01X522Y15987D01*
G01X546Y15948D01*
G01X572Y15911D01*
G01X600Y15874D01*
G01X629Y15839D01*
G01X660Y15806D01*
G01X693Y15773D01*
G01X726Y15742D01*
G01X761Y15713D01*
G01X798Y15685D01*
G01X835Y15659D01*
G01X874Y15635D01*
G01X914Y15613D01*
G01X955Y15592D01*
G01X996Y15573D01*
G01X1039Y15556D01*
G01X1082Y15541D01*
G01X1126Y15528D01*
G01X1170Y15516D01*
G01X1215Y15507D01*
G01X1260Y15500D01*
G01X1305Y15495D01*
G01X1351Y15492D01*
G01X1397Y15491D01*
G01X1442Y15492D01*
G01X1488Y15495D01*
G01X1533Y15500D01*
G01X1578Y15507D01*
G01X1623Y15516D01*
G01X1667Y15528D01*
G01X1711Y15541D01*
G01X1754Y15556D01*
G01X1797Y15573D01*
G01X1838Y15592D01*
G01X1879Y15613D01*
G01X1919Y15635D01*
G01X1958Y15659D01*
G01X1995Y15685D01*
G01X2032Y15713D01*
G01X2067Y15742D01*
G01X2100Y15773D01*
G01X2133Y15806D01*
G01X2164Y15839D01*
G01X2193Y15874D01*
G01X2221Y15911D01*
G01X2247Y15948D01*
G01X2271Y15987D01*
G01X2293Y16027D01*
G01X2314Y16068D01*
G01X2333Y16109D01*
G01X2350Y16152D01*
G01X2365Y16195D01*
G01X2378Y16239D01*
G01X2390Y16283D01*
G01X2399Y16328D01*
G01X2406Y16373D01*
G01X2411Y16418D01*
G01X2414Y16464D01*
G01X2415Y16510D01*
G01X2414Y16555D01*
G01X2411Y16601D01*
G01X2406Y16646D01*
G01X2399Y16691D01*
G01X2390Y16736D01*
G01X2378Y16780D01*
G01X2365Y16824D01*
G01X2350Y16867D01*
G01X2333Y16910D01*
G01X2314Y16951D01*
G01X2293Y16992D01*
G01X2271Y17032D01*
G01X2247Y17071D01*
G01X2221Y17108D01*
G01X2193Y17145D01*
G01X2164Y17180D01*
G01X2133Y17213D01*
G01X2100Y17246D01*
G01X2067Y17277D01*
G01X2032Y17306D01*
G01X1995Y17334D01*
G01X1958Y17360D01*
G01X1919Y17384D01*
G01X1879Y17406D01*
G01X1838Y17427D01*
G01X1797Y17446D01*
G01X1754Y17463D01*
G01X1711Y17478D01*
G01X1667Y17491D01*
G01X1623Y17503D01*
G01X1578Y17512D01*
G01X1533Y17519D01*
G01X1488Y17524D01*
G01X1442Y17527D01*
G37*
G36*
G01X24302Y17527D02*
G01X24257Y17528D01*
G01X24211Y17527D01*
G01X24165Y17524D01*
G01X24120Y17519D01*
G01X24075Y17512D01*
G01X24030Y17503D01*
G01X23986Y17491D01*
G01X23942Y17478D01*
G01X23899Y17463D01*
G01X23856Y17446D01*
G01X23815Y17427D01*
G01X23774Y17406D01*
G01X23734Y17384D01*
G01X23695Y17360D01*
G01X23658Y17334D01*
G01X23621Y17306D01*
G01X23586Y17277D01*
G01X23553Y17246D01*
G01X23520Y17213D01*
G01X23489Y17180D01*
G01X23460Y17145D01*
G01X23432Y17108D01*
G01X23406Y17071D01*
G01X23382Y17032D01*
G01X23360Y16992D01*
G01X23339Y16951D01*
G01X23320Y16910D01*
G01X23303Y16867D01*
G01X23288Y16824D01*
G01X23275Y16780D01*
G01X23263Y16736D01*
G01X23254Y16691D01*
G01X23247Y16646D01*
G01X23242Y16601D01*
G01X23239Y16555D01*
G01X23238Y16510D01*
G01X23239Y16464D01*
G01X23242Y16418D01*
G01X23247Y16373D01*
G01X23254Y16328D01*
G01X23263Y16283D01*
G01X23275Y16239D01*
G01X23288Y16195D01*
G01X23303Y16152D01*
G01X23320Y16109D01*
G01X23339Y16068D01*
G01X23360Y16027D01*
G01X23382Y15987D01*
G01X23406Y15948D01*
G01X23432Y15911D01*
G01X23460Y15874D01*
G01X23489Y15839D01*
G01X23520Y15806D01*
G01X23553Y15773D01*
G01X23586Y15742D01*
G01X23621Y15713D01*
G01X23658Y15685D01*
G01X23695Y15659D01*
G01X23734Y15635D01*
G01X23774Y15613D01*
G01X23815Y15592D01*
G01X23856Y15573D01*
G01X23899Y15556D01*
G01X23942Y15541D01*
G01X23986Y15528D01*
G01X24030Y15516D01*
G01X24075Y15507D01*
G01X24120Y15500D01*
G01X24165Y15495D01*
G01X24211Y15492D01*
G01X24257Y15491D01*
G01X24302Y15492D01*
G01X24348Y15495D01*
G01X24393Y15500D01*
G01X24438Y15507D01*
G01X24483Y15516D01*
G01X24527Y15528D01*
G01X24571Y15541D01*
G01X24614Y15556D01*
G01X24657Y15573D01*
G01X24698Y15592D01*
G01X24739Y15613D01*
G01X24779Y15635D01*
G01X24818Y15659D01*
G01X24855Y15685D01*
G01X24892Y15713D01*
G01X24927Y15742D01*
G01X24960Y15773D01*
G01X24993Y15806D01*
G01X25024Y15839D01*
G01X25053Y15874D01*
G01X25081Y15911D01*
G01X25107Y15948D01*
G01X25131Y15987D01*
G01X25153Y16027D01*
G01X25174Y16068D01*
G01X25193Y16109D01*
G01X25210Y16152D01*
G01X25225Y16195D01*
G01X25238Y16239D01*
G01X25250Y16283D01*
G01X25259Y16328D01*
G01X25266Y16373D01*
G01X25271Y16418D01*
G01X25274Y16464D01*
G01X25275Y16510D01*
G01X25274Y16555D01*
G01X25271Y16601D01*
G01X25266Y16646D01*
G01X25259Y16691D01*
G01X25250Y16736D01*
G01X25238Y16780D01*
G01X25225Y16824D01*
G01X25210Y16867D01*
G01X25193Y16910D01*
G01X25174Y16951D01*
G01X25153Y16992D01*
G01X25131Y17032D01*
G01X25107Y17071D01*
G01X25081Y17108D01*
G01X25053Y17145D01*
G01X25024Y17180D01*
G01X24993Y17213D01*
G01X24960Y17246D01*
G01X24927Y17277D01*
G01X24892Y17306D01*
G01X24855Y17334D01*
G01X24818Y17360D01*
G01X24779Y17384D01*
G01X24739Y17406D01*
G01X24698Y17427D01*
G01X24657Y17446D01*
G01X24614Y17463D01*
G01X24571Y17478D01*
G01X24527Y17491D01*
G01X24483Y17503D01*
G01X24438Y17512D01*
G01X24393Y17519D01*
G01X24348Y17524D01*
G01X24302Y17527D01*
G37*
G36*
G01X1442Y20067D02*
G01X1397Y20068D01*
G01X1351Y20067D01*
G01X1305Y20064D01*
G01X1260Y20059D01*
G01X1215Y20052D01*
G01X1170Y20043D01*
G01X1126Y20031D01*
G01X1082Y20018D01*
G01X1039Y20003D01*
G01X996Y19986D01*
G01X955Y19967D01*
G01X914Y19946D01*
G01X874Y19924D01*
G01X835Y19900D01*
G01X798Y19874D01*
G01X761Y19846D01*
G01X726Y19817D01*
G01X693Y19786D01*
G01X660Y19753D01*
G01X629Y19720D01*
G01X600Y19685D01*
G01X572Y19648D01*
G01X546Y19611D01*
G01X522Y19572D01*
G01X500Y19532D01*
G01X479Y19491D01*
G01X460Y19450D01*
G01X443Y19407D01*
G01X428Y19364D01*
G01X415Y19320D01*
G01X403Y19276D01*
G01X394Y19231D01*
G01X387Y19186D01*
G01X382Y19141D01*
G01X379Y19095D01*
G01X378Y19050D01*
G01X379Y19004D01*
G01X382Y18958D01*
G01X387Y18913D01*
G01X394Y18868D01*
G01X403Y18823D01*
G01X415Y18779D01*
G01X428Y18735D01*
G01X443Y18692D01*
G01X460Y18649D01*
G01X479Y18608D01*
G01X500Y18567D01*
G01X522Y18527D01*
G01X546Y18488D01*
G01X572Y18451D01*
G01X600Y18414D01*
G01X629Y18379D01*
G01X660Y18346D01*
G01X693Y18313D01*
G01X726Y18282D01*
G01X761Y18253D01*
G01X798Y18225D01*
G01X835Y18199D01*
G01X874Y18175D01*
G01X914Y18153D01*
G01X955Y18132D01*
G01X996Y18113D01*
G01X1039Y18096D01*
G01X1082Y18081D01*
G01X1126Y18068D01*
G01X1170Y18056D01*
G01X1215Y18047D01*
G01X1260Y18040D01*
G01X1305Y18035D01*
G01X1351Y18032D01*
G01X1397Y18031D01*
G01X1442Y18032D01*
G01X1488Y18035D01*
G01X1533Y18040D01*
G01X1578Y18047D01*
G01X1623Y18056D01*
G01X1667Y18068D01*
G01X1711Y18081D01*
G01X1754Y18096D01*
G01X1797Y18113D01*
G01X1838Y18132D01*
G01X1879Y18153D01*
G01X1919Y18175D01*
G01X1958Y18199D01*
G01X1995Y18225D01*
G01X2032Y18253D01*
G01X2067Y18282D01*
G01X2100Y18313D01*
G01X2133Y18346D01*
G01X2164Y18379D01*
G01X2193Y18414D01*
G01X2221Y18451D01*
G01X2247Y18488D01*
G01X2271Y18527D01*
G01X2293Y18567D01*
G01X2314Y18608D01*
G01X2333Y18649D01*
G01X2350Y18692D01*
G01X2365Y18735D01*
G01X2378Y18779D01*
G01X2390Y18823D01*
G01X2399Y18868D01*
G01X2406Y18913D01*
G01X2411Y18958D01*
G01X2414Y19004D01*
G01X2415Y19050D01*
G01X2414Y19095D01*
G01X2411Y19141D01*
G01X2406Y19186D01*
G01X2399Y19231D01*
G01X2390Y19276D01*
G01X2378Y19320D01*
G01X2365Y19364D01*
G01X2350Y19407D01*
G01X2333Y19450D01*
G01X2314Y19491D01*
G01X2293Y19532D01*
G01X2271Y19572D01*
G01X2247Y19611D01*
G01X2221Y19648D01*
G01X2193Y19685D01*
G01X2164Y19720D01*
G01X2133Y19753D01*
G01X2100Y19786D01*
G01X2067Y19817D01*
G01X2032Y19846D01*
G01X1995Y19874D01*
G01X1958Y19900D01*
G01X1919Y19924D01*
G01X1879Y19946D01*
G01X1838Y19967D01*
G01X1797Y19986D01*
G01X1754Y20003D01*
G01X1711Y20018D01*
G01X1667Y20031D01*
G01X1623Y20043D01*
G01X1578Y20052D01*
G01X1533Y20059D01*
G01X1488Y20064D01*
G01X1442Y20067D01*
G37*
G36*
G01X1442Y22607D02*
G01X1397Y22608D01*
G01X1351Y22607D01*
G01X1305Y22604D01*
G01X1260Y22599D01*
G01X1215Y22592D01*
G01X1170Y22583D01*
G01X1126Y22571D01*
G01X1082Y22558D01*
G01X1039Y22543D01*
G01X996Y22526D01*
G01X955Y22507D01*
G01X914Y22486D01*
G01X874Y22464D01*
G01X835Y22440D01*
G01X798Y22414D01*
G01X761Y22386D01*
G01X726Y22357D01*
G01X693Y22326D01*
G01X660Y22293D01*
G01X629Y22260D01*
G01X600Y22225D01*
G01X572Y22188D01*
G01X546Y22151D01*
G01X522Y22112D01*
G01X500Y22072D01*
G01X479Y22031D01*
G01X460Y21990D01*
G01X443Y21947D01*
G01X428Y21904D01*
G01X415Y21860D01*
G01X403Y21816D01*
G01X394Y21771D01*
G01X387Y21726D01*
G01X382Y21681D01*
G01X379Y21635D01*
G01X378Y21590D01*
G01X379Y21544D01*
G01X382Y21498D01*
G01X387Y21453D01*
G01X394Y21408D01*
G01X403Y21363D01*
G01X415Y21319D01*
G01X428Y21275D01*
G01X443Y21232D01*
G01X460Y21189D01*
G01X479Y21148D01*
G01X500Y21107D01*
G01X522Y21067D01*
G01X546Y21028D01*
G01X572Y20991D01*
G01X600Y20954D01*
G01X629Y20919D01*
G01X660Y20886D01*
G01X693Y20853D01*
G01X726Y20822D01*
G01X761Y20793D01*
G01X798Y20765D01*
G01X835Y20739D01*
G01X874Y20715D01*
G01X914Y20693D01*
G01X955Y20672D01*
G01X996Y20653D01*
G01X1039Y20636D01*
G01X1082Y20621D01*
G01X1126Y20608D01*
G01X1170Y20596D01*
G01X1215Y20587D01*
G01X1260Y20580D01*
G01X1305Y20575D01*
G01X1351Y20572D01*
G01X1397Y20571D01*
G01X1442Y20572D01*
G01X1488Y20575D01*
G01X1533Y20580D01*
G01X1578Y20587D01*
G01X1623Y20596D01*
G01X1667Y20608D01*
G01X1711Y20621D01*
G01X1754Y20636D01*
G01X1797Y20653D01*
G01X1838Y20672D01*
G01X1879Y20693D01*
G01X1919Y20715D01*
G01X1958Y20739D01*
G01X1995Y20765D01*
G01X2032Y20793D01*
G01X2067Y20822D01*
G01X2100Y20853D01*
G01X2133Y20886D01*
G01X2164Y20919D01*
G01X2193Y20954D01*
G01X2221Y20991D01*
G01X2247Y21028D01*
G01X2271Y21067D01*
G01X2293Y21107D01*
G01X2314Y21148D01*
G01X2333Y21189D01*
G01X2350Y21232D01*
G01X2365Y21275D01*
G01X2378Y21319D01*
G01X2390Y21363D01*
G01X2399Y21408D01*
G01X2406Y21453D01*
G01X2411Y21498D01*
G01X2414Y21544D01*
G01X2415Y21590D01*
G01X2414Y21635D01*
G01X2411Y21681D01*
G01X2406Y21726D01*
G01X2399Y21771D01*
G01X2390Y21816D01*
G01X2378Y21860D01*
G01X2365Y21904D01*
G01X2350Y21947D01*
G01X2333Y21990D01*
G01X2314Y22031D01*
G01X2293Y22072D01*
G01X2271Y22112D01*
G01X2247Y22151D01*
G01X2221Y22188D01*
G01X2193Y22225D01*
G01X2164Y22260D01*
G01X2133Y22293D01*
G01X2100Y22326D01*
G01X2067Y22357D01*
G01X2032Y22386D01*
G01X1995Y22414D01*
G01X1958Y22440D01*
G01X1919Y22464D01*
G01X1879Y22486D01*
G01X1838Y22507D01*
G01X1797Y22526D01*
G01X1754Y22543D01*
G01X1711Y22558D01*
G01X1667Y22571D01*
G01X1623Y22583D01*
G01X1578Y22592D01*
G01X1533Y22599D01*
G01X1488Y22604D01*
G01X1442Y22607D01*
G37*
G36*
G01X1442Y25147D02*
G01X1397Y25148D01*
G01X1351Y25147D01*
G01X1305Y25144D01*
G01X1260Y25139D01*
G01X1215Y25132D01*
G01X1170Y25123D01*
G01X1126Y25111D01*
G01X1082Y25098D01*
G01X1039Y25083D01*
G01X996Y25066D01*
G01X955Y25047D01*
G01X914Y25026D01*
G01X874Y25004D01*
G01X835Y24980D01*
G01X798Y24954D01*
G01X761Y24926D01*
G01X726Y24897D01*
G01X693Y24866D01*
G01X660Y24833D01*
G01X629Y24800D01*
G01X600Y24765D01*
G01X572Y24728D01*
G01X546Y24691D01*
G01X522Y24652D01*
G01X500Y24612D01*
G01X479Y24571D01*
G01X460Y24530D01*
G01X443Y24487D01*
G01X428Y24444D01*
G01X415Y24400D01*
G01X403Y24356D01*
G01X394Y24311D01*
G01X387Y24266D01*
G01X382Y24221D01*
G01X379Y24175D01*
G01X378Y24130D01*
G01X379Y24084D01*
G01X382Y24038D01*
G01X387Y23993D01*
G01X394Y23948D01*
G01X403Y23903D01*
G01X415Y23859D01*
G01X428Y23815D01*
G01X443Y23772D01*
G01X460Y23729D01*
G01X479Y23688D01*
G01X500Y23647D01*
G01X522Y23607D01*
G01X546Y23568D01*
G01X572Y23531D01*
G01X600Y23494D01*
G01X629Y23459D01*
G01X660Y23426D01*
G01X693Y23393D01*
G01X726Y23362D01*
G01X761Y23333D01*
G01X798Y23305D01*
G01X835Y23279D01*
G01X874Y23255D01*
G01X914Y23233D01*
G01X955Y23212D01*
G01X996Y23193D01*
G01X1039Y23176D01*
G01X1082Y23161D01*
G01X1126Y23148D01*
G01X1170Y23136D01*
G01X1215Y23127D01*
G01X1260Y23120D01*
G01X1305Y23115D01*
G01X1351Y23112D01*
G01X1397Y23111D01*
G01X1442Y23112D01*
G01X1488Y23115D01*
G01X1533Y23120D01*
G01X1578Y23127D01*
G01X1623Y23136D01*
G01X1667Y23148D01*
G01X1711Y23161D01*
G01X1754Y23176D01*
G01X1797Y23193D01*
G01X1838Y23212D01*
G01X1879Y23233D01*
G01X1919Y23255D01*
G01X1958Y23279D01*
G01X1995Y23305D01*
G01X2032Y23333D01*
G01X2067Y23362D01*
G01X2100Y23393D01*
G01X2133Y23426D01*
G01X2164Y23459D01*
G01X2193Y23494D01*
G01X2221Y23531D01*
G01X2247Y23568D01*
G01X2271Y23607D01*
G01X2293Y23647D01*
G01X2314Y23688D01*
G01X2333Y23729D01*
G01X2350Y23772D01*
G01X2365Y23815D01*
G01X2378Y23859D01*
G01X2390Y23903D01*
G01X2399Y23948D01*
G01X2406Y23993D01*
G01X2411Y24038D01*
G01X2414Y24084D01*
G01X2415Y24130D01*
G01X2414Y24175D01*
G01X2411Y24221D01*
G01X2406Y24266D01*
G01X2399Y24311D01*
G01X2390Y24356D01*
G01X2378Y24400D01*
G01X2365Y24444D01*
G01X2350Y24487D01*
G01X2333Y24530D01*
G01X2314Y24571D01*
G01X2293Y24612D01*
G01X2271Y24652D01*
G01X2247Y24691D01*
G01X2221Y24728D01*
G01X2193Y24765D01*
G01X2164Y24800D01*
G01X2133Y24833D01*
G01X2100Y24866D01*
G01X2067Y24897D01*
G01X2032Y24926D01*
G01X1995Y24954D01*
G01X1958Y24980D01*
G01X1919Y25004D01*
G01X1879Y25026D01*
G01X1838Y25047D01*
G01X1797Y25066D01*
G01X1754Y25083D01*
G01X1711Y25098D01*
G01X1667Y25111D01*
G01X1623Y25123D01*
G01X1578Y25132D01*
G01X1533Y25139D01*
G01X1488Y25144D01*
G01X1442Y25147D01*
G37*
G36*
G01X1442Y27687D02*
G01X1397Y27688D01*
G01X1351Y27687D01*
G01X1305Y27684D01*
G01X1260Y27679D01*
G01X1215Y27672D01*
G01X1170Y27663D01*
G01X1126Y27651D01*
G01X1082Y27638D01*
G01X1039Y27623D01*
G01X996Y27606D01*
G01X955Y27587D01*
G01X914Y27566D01*
G01X874Y27544D01*
G01X835Y27520D01*
G01X798Y27494D01*
G01X761Y27466D01*
G01X726Y27437D01*
G01X693Y27406D01*
G01X660Y27373D01*
G01X629Y27340D01*
G01X600Y27305D01*
G01X572Y27268D01*
G01X546Y27231D01*
G01X522Y27192D01*
G01X500Y27152D01*
G01X479Y27111D01*
G01X460Y27070D01*
G01X443Y27027D01*
G01X428Y26984D01*
G01X415Y26940D01*
G01X403Y26896D01*
G01X394Y26851D01*
G01X387Y26806D01*
G01X382Y26761D01*
G01X379Y26715D01*
G01X378Y26670D01*
G01X379Y26624D01*
G01X382Y26578D01*
G01X387Y26533D01*
G01X394Y26488D01*
G01X403Y26443D01*
G01X415Y26399D01*
G01X428Y26355D01*
G01X443Y26312D01*
G01X460Y26269D01*
G01X479Y26228D01*
G01X500Y26187D01*
G01X522Y26147D01*
G01X546Y26108D01*
G01X572Y26071D01*
G01X600Y26034D01*
G01X629Y25999D01*
G01X660Y25966D01*
G01X693Y25933D01*
G01X726Y25902D01*
G01X761Y25873D01*
G01X798Y25845D01*
G01X835Y25819D01*
G01X874Y25795D01*
G01X914Y25773D01*
G01X955Y25752D01*
G01X996Y25733D01*
G01X1039Y25716D01*
G01X1082Y25701D01*
G01X1126Y25688D01*
G01X1170Y25676D01*
G01X1215Y25667D01*
G01X1260Y25660D01*
G01X1305Y25655D01*
G01X1351Y25652D01*
G01X1397Y25651D01*
G01X1442Y25652D01*
G01X1488Y25655D01*
G01X1533Y25660D01*
G01X1578Y25667D01*
G01X1623Y25676D01*
G01X1667Y25688D01*
G01X1711Y25701D01*
G01X1754Y25716D01*
G01X1797Y25733D01*
G01X1838Y25752D01*
G01X1879Y25773D01*
G01X1919Y25795D01*
G01X1958Y25819D01*
G01X1995Y25845D01*
G01X2032Y25873D01*
G01X2067Y25902D01*
G01X2100Y25933D01*
G01X2133Y25966D01*
G01X2164Y25999D01*
G01X2193Y26034D01*
G01X2221Y26071D01*
G01X2247Y26108D01*
G01X2271Y26147D01*
G01X2293Y26187D01*
G01X2314Y26228D01*
G01X2333Y26269D01*
G01X2350Y26312D01*
G01X2365Y26355D01*
G01X2378Y26399D01*
G01X2390Y26443D01*
G01X2399Y26488D01*
G01X2406Y26533D01*
G01X2411Y26578D01*
G01X2414Y26624D01*
G01X2415Y26670D01*
G01X2414Y26715D01*
G01X2411Y26761D01*
G01X2406Y26806D01*
G01X2399Y26851D01*
G01X2390Y26896D01*
G01X2378Y26940D01*
G01X2365Y26984D01*
G01X2350Y27027D01*
G01X2333Y27070D01*
G01X2314Y27111D01*
G01X2293Y27152D01*
G01X2271Y27192D01*
G01X2247Y27231D01*
G01X2221Y27268D01*
G01X2193Y27305D01*
G01X2164Y27340D01*
G01X2133Y27373D01*
G01X2100Y27406D01*
G01X2067Y27437D01*
G01X2032Y27466D01*
G01X1995Y27494D01*
G01X1958Y27520D01*
G01X1919Y27544D01*
G01X1879Y27566D01*
G01X1838Y27587D01*
G01X1797Y27606D01*
G01X1754Y27623D01*
G01X1711Y27638D01*
G01X1667Y27651D01*
G01X1623Y27663D01*
G01X1578Y27672D01*
G01X1533Y27679D01*
G01X1488Y27684D01*
G01X1442Y27687D01*
G37*
G36*
G01X1442Y30227D02*
G01X1397Y30228D01*
G01X1351Y30227D01*
G01X1305Y30224D01*
G01X1260Y30219D01*
G01X1215Y30212D01*
G01X1170Y30203D01*
G01X1126Y30191D01*
G01X1082Y30178D01*
G01X1039Y30163D01*
G01X996Y30146D01*
G01X955Y30127D01*
G01X914Y30106D01*
G01X874Y30084D01*
G01X835Y30060D01*
G01X798Y30034D01*
G01X761Y30006D01*
G01X726Y29977D01*
G01X693Y29946D01*
G01X660Y29913D01*
G01X629Y29880D01*
G01X600Y29845D01*
G01X572Y29808D01*
G01X546Y29771D01*
G01X522Y29732D01*
G01X500Y29692D01*
G01X479Y29651D01*
G01X460Y29610D01*
G01X443Y29567D01*
G01X428Y29524D01*
G01X415Y29480D01*
G01X403Y29436D01*
G01X394Y29391D01*
G01X387Y29346D01*
G01X382Y29301D01*
G01X379Y29255D01*
G01X378Y29210D01*
G01X379Y29164D01*
G01X382Y29118D01*
G01X387Y29073D01*
G01X394Y29028D01*
G01X403Y28983D01*
G01X415Y28939D01*
G01X428Y28895D01*
G01X443Y28852D01*
G01X460Y28809D01*
G01X479Y28768D01*
G01X500Y28727D01*
G01X522Y28687D01*
G01X546Y28648D01*
G01X572Y28611D01*
G01X600Y28574D01*
G01X629Y28539D01*
G01X660Y28506D01*
G01X693Y28473D01*
G01X726Y28442D01*
G01X761Y28413D01*
G01X798Y28385D01*
G01X835Y28359D01*
G01X874Y28335D01*
G01X914Y28313D01*
G01X955Y28292D01*
G01X996Y28273D01*
G01X1039Y28256D01*
G01X1082Y28241D01*
G01X1126Y28228D01*
G01X1170Y28216D01*
G01X1215Y28207D01*
G01X1260Y28200D01*
G01X1305Y28195D01*
G01X1351Y28192D01*
G01X1397Y28191D01*
G01X1442Y28192D01*
G01X1488Y28195D01*
G01X1533Y28200D01*
G01X1578Y28207D01*
G01X1623Y28216D01*
G01X1667Y28228D01*
G01X1711Y28241D01*
G01X1754Y28256D01*
G01X1797Y28273D01*
G01X1838Y28292D01*
G01X1879Y28313D01*
G01X1919Y28335D01*
G01X1958Y28359D01*
G01X1995Y28385D01*
G01X2032Y28413D01*
G01X2067Y28442D01*
G01X2100Y28473D01*
G01X2133Y28506D01*
G01X2164Y28539D01*
G01X2193Y28574D01*
G01X2221Y28611D01*
G01X2247Y28648D01*
G01X2271Y28687D01*
G01X2293Y28727D01*
G01X2314Y28768D01*
G01X2333Y28809D01*
G01X2350Y28852D01*
G01X2365Y28895D01*
G01X2378Y28939D01*
G01X2390Y28983D01*
G01X2399Y29028D01*
G01X2406Y29073D01*
G01X2411Y29118D01*
G01X2414Y29164D01*
G01X2415Y29210D01*
G01X2414Y29255D01*
G01X2411Y29301D01*
G01X2406Y29346D01*
G01X2399Y29391D01*
G01X2390Y29436D01*
G01X2378Y29480D01*
G01X2365Y29524D01*
G01X2350Y29567D01*
G01X2333Y29610D01*
G01X2314Y29651D01*
G01X2293Y29692D01*
G01X2271Y29732D01*
G01X2247Y29771D01*
G01X2221Y29808D01*
G01X2193Y29845D01*
G01X2164Y29880D01*
G01X2133Y29913D01*
G01X2100Y29946D01*
G01X2067Y29977D01*
G01X2032Y30006D01*
G01X1995Y30034D01*
G01X1958Y30060D01*
G01X1919Y30084D01*
G01X1879Y30106D01*
G01X1838Y30127D01*
G01X1797Y30146D01*
G01X1754Y30163D01*
G01X1711Y30178D01*
G01X1667Y30191D01*
G01X1623Y30203D01*
G01X1578Y30212D01*
G01X1533Y30219D01*
G01X1488Y30224D01*
G01X1442Y30227D01*
G37*
G36*
G01X24302Y9907D02*
G01X24257Y9908D01*
G01X24211Y9907D01*
G01X24165Y9904D01*
G01X24120Y9899D01*
G01X24075Y9892D01*
G01X24030Y9883D01*
G01X23986Y9871D01*
G01X23942Y9858D01*
G01X23899Y9843D01*
G01X23856Y9826D01*
G01X23815Y9807D01*
G01X23774Y9786D01*
G01X23734Y9764D01*
G01X23695Y9740D01*
G01X23658Y9714D01*
G01X23621Y9686D01*
G01X23586Y9657D01*
G01X23553Y9626D01*
G01X23520Y9593D01*
G01X23489Y9560D01*
G01X23460Y9525D01*
G01X23432Y9488D01*
G01X23406Y9451D01*
G01X23382Y9412D01*
G01X23360Y9372D01*
G01X23339Y9331D01*
G01X23320Y9290D01*
G01X23303Y9247D01*
G01X23288Y9204D01*
G01X23275Y9160D01*
G01X23263Y9116D01*
G01X23254Y9071D01*
G01X23247Y9026D01*
G01X23242Y8981D01*
G01X23239Y8935D01*
G01X23238Y8890D01*
G01X23239Y8844D01*
G01X23242Y8798D01*
G01X23247Y8753D01*
G01X23254Y8708D01*
G01X23263Y8663D01*
G01X23275Y8619D01*
G01X23288Y8575D01*
G01X23303Y8532D01*
G01X23320Y8489D01*
G01X23339Y8448D01*
G01X23360Y8407D01*
G01X23382Y8367D01*
G01X23406Y8328D01*
G01X23432Y8291D01*
G01X23460Y8254D01*
G01X23489Y8219D01*
G01X23520Y8186D01*
G01X23553Y8153D01*
G01X23586Y8122D01*
G01X23621Y8093D01*
G01X23658Y8065D01*
G01X23695Y8039D01*
G01X23734Y8015D01*
G01X23774Y7993D01*
G01X23815Y7972D01*
G01X23856Y7953D01*
G01X23899Y7936D01*
G01X23942Y7921D01*
G01X23986Y7908D01*
G01X24030Y7896D01*
G01X24075Y7887D01*
G01X24120Y7880D01*
G01X24165Y7875D01*
G01X24211Y7872D01*
G01X24257Y7871D01*
G01X24302Y7872D01*
G01X24348Y7875D01*
G01X24393Y7880D01*
G01X24438Y7887D01*
G01X24483Y7896D01*
G01X24527Y7908D01*
G01X24571Y7921D01*
G01X24614Y7936D01*
G01X24657Y7953D01*
G01X24698Y7972D01*
G01X24739Y7993D01*
G01X24779Y8015D01*
G01X24818Y8039D01*
G01X24855Y8065D01*
G01X24892Y8093D01*
G01X24927Y8122D01*
G01X24960Y8153D01*
G01X24993Y8186D01*
G01X25024Y8219D01*
G01X25053Y8254D01*
G01X25081Y8291D01*
G01X25107Y8328D01*
G01X25131Y8367D01*
G01X25153Y8407D01*
G01X25174Y8448D01*
G01X25193Y8489D01*
G01X25210Y8532D01*
G01X25225Y8575D01*
G01X25238Y8619D01*
G01X25250Y8663D01*
G01X25259Y8708D01*
G01X25266Y8753D01*
G01X25271Y8798D01*
G01X25274Y8844D01*
G01X25275Y8890D01*
G01X25274Y8935D01*
G01X25271Y8981D01*
G01X25266Y9026D01*
G01X25259Y9071D01*
G01X25250Y9116D01*
G01X25238Y9160D01*
G01X25225Y9204D01*
G01X25210Y9247D01*
G01X25193Y9290D01*
G01X25174Y9331D01*
G01X25153Y9372D01*
G01X25131Y9412D01*
G01X25107Y9451D01*
G01X25081Y9488D01*
G01X25053Y9525D01*
G01X25024Y9560D01*
G01X24993Y9593D01*
G01X24960Y9626D01*
G01X24927Y9657D01*
G01X24892Y9686D01*
G01X24855Y9714D01*
G01X24818Y9740D01*
G01X24779Y9764D01*
G01X24739Y9786D01*
G01X24698Y9807D01*
G01X24657Y9826D01*
G01X24614Y9843D01*
G01X24571Y9858D01*
G01X24527Y9871D01*
G01X24483Y9883D01*
G01X24438Y9892D01*
G01X24393Y9899D01*
G01X24348Y9904D01*
G01X24302Y9907D01*
G37*
G36*
G01X24302Y32767D02*
G01X24257Y32768D01*
G01X24211Y32767D01*
G01X24165Y32764D01*
G01X24120Y32759D01*
G01X24075Y32752D01*
G01X24030Y32743D01*
G01X23986Y32731D01*
G01X23942Y32718D01*
G01X23899Y32703D01*
G01X23856Y32686D01*
G01X23815Y32667D01*
G01X23774Y32646D01*
G01X23734Y32624D01*
G01X23695Y32600D01*
G01X23658Y32574D01*
G01X23621Y32546D01*
G01X23586Y32517D01*
G01X23553Y32486D01*
G01X23520Y32453D01*
G01X23489Y32420D01*
G01X23460Y32385D01*
G01X23432Y32348D01*
G01X23406Y32311D01*
G01X23382Y32272D01*
G01X23360Y32232D01*
G01X23339Y32191D01*
G01X23320Y32150D01*
G01X23303Y32107D01*
G01X23288Y32064D01*
G01X23275Y32020D01*
G01X23263Y31976D01*
G01X23254Y31931D01*
G01X23247Y31886D01*
G01X23242Y31841D01*
G01X23239Y31795D01*
G01X23238Y31750D01*
G01X23239Y31704D01*
G01X23242Y31658D01*
G01X23247Y31613D01*
G01X23254Y31568D01*
G01X23263Y31523D01*
G01X23275Y31479D01*
G01X23288Y31435D01*
G01X23303Y31392D01*
G01X23320Y31349D01*
G01X23339Y31308D01*
G01X23360Y31267D01*
G01X23382Y31227D01*
G01X23406Y31188D01*
G01X23432Y31151D01*
G01X23460Y31114D01*
G01X23489Y31079D01*
G01X23520Y31046D01*
G01X23553Y31013D01*
G01X23586Y30982D01*
G01X23621Y30953D01*
G01X23658Y30925D01*
G01X23695Y30899D01*
G01X23734Y30875D01*
G01X23774Y30853D01*
G01X23815Y30832D01*
G01X23856Y30813D01*
G01X23899Y30796D01*
G01X23942Y30781D01*
G01X23986Y30768D01*
G01X24030Y30756D01*
G01X24075Y30747D01*
G01X24120Y30740D01*
G01X24165Y30735D01*
G01X24211Y30732D01*
G01X24257Y30731D01*
G01X24302Y30732D01*
G01X24348Y30735D01*
G01X24393Y30740D01*
G01X24438Y30747D01*
G01X24483Y30756D01*
G01X24527Y30768D01*
G01X24571Y30781D01*
G01X24614Y30796D01*
G01X24657Y30813D01*
G01X24698Y30832D01*
G01X24739Y30853D01*
G01X24779Y30875D01*
G01X24818Y30899D01*
G01X24855Y30925D01*
G01X24892Y30953D01*
G01X24927Y30982D01*
G01X24960Y31013D01*
G01X24993Y31046D01*
G01X25024Y31079D01*
G01X25053Y31114D01*
G01X25081Y31151D01*
G01X25107Y31188D01*
G01X25131Y31227D01*
G01X25153Y31267D01*
G01X25174Y31308D01*
G01X25193Y31349D01*
G01X25210Y31392D01*
G01X25225Y31435D01*
G01X25238Y31479D01*
G01X25250Y31523D01*
G01X25259Y31568D01*
G01X25266Y31613D01*
G01X25271Y31658D01*
G01X25274Y31704D01*
G01X25275Y31750D01*
G01X25274Y31795D01*
G01X25271Y31841D01*
G01X25266Y31886D01*
G01X25259Y31931D01*
G01X25250Y31976D01*
G01X25238Y32020D01*
G01X25225Y32064D01*
G01X25210Y32107D01*
G01X25193Y32150D01*
G01X25174Y32191D01*
G01X25153Y32232D01*
G01X25131Y32272D01*
G01X25107Y32311D01*
G01X25081Y32348D01*
G01X25053Y32385D01*
G01X25024Y32420D01*
G01X24993Y32453D01*
G01X24960Y32486D01*
G01X24927Y32517D01*
G01X24892Y32546D01*
G01X24855Y32574D01*
G01X24818Y32600D01*
G01X24779Y32624D01*
G01X24739Y32646D01*
G01X24698Y32667D01*
G01X24657Y32686D01*
G01X24614Y32703D01*
G01X24571Y32718D01*
G01X24527Y32731D01*
G01X24483Y32743D01*
G01X24438Y32752D01*
G01X24393Y32759D01*
G01X24348Y32764D01*
G01X24302Y32767D01*
G37*
G36*
G01X1442Y32767D02*
G01X1397Y32768D01*
G01X1351Y32767D01*
G01X1305Y32764D01*
G01X1260Y32759D01*
G01X1215Y32752D01*
G01X1170Y32743D01*
G01X1126Y32731D01*
G01X1082Y32718D01*
G01X1039Y32703D01*
G01X996Y32686D01*
G01X955Y32667D01*
G01X914Y32646D01*
G01X874Y32624D01*
G01X835Y32600D01*
G01X798Y32574D01*
G01X761Y32546D01*
G01X726Y32517D01*
G01X693Y32486D01*
G01X660Y32453D01*
G01X629Y32420D01*
G01X600Y32385D01*
G01X572Y32348D01*
G01X546Y32311D01*
G01X522Y32272D01*
G01X500Y32232D01*
G01X479Y32191D01*
G01X460Y32150D01*
G01X443Y32107D01*
G01X428Y32064D01*
G01X415Y32020D01*
G01X403Y31976D01*
G01X394Y31931D01*
G01X387Y31886D01*
G01X382Y31841D01*
G01X379Y31795D01*
G01X378Y31750D01*
G01X379Y31704D01*
G01X382Y31658D01*
G01X387Y31613D01*
G01X394Y31568D01*
G01X403Y31523D01*
G01X415Y31479D01*
G01X428Y31435D01*
G01X443Y31392D01*
G01X460Y31349D01*
G01X479Y31308D01*
G01X500Y31267D01*
G01X522Y31227D01*
G01X546Y31188D01*
G01X572Y31151D01*
G01X600Y31114D01*
G01X629Y31079D01*
G01X660Y31046D01*
G01X693Y31013D01*
G01X726Y30982D01*
G01X761Y30953D01*
G01X798Y30925D01*
G01X835Y30899D01*
G01X874Y30875D01*
G01X914Y30853D01*
G01X955Y30832D01*
G01X996Y30813D01*
G01X1039Y30796D01*
G01X1082Y30781D01*
G01X1126Y30768D01*
G01X1170Y30756D01*
G01X1215Y30747D01*
G01X1260Y30740D01*
G01X1305Y30735D01*
G01X1351Y30732D01*
G01X1397Y30731D01*
G01X1442Y30732D01*
G01X1488Y30735D01*
G01X1533Y30740D01*
G01X1578Y30747D01*
G01X1623Y30756D01*
G01X1667Y30768D01*
G01X1711Y30781D01*
G01X1754Y30796D01*
G01X1797Y30813D01*
G01X1838Y30832D01*
G01X1879Y30853D01*
G01X1919Y30875D01*
G01X1958Y30899D01*
G01X1995Y30925D01*
G01X2032Y30953D01*
G01X2067Y30982D01*
G01X2100Y31013D01*
G01X2133Y31046D01*
G01X2164Y31079D01*
G01X2193Y31114D01*
G01X2221Y31151D01*
G01X2247Y31188D01*
G01X2271Y31227D01*
G01X2293Y31267D01*
G01X2314Y31308D01*
G01X2333Y31349D01*
G01X2350Y31392D01*
G01X2365Y31435D01*
G01X2378Y31479D01*
G01X2390Y31523D01*
G01X2399Y31568D01*
G01X2406Y31613D01*
G01X2411Y31658D01*
G01X2414Y31704D01*
G01X2415Y31750D01*
G01X2414Y31795D01*
G01X2411Y31841D01*
G01X2406Y31886D01*
G01X2399Y31931D01*
G01X2390Y31976D01*
G01X2378Y32020D01*
G01X2365Y32064D01*
G01X2350Y32107D01*
G01X2333Y32150D01*
G01X2314Y32191D01*
G01X2293Y32232D01*
G01X2271Y32272D01*
G01X2247Y32311D01*
G01X2221Y32348D01*
G01X2193Y32385D01*
G01X2164Y32420D01*
G01X2133Y32453D01*
G01X2100Y32486D01*
G01X2067Y32517D01*
G01X2032Y32546D01*
G01X1995Y32574D01*
G01X1958Y32600D01*
G01X1919Y32624D01*
G01X1879Y32646D01*
G01X1838Y32667D01*
G01X1797Y32686D01*
G01X1754Y32703D01*
G01X1711Y32718D01*
G01X1667Y32731D01*
G01X1623Y32743D01*
G01X1578Y32752D01*
G01X1533Y32759D01*
G01X1488Y32764D01*
G01X1442Y32767D01*
G37*
G36*
G01X24302Y35307D02*
G01X24257Y35308D01*
G01X24211Y35307D01*
G01X24165Y35304D01*
G01X24120Y35299D01*
G01X24075Y35292D01*
G01X24030Y35283D01*
G01X23986Y35271D01*
G01X23942Y35258D01*
G01X23899Y35243D01*
G01X23856Y35226D01*
G01X23815Y35207D01*
G01X23774Y35186D01*
G01X23734Y35164D01*
G01X23695Y35140D01*
G01X23658Y35114D01*
G01X23621Y35086D01*
G01X23586Y35057D01*
G01X23553Y35026D01*
G01X23520Y34993D01*
G01X23489Y34960D01*
G01X23460Y34925D01*
G01X23432Y34888D01*
G01X23406Y34851D01*
G01X23382Y34812D01*
G01X23360Y34772D01*
G01X23339Y34731D01*
G01X23320Y34690D01*
G01X23303Y34647D01*
G01X23288Y34604D01*
G01X23275Y34560D01*
G01X23263Y34516D01*
G01X23254Y34471D01*
G01X23247Y34426D01*
G01X23242Y34381D01*
G01X23239Y34335D01*
G01X23238Y34290D01*
G01X23239Y34244D01*
G01X23242Y34198D01*
G01X23247Y34153D01*
G01X23254Y34108D01*
G01X23263Y34063D01*
G01X23275Y34019D01*
G01X23288Y33975D01*
G01X23303Y33932D01*
G01X23320Y33889D01*
G01X23339Y33848D01*
G01X23360Y33807D01*
G01X23382Y33767D01*
G01X23406Y33728D01*
G01X23432Y33691D01*
G01X23460Y33654D01*
G01X23489Y33619D01*
G01X23520Y33586D01*
G01X23553Y33553D01*
G01X23586Y33522D01*
G01X23621Y33493D01*
G01X23658Y33465D01*
G01X23695Y33439D01*
G01X23734Y33415D01*
G01X23774Y33393D01*
G01X23815Y33372D01*
G01X23856Y33353D01*
G01X23899Y33336D01*
G01X23942Y33321D01*
G01X23986Y33308D01*
G01X24030Y33296D01*
G01X24075Y33287D01*
G01X24120Y33280D01*
G01X24165Y33275D01*
G01X24211Y33272D01*
G01X24257Y33271D01*
G01X24302Y33272D01*
G01X24348Y33275D01*
G01X24393Y33280D01*
G01X24438Y33287D01*
G01X24483Y33296D01*
G01X24527Y33308D01*
G01X24571Y33321D01*
G01X24614Y33336D01*
G01X24657Y33353D01*
G01X24698Y33372D01*
G01X24739Y33393D01*
G01X24779Y33415D01*
G01X24818Y33439D01*
G01X24855Y33465D01*
G01X24892Y33493D01*
G01X24927Y33522D01*
G01X24960Y33553D01*
G01X24993Y33586D01*
G01X25024Y33619D01*
G01X25053Y33654D01*
G01X25081Y33691D01*
G01X25107Y33728D01*
G01X25131Y33767D01*
G01X25153Y33807D01*
G01X25174Y33848D01*
G01X25193Y33889D01*
G01X25210Y33932D01*
G01X25225Y33975D01*
G01X25238Y34019D01*
G01X25250Y34063D01*
G01X25259Y34108D01*
G01X25266Y34153D01*
G01X25271Y34198D01*
G01X25274Y34244D01*
G01X25275Y34290D01*
G01X25274Y34335D01*
G01X25271Y34381D01*
G01X25266Y34426D01*
G01X25259Y34471D01*
G01X25250Y34516D01*
G01X25238Y34560D01*
G01X25225Y34604D01*
G01X25210Y34647D01*
G01X25193Y34690D01*
G01X25174Y34731D01*
G01X25153Y34772D01*
G01X25131Y34812D01*
G01X25107Y34851D01*
G01X25081Y34888D01*
G01X25053Y34925D01*
G01X25024Y34960D01*
G01X24993Y34993D01*
G01X24960Y35026D01*
G01X24927Y35057D01*
G01X24892Y35086D01*
G01X24855Y35114D01*
G01X24818Y35140D01*
G01X24779Y35164D01*
G01X24739Y35186D01*
G01X24698Y35207D01*
G01X24657Y35226D01*
G01X24614Y35243D01*
G01X24571Y35258D01*
G01X24527Y35271D01*
G01X24483Y35283D01*
G01X24438Y35292D01*
G01X24393Y35299D01*
G01X24348Y35304D01*
G01X24302Y35307D01*
G37*
G36*
G01X24302Y7367D02*
G01X24257Y7368D01*
G01X24211Y7367D01*
G01X24165Y7364D01*
G01X24120Y7359D01*
G01X24075Y7352D01*
G01X24030Y7343D01*
G01X23986Y7331D01*
G01X23942Y7318D01*
G01X23899Y7303D01*
G01X23856Y7286D01*
G01X23815Y7267D01*
G01X23774Y7246D01*
G01X23734Y7224D01*
G01X23695Y7200D01*
G01X23658Y7174D01*
G01X23621Y7146D01*
G01X23586Y7117D01*
G01X23553Y7086D01*
G01X23520Y7053D01*
G01X23489Y7020D01*
G01X23460Y6985D01*
G01X23432Y6948D01*
G01X23406Y6911D01*
G01X23382Y6872D01*
G01X23360Y6832D01*
G01X23339Y6791D01*
G01X23320Y6750D01*
G01X23303Y6707D01*
G01X23288Y6664D01*
G01X23275Y6620D01*
G01X23263Y6576D01*
G01X23254Y6531D01*
G01X23247Y6486D01*
G01X23242Y6441D01*
G01X23239Y6395D01*
G01X23238Y6350D01*
G01X23239Y6304D01*
G01X23242Y6258D01*
G01X23247Y6213D01*
G01X23254Y6168D01*
G01X23263Y6123D01*
G01X23275Y6079D01*
G01X23288Y6035D01*
G01X23303Y5992D01*
G01X23320Y5949D01*
G01X23339Y5908D01*
G01X23360Y5867D01*
G01X23382Y5827D01*
G01X23406Y5788D01*
G01X23432Y5751D01*
G01X23460Y5714D01*
G01X23489Y5679D01*
G01X23520Y5646D01*
G01X23553Y5613D01*
G01X23586Y5582D01*
G01X23621Y5553D01*
G01X23658Y5525D01*
G01X23695Y5499D01*
G01X23734Y5475D01*
G01X23774Y5453D01*
G01X23815Y5432D01*
G01X23856Y5413D01*
G01X23899Y5396D01*
G01X23942Y5381D01*
G01X23986Y5368D01*
G01X24030Y5356D01*
G01X24075Y5347D01*
G01X24120Y5340D01*
G01X24165Y5335D01*
G01X24211Y5332D01*
G01X24257Y5331D01*
G01X24302Y5332D01*
G01X24348Y5335D01*
G01X24393Y5340D01*
G01X24438Y5347D01*
G01X24483Y5356D01*
G01X24527Y5368D01*
G01X24571Y5381D01*
G01X24614Y5396D01*
G01X24657Y5413D01*
G01X24698Y5432D01*
G01X24739Y5453D01*
G01X24779Y5475D01*
G01X24818Y5499D01*
G01X24855Y5525D01*
G01X24892Y5553D01*
G01X24927Y5582D01*
G01X24960Y5613D01*
G01X24993Y5646D01*
G01X25024Y5679D01*
G01X25053Y5714D01*
G01X25081Y5751D01*
G01X25107Y5788D01*
G01X25131Y5827D01*
G01X25153Y5867D01*
G01X25174Y5908D01*
G01X25193Y5949D01*
G01X25210Y5992D01*
G01X25225Y6035D01*
G01X25238Y6079D01*
G01X25250Y6123D01*
G01X25259Y6168D01*
G01X25266Y6213D01*
G01X25271Y6258D01*
G01X25274Y6304D01*
G01X25275Y6350D01*
G01X25274Y6395D01*
G01X25271Y6441D01*
G01X25266Y6486D01*
G01X25259Y6531D01*
G01X25250Y6576D01*
G01X25238Y6620D01*
G01X25225Y6664D01*
G01X25210Y6707D01*
G01X25193Y6750D01*
G01X25174Y6791D01*
G01X25153Y6832D01*
G01X25131Y6872D01*
G01X25107Y6911D01*
G01X25081Y6948D01*
G01X25053Y6985D01*
G01X25024Y7020D01*
G01X24993Y7053D01*
G01X24960Y7086D01*
G01X24927Y7117D01*
G01X24892Y7146D01*
G01X24855Y7174D01*
G01X24818Y7200D01*
G01X24779Y7224D01*
G01X24739Y7246D01*
G01X24698Y7267D01*
G01X24657Y7286D01*
G01X24614Y7303D01*
G01X24571Y7318D01*
G01X24527Y7331D01*
G01X24483Y7343D01*
G01X24438Y7352D01*
G01X24393Y7359D01*
G01X24348Y7364D01*
G01X24302Y7367D01*
G37*
G36*
G01X24302Y37847D02*
G01X24257Y37848D01*
G01X24211Y37847D01*
G01X24165Y37844D01*
G01X24120Y37839D01*
G01X24075Y37832D01*
G01X24030Y37823D01*
G01X23986Y37811D01*
G01X23942Y37798D01*
G01X23899Y37783D01*
G01X23856Y37766D01*
G01X23815Y37747D01*
G01X23774Y37726D01*
G01X23734Y37704D01*
G01X23695Y37680D01*
G01X23658Y37654D01*
G01X23621Y37626D01*
G01X23586Y37597D01*
G01X23553Y37566D01*
G01X23520Y37533D01*
G01X23489Y37500D01*
G01X23460Y37465D01*
G01X23432Y37428D01*
G01X23406Y37391D01*
G01X23382Y37352D01*
G01X23360Y37312D01*
G01X23339Y37271D01*
G01X23320Y37230D01*
G01X23303Y37187D01*
G01X23288Y37144D01*
G01X23275Y37100D01*
G01X23263Y37056D01*
G01X23254Y37011D01*
G01X23247Y36966D01*
G01X23242Y36921D01*
G01X23239Y36875D01*
G01X23238Y36830D01*
G01X23239Y36784D01*
G01X23242Y36738D01*
G01X23247Y36693D01*
G01X23254Y36648D01*
G01X23263Y36603D01*
G01X23275Y36559D01*
G01X23288Y36515D01*
G01X23303Y36472D01*
G01X23320Y36429D01*
G01X23339Y36388D01*
G01X23360Y36347D01*
G01X23382Y36307D01*
G01X23406Y36268D01*
G01X23432Y36231D01*
G01X23460Y36194D01*
G01X23489Y36159D01*
G01X23520Y36126D01*
G01X23553Y36093D01*
G01X23586Y36062D01*
G01X23621Y36033D01*
G01X23658Y36005D01*
G01X23695Y35979D01*
G01X23734Y35955D01*
G01X23774Y35933D01*
G01X23815Y35912D01*
G01X23856Y35893D01*
G01X23899Y35876D01*
G01X23942Y35861D01*
G01X23986Y35848D01*
G01X24030Y35836D01*
G01X24075Y35827D01*
G01X24120Y35820D01*
G01X24165Y35815D01*
G01X24211Y35812D01*
G01X24257Y35811D01*
G01X24302Y35812D01*
G01X24348Y35815D01*
G01X24393Y35820D01*
G01X24438Y35827D01*
G01X24483Y35836D01*
G01X24527Y35848D01*
G01X24571Y35861D01*
G01X24614Y35876D01*
G01X24657Y35893D01*
G01X24698Y35912D01*
G01X24739Y35933D01*
G01X24779Y35955D01*
G01X24818Y35979D01*
G01X24855Y36005D01*
G01X24892Y36033D01*
G01X24927Y36062D01*
G01X24960Y36093D01*
G01X24993Y36126D01*
G01X25024Y36159D01*
G01X25053Y36194D01*
G01X25081Y36231D01*
G01X25107Y36268D01*
G01X25131Y36307D01*
G01X25153Y36347D01*
G01X25174Y36388D01*
G01X25193Y36429D01*
G01X25210Y36472D01*
G01X25225Y36515D01*
G01X25238Y36559D01*
G01X25250Y36603D01*
G01X25259Y36648D01*
G01X25266Y36693D01*
G01X25271Y36738D01*
G01X25274Y36784D01*
G01X25275Y36830D01*
G01X25274Y36875D01*
G01X25271Y36921D01*
G01X25266Y36966D01*
G01X25259Y37011D01*
G01X25250Y37056D01*
G01X25238Y37100D01*
G01X25225Y37144D01*
G01X25210Y37187D01*
G01X25193Y37230D01*
G01X25174Y37271D01*
G01X25153Y37312D01*
G01X25131Y37352D01*
G01X25107Y37391D01*
G01X25081Y37428D01*
G01X25053Y37465D01*
G01X25024Y37500D01*
G01X24993Y37533D01*
G01X24960Y37566D01*
G01X24927Y37597D01*
G01X24892Y37626D01*
G01X24855Y37654D01*
G01X24818Y37680D01*
G01X24779Y37704D01*
G01X24739Y37726D01*
G01X24698Y37747D01*
G01X24657Y37766D01*
G01X24614Y37783D01*
G01X24571Y37798D01*
G01X24527Y37811D01*
G01X24483Y37823D01*
G01X24438Y37832D01*
G01X24393Y37839D01*
G01X24348Y37844D01*
G01X24302Y37847D01*
G37*
G36*
G01X11602Y44705D02*
G01X11557Y44706D01*
G01X11511Y44705D01*
G01X11465Y44702D01*
G01X11420Y44697D01*
G01X11375Y44690D01*
G01X11330Y44681D01*
G01X11286Y44669D01*
G01X11242Y44656D01*
G01X11199Y44641D01*
G01X11156Y44624D01*
G01X11115Y44605D01*
G01X11074Y44584D01*
G01X11034Y44562D01*
G01X10995Y44538D01*
G01X10958Y44512D01*
G01X10921Y44484D01*
G01X10886Y44455D01*
G01X10853Y44424D01*
G01X10820Y44391D01*
G01X10789Y44358D01*
G01X10760Y44323D01*
G01X10732Y44286D01*
G01X10706Y44249D01*
G01X10682Y44210D01*
G01X10660Y44170D01*
G01X10639Y44129D01*
G01X10620Y44088D01*
G01X10603Y44045D01*
G01X10588Y44002D01*
G01X10575Y43958D01*
G01X10563Y43914D01*
G01X10554Y43869D01*
G01X10547Y43824D01*
G01X10542Y43779D01*
G01X10539Y43733D01*
G01X10538Y43688D01*
G01X10539Y43642D01*
G01X10542Y43596D01*
G01X10547Y43551D01*
G01X10554Y43506D01*
G01X10563Y43461D01*
G01X10575Y43417D01*
G01X10588Y43373D01*
G01X10603Y43330D01*
G01X10620Y43287D01*
G01X10639Y43246D01*
G01X10660Y43205D01*
G01X10682Y43165D01*
G01X10706Y43126D01*
G01X10732Y43089D01*
G01X10760Y43052D01*
G01X10789Y43017D01*
G01X10820Y42984D01*
G01X10853Y42951D01*
G01X10886Y42920D01*
G01X10921Y42891D01*
G01X10958Y42863D01*
G01X10995Y42837D01*
G01X11034Y42813D01*
G01X11074Y42791D01*
G01X11115Y42770D01*
G01X11156Y42751D01*
G01X11199Y42734D01*
G01X11242Y42719D01*
G01X11286Y42706D01*
G01X11330Y42694D01*
G01X11375Y42685D01*
G01X11420Y42678D01*
G01X11465Y42673D01*
G01X11511Y42670D01*
G01X11557Y42669D01*
G01X11602Y42670D01*
G01X11648Y42673D01*
G01X11693Y42678D01*
G01X11738Y42685D01*
G01X11783Y42694D01*
G01X11827Y42706D01*
G01X11871Y42719D01*
G01X11914Y42734D01*
G01X11957Y42751D01*
G01X11998Y42770D01*
G01X12039Y42791D01*
G01X12079Y42813D01*
G01X12118Y42837D01*
G01X12155Y42863D01*
G01X12192Y42891D01*
G01X12227Y42920D01*
G01X12260Y42951D01*
G01X12293Y42984D01*
G01X12324Y43017D01*
G01X12353Y43052D01*
G01X12381Y43089D01*
G01X12407Y43126D01*
G01X12431Y43165D01*
G01X12453Y43205D01*
G01X12474Y43246D01*
G01X12493Y43287D01*
G01X12510Y43330D01*
G01X12525Y43373D01*
G01X12538Y43417D01*
G01X12550Y43461D01*
G01X12559Y43506D01*
G01X12566Y43551D01*
G01X12571Y43596D01*
G01X12574Y43642D01*
G01X12575Y43688D01*
G01X12574Y43733D01*
G01X12571Y43779D01*
G01X12566Y43824D01*
G01X12559Y43869D01*
G01X12550Y43914D01*
G01X12538Y43958D01*
G01X12525Y44002D01*
G01X12510Y44045D01*
G01X12493Y44088D01*
G01X12474Y44129D01*
G01X12453Y44170D01*
G01X12431Y44210D01*
G01X12407Y44249D01*
G01X12381Y44286D01*
G01X12353Y44323D01*
G01X12324Y44358D01*
G01X12293Y44391D01*
G01X12260Y44424D01*
G01X12227Y44455D01*
G01X12192Y44484D01*
G01X12155Y44512D01*
G01X12118Y44538D01*
G01X12079Y44562D01*
G01X12039Y44584D01*
G01X11998Y44605D01*
G01X11957Y44624D01*
G01X11914Y44641D01*
G01X11871Y44656D01*
G01X11827Y44669D01*
G01X11783Y44681D01*
G01X11738Y44690D01*
G01X11693Y44697D01*
G01X11648Y44702D01*
G01X11602Y44705D01*
G37*
G36*
G01X14142Y42165D02*
G01X14097Y42166D01*
G01X14051Y42165D01*
G01X14005Y42162D01*
G01X13960Y42157D01*
G01X13915Y42150D01*
G01X13870Y42141D01*
G01X13826Y42129D01*
G01X13782Y42116D01*
G01X13739Y42101D01*
G01X13696Y42084D01*
G01X13655Y42065D01*
G01X13614Y42044D01*
G01X13574Y42022D01*
G01X13535Y41998D01*
G01X13498Y41972D01*
G01X13461Y41944D01*
G01X13426Y41915D01*
G01X13393Y41884D01*
G01X13360Y41851D01*
G01X13329Y41818D01*
G01X13300Y41783D01*
G01X13272Y41746D01*
G01X13246Y41709D01*
G01X13222Y41670D01*
G01X13200Y41630D01*
G01X13179Y41589D01*
G01X13160Y41548D01*
G01X13143Y41505D01*
G01X13128Y41462D01*
G01X13115Y41418D01*
G01X13103Y41374D01*
G01X13094Y41329D01*
G01X13087Y41284D01*
G01X13082Y41239D01*
G01X13079Y41193D01*
G01X13078Y41148D01*
G01X13079Y41102D01*
G01X13082Y41056D01*
G01X13087Y41011D01*
G01X13094Y40966D01*
G01X13103Y40921D01*
G01X13115Y40877D01*
G01X13128Y40833D01*
G01X13143Y40790D01*
G01X13160Y40747D01*
G01X13179Y40706D01*
G01X13200Y40665D01*
G01X13222Y40625D01*
G01X13246Y40586D01*
G01X13272Y40549D01*
G01X13300Y40512D01*
G01X13329Y40477D01*
G01X13360Y40444D01*
G01X13393Y40411D01*
G01X13426Y40380D01*
G01X13461Y40351D01*
G01X13498Y40323D01*
G01X13535Y40297D01*
G01X13574Y40273D01*
G01X13614Y40251D01*
G01X13655Y40230D01*
G01X13696Y40211D01*
G01X13739Y40194D01*
G01X13782Y40179D01*
G01X13826Y40166D01*
G01X13870Y40154D01*
G01X13915Y40145D01*
G01X13960Y40138D01*
G01X14005Y40133D01*
G01X14051Y40130D01*
G01X14097Y40129D01*
G01X14142Y40130D01*
G01X14188Y40133D01*
G01X14233Y40138D01*
G01X14278Y40145D01*
G01X14323Y40154D01*
G01X14367Y40166D01*
G01X14411Y40179D01*
G01X14454Y40194D01*
G01X14497Y40211D01*
G01X14538Y40230D01*
G01X14579Y40251D01*
G01X14619Y40273D01*
G01X14658Y40297D01*
G01X14695Y40323D01*
G01X14732Y40351D01*
G01X14767Y40380D01*
G01X14800Y40411D01*
G01X14833Y40444D01*
G01X14864Y40477D01*
G01X14893Y40512D01*
G01X14921Y40549D01*
G01X14947Y40586D01*
G01X14971Y40625D01*
G01X14993Y40665D01*
G01X15014Y40706D01*
G01X15033Y40747D01*
G01X15050Y40790D01*
G01X15065Y40833D01*
G01X15078Y40877D01*
G01X15090Y40921D01*
G01X15099Y40966D01*
G01X15106Y41011D01*
G01X15111Y41056D01*
G01X15114Y41102D01*
G01X15115Y41148D01*
G01X15114Y41193D01*
G01X15111Y41239D01*
G01X15106Y41284D01*
G01X15099Y41329D01*
G01X15090Y41374D01*
G01X15078Y41418D01*
G01X15065Y41462D01*
G01X15050Y41505D01*
G01X15033Y41548D01*
G01X15014Y41589D01*
G01X14993Y41630D01*
G01X14971Y41670D01*
G01X14947Y41709D01*
G01X14921Y41746D01*
G01X14893Y41783D01*
G01X14864Y41818D01*
G01X14833Y41851D01*
G01X14800Y41884D01*
G01X14767Y41915D01*
G01X14732Y41944D01*
G01X14695Y41972D01*
G01X14658Y41998D01*
G01X14619Y42022D01*
G01X14579Y42044D01*
G01X14538Y42065D01*
G01X14497Y42084D01*
G01X14454Y42101D01*
G01X14411Y42116D01*
G01X14367Y42129D01*
G01X14323Y42141D01*
G01X14278Y42150D01*
G01X14233Y42157D01*
G01X14188Y42162D01*
G01X14142Y42165D01*
G37*
G36*
G01X11602Y42165D02*
G01X11557Y42166D01*
G01X11511Y42165D01*
G01X11465Y42162D01*
G01X11420Y42157D01*
G01X11375Y42150D01*
G01X11330Y42141D01*
G01X11286Y42129D01*
G01X11242Y42116D01*
G01X11199Y42101D01*
G01X11156Y42084D01*
G01X11115Y42065D01*
G01X11074Y42044D01*
G01X11034Y42022D01*
G01X10995Y41998D01*
G01X10958Y41972D01*
G01X10921Y41944D01*
G01X10886Y41915D01*
G01X10853Y41884D01*
G01X10820Y41851D01*
G01X10789Y41818D01*
G01X10760Y41783D01*
G01X10732Y41746D01*
G01X10706Y41709D01*
G01X10682Y41670D01*
G01X10660Y41630D01*
G01X10639Y41589D01*
G01X10620Y41548D01*
G01X10603Y41505D01*
G01X10588Y41462D01*
G01X10575Y41418D01*
G01X10563Y41374D01*
G01X10554Y41329D01*
G01X10547Y41284D01*
G01X10542Y41239D01*
G01X10539Y41193D01*
G01X10538Y41148D01*
G01X10539Y41102D01*
G01X10542Y41056D01*
G01X10547Y41011D01*
G01X10554Y40966D01*
G01X10563Y40921D01*
G01X10575Y40877D01*
G01X10588Y40833D01*
G01X10603Y40790D01*
G01X10620Y40747D01*
G01X10639Y40706D01*
G01X10660Y40665D01*
G01X10682Y40625D01*
G01X10706Y40586D01*
G01X10732Y40549D01*
G01X10760Y40512D01*
G01X10789Y40477D01*
G01X10820Y40444D01*
G01X10853Y40411D01*
G01X10886Y40380D01*
G01X10921Y40351D01*
G01X10958Y40323D01*
G01X10995Y40297D01*
G01X11034Y40273D01*
G01X11074Y40251D01*
G01X11115Y40230D01*
G01X11156Y40211D01*
G01X11199Y40194D01*
G01X11242Y40179D01*
G01X11286Y40166D01*
G01X11330Y40154D01*
G01X11375Y40145D01*
G01X11420Y40138D01*
G01X11465Y40133D01*
G01X11511Y40130D01*
G01X11557Y40129D01*
G01X11602Y40130D01*
G01X11648Y40133D01*
G01X11693Y40138D01*
G01X11738Y40145D01*
G01X11783Y40154D01*
G01X11827Y40166D01*
G01X11871Y40179D01*
G01X11914Y40194D01*
G01X11957Y40211D01*
G01X11998Y40230D01*
G01X12039Y40251D01*
G01X12079Y40273D01*
G01X12118Y40297D01*
G01X12155Y40323D01*
G01X12192Y40351D01*
G01X12227Y40380D01*
G01X12260Y40411D01*
G01X12293Y40444D01*
G01X12324Y40477D01*
G01X12353Y40512D01*
G01X12381Y40549D01*
G01X12407Y40586D01*
G01X12431Y40625D01*
G01X12453Y40665D01*
G01X12474Y40706D01*
G01X12493Y40747D01*
G01X12510Y40790D01*
G01X12525Y40833D01*
G01X12538Y40877D01*
G01X12550Y40921D01*
G01X12559Y40966D01*
G01X12566Y41011D01*
G01X12571Y41056D01*
G01X12574Y41102D01*
G01X12575Y41148D01*
G01X12574Y41193D01*
G01X12571Y41239D01*
G01X12566Y41284D01*
G01X12559Y41329D01*
G01X12550Y41374D01*
G01X12538Y41418D01*
G01X12525Y41462D01*
G01X12510Y41505D01*
G01X12493Y41548D01*
G01X12474Y41589D01*
G01X12453Y41630D01*
G01X12431Y41670D01*
G01X12407Y41709D01*
G01X12381Y41746D01*
G01X12353Y41783D01*
G01X12324Y41818D01*
G01X12293Y41851D01*
G01X12260Y41884D01*
G01X12227Y41915D01*
G01X12192Y41944D01*
G01X12155Y41972D01*
G01X12118Y41998D01*
G01X12079Y42022D01*
G01X12039Y42044D01*
G01X11998Y42065D01*
G01X11957Y42084D01*
G01X11914Y42101D01*
G01X11871Y42116D01*
G01X11827Y42129D01*
G01X11783Y42141D01*
G01X11738Y42150D01*
G01X11693Y42157D01*
G01X11648Y42162D01*
G01X11602Y42165D01*
G37*
G36*
G01X14142Y44705D02*
G01X14097Y44706D01*
G01X14051Y44705D01*
G01X14005Y44702D01*
G01X13960Y44697D01*
G01X13915Y44690D01*
G01X13870Y44681D01*
G01X13826Y44669D01*
G01X13782Y44656D01*
G01X13739Y44641D01*
G01X13696Y44624D01*
G01X13655Y44605D01*
G01X13614Y44584D01*
G01X13574Y44562D01*
G01X13535Y44538D01*
G01X13498Y44512D01*
G01X13461Y44484D01*
G01X13426Y44455D01*
G01X13393Y44424D01*
G01X13360Y44391D01*
G01X13329Y44358D01*
G01X13300Y44323D01*
G01X13272Y44286D01*
G01X13246Y44249D01*
G01X13222Y44210D01*
G01X13200Y44170D01*
G01X13179Y44129D01*
G01X13160Y44088D01*
G01X13143Y44045D01*
G01X13128Y44002D01*
G01X13115Y43958D01*
G01X13103Y43914D01*
G01X13094Y43869D01*
G01X13087Y43824D01*
G01X13082Y43779D01*
G01X13079Y43733D01*
G01X13078Y43688D01*
G01X13079Y43642D01*
G01X13082Y43596D01*
G01X13087Y43551D01*
G01X13094Y43506D01*
G01X13103Y43461D01*
G01X13115Y43417D01*
G01X13128Y43373D01*
G01X13143Y43330D01*
G01X13160Y43287D01*
G01X13179Y43246D01*
G01X13200Y43205D01*
G01X13222Y43165D01*
G01X13246Y43126D01*
G01X13272Y43089D01*
G01X13300Y43052D01*
G01X13329Y43017D01*
G01X13360Y42984D01*
G01X13393Y42951D01*
G01X13426Y42920D01*
G01X13461Y42891D01*
G01X13498Y42863D01*
G01X13535Y42837D01*
G01X13574Y42813D01*
G01X13614Y42791D01*
G01X13655Y42770D01*
G01X13696Y42751D01*
G01X13739Y42734D01*
G01X13782Y42719D01*
G01X13826Y42706D01*
G01X13870Y42694D01*
G01X13915Y42685D01*
G01X13960Y42678D01*
G01X14005Y42673D01*
G01X14051Y42670D01*
G01X14097Y42669D01*
G01X14142Y42670D01*
G01X14188Y42673D01*
G01X14233Y42678D01*
G01X14278Y42685D01*
G01X14323Y42694D01*
G01X14367Y42706D01*
G01X14411Y42719D01*
G01X14454Y42734D01*
G01X14497Y42751D01*
G01X14538Y42770D01*
G01X14579Y42791D01*
G01X14619Y42813D01*
G01X14658Y42837D01*
G01X14695Y42863D01*
G01X14732Y42891D01*
G01X14767Y42920D01*
G01X14800Y42951D01*
G01X14833Y42984D01*
G01X14864Y43017D01*
G01X14893Y43052D01*
G01X14921Y43089D01*
G01X14947Y43126D01*
G01X14971Y43165D01*
G01X14993Y43205D01*
G01X15014Y43246D01*
G01X15033Y43287D01*
G01X15050Y43330D01*
G01X15065Y43373D01*
G01X15078Y43417D01*
G01X15090Y43461D01*
G01X15099Y43506D01*
G01X15106Y43551D01*
G01X15111Y43596D01*
G01X15114Y43642D01*
G01X15115Y43688D01*
G01X15114Y43733D01*
G01X15111Y43779D01*
G01X15106Y43824D01*
G01X15099Y43869D01*
G01X15090Y43914D01*
G01X15078Y43958D01*
G01X15065Y44002D01*
G01X15050Y44045D01*
G01X15033Y44088D01*
G01X15014Y44129D01*
G01X14993Y44170D01*
G01X14971Y44210D01*
G01X14947Y44249D01*
G01X14921Y44286D01*
G01X14893Y44323D01*
G01X14864Y44358D01*
G01X14833Y44391D01*
G01X14800Y44424D01*
G01X14767Y44455D01*
G01X14732Y44484D01*
G01X14695Y44512D01*
G01X14658Y44538D01*
G01X14619Y44562D01*
G01X14579Y44584D01*
G01X14538Y44605D01*
G01X14497Y44624D01*
G01X14454Y44641D01*
G01X14411Y44656D01*
G01X14367Y44669D01*
G01X14323Y44681D01*
G01X14278Y44690D01*
G01X14233Y44697D01*
G01X14188Y44702D01*
G01X14142Y44705D01*
G37*
G36*
G01X9062Y42165D02*
G01X9017Y42166D01*
G01X8971Y42165D01*
G01X8925Y42162D01*
G01X8880Y42157D01*
G01X8835Y42150D01*
G01X8790Y42141D01*
G01X8746Y42129D01*
G01X8702Y42116D01*
G01X8659Y42101D01*
G01X8616Y42084D01*
G01X8575Y42065D01*
G01X8534Y42044D01*
G01X8494Y42022D01*
G01X8455Y41998D01*
G01X8418Y41972D01*
G01X8381Y41944D01*
G01X8346Y41915D01*
G01X8313Y41884D01*
G01X8280Y41851D01*
G01X8249Y41818D01*
G01X8220Y41783D01*
G01X8192Y41746D01*
G01X8166Y41709D01*
G01X8142Y41670D01*
G01X8120Y41630D01*
G01X8099Y41589D01*
G01X8080Y41548D01*
G01X8063Y41505D01*
G01X8048Y41462D01*
G01X8035Y41418D01*
G01X8023Y41374D01*
G01X8014Y41329D01*
G01X8007Y41284D01*
G01X8002Y41239D01*
G01X7999Y41193D01*
G01X7998Y41148D01*
G01X7999Y41102D01*
G01X8002Y41056D01*
G01X8007Y41011D01*
G01X8014Y40966D01*
G01X8023Y40921D01*
G01X8035Y40877D01*
G01X8048Y40833D01*
G01X8063Y40790D01*
G01X8080Y40747D01*
G01X8099Y40706D01*
G01X8120Y40665D01*
G01X8142Y40625D01*
G01X8166Y40586D01*
G01X8192Y40549D01*
G01X8220Y40512D01*
G01X8249Y40477D01*
G01X8280Y40444D01*
G01X8313Y40411D01*
G01X8346Y40380D01*
G01X8381Y40351D01*
G01X8418Y40323D01*
G01X8455Y40297D01*
G01X8494Y40273D01*
G01X8534Y40251D01*
G01X8575Y40230D01*
G01X8616Y40211D01*
G01X8659Y40194D01*
G01X8702Y40179D01*
G01X8746Y40166D01*
G01X8790Y40154D01*
G01X8835Y40145D01*
G01X8880Y40138D01*
G01X8925Y40133D01*
G01X8971Y40130D01*
G01X9017Y40129D01*
G01X9062Y40130D01*
G01X9108Y40133D01*
G01X9153Y40138D01*
G01X9198Y40145D01*
G01X9243Y40154D01*
G01X9287Y40166D01*
G01X9331Y40179D01*
G01X9374Y40194D01*
G01X9417Y40211D01*
G01X9458Y40230D01*
G01X9499Y40251D01*
G01X9539Y40273D01*
G01X9578Y40297D01*
G01X9615Y40323D01*
G01X9652Y40351D01*
G01X9687Y40380D01*
G01X9720Y40411D01*
G01X9753Y40444D01*
G01X9784Y40477D01*
G01X9813Y40512D01*
G01X9841Y40549D01*
G01X9867Y40586D01*
G01X9891Y40625D01*
G01X9913Y40665D01*
G01X9934Y40706D01*
G01X9953Y40747D01*
G01X9970Y40790D01*
G01X9985Y40833D01*
G01X9998Y40877D01*
G01X10010Y40921D01*
G01X10019Y40966D01*
G01X10026Y41011D01*
G01X10031Y41056D01*
G01X10034Y41102D01*
G01X10035Y41148D01*
G01X10034Y41193D01*
G01X10031Y41239D01*
G01X10026Y41284D01*
G01X10019Y41329D01*
G01X10010Y41374D01*
G01X9998Y41418D01*
G01X9985Y41462D01*
G01X9970Y41505D01*
G01X9953Y41548D01*
G01X9934Y41589D01*
G01X9913Y41630D01*
G01X9891Y41670D01*
G01X9867Y41709D01*
G01X9841Y41746D01*
G01X9813Y41783D01*
G01X9784Y41818D01*
G01X9753Y41851D01*
G01X9720Y41884D01*
G01X9687Y41915D01*
G01X9652Y41944D01*
G01X9615Y41972D01*
G01X9578Y41998D01*
G01X9539Y42022D01*
G01X9499Y42044D01*
G01X9458Y42065D01*
G01X9417Y42084D01*
G01X9374Y42101D01*
G01X9331Y42116D01*
G01X9287Y42129D01*
G01X9243Y42141D01*
G01X9198Y42150D01*
G01X9153Y42157D01*
G01X9108Y42162D01*
G01X9062Y42165D01*
G37*
G36*
G01X16682Y42165D02*
G01X16637Y42166D01*
G01X16591Y42165D01*
G01X16545Y42162D01*
G01X16500Y42157D01*
G01X16455Y42150D01*
G01X16410Y42141D01*
G01X16366Y42129D01*
G01X16322Y42116D01*
G01X16279Y42101D01*
G01X16236Y42084D01*
G01X16195Y42065D01*
G01X16154Y42044D01*
G01X16114Y42022D01*
G01X16075Y41998D01*
G01X16038Y41972D01*
G01X16001Y41944D01*
G01X15966Y41915D01*
G01X15933Y41884D01*
G01X15900Y41851D01*
G01X15869Y41818D01*
G01X15840Y41783D01*
G01X15812Y41746D01*
G01X15786Y41709D01*
G01X15762Y41670D01*
G01X15740Y41630D01*
G01X15719Y41589D01*
G01X15700Y41548D01*
G01X15683Y41505D01*
G01X15668Y41462D01*
G01X15655Y41418D01*
G01X15643Y41374D01*
G01X15634Y41329D01*
G01X15627Y41284D01*
G01X15622Y41239D01*
G01X15619Y41193D01*
G01X15618Y41148D01*
G01X15619Y41102D01*
G01X15622Y41056D01*
G01X15627Y41011D01*
G01X15634Y40966D01*
G01X15643Y40921D01*
G01X15655Y40877D01*
G01X15668Y40833D01*
G01X15683Y40790D01*
G01X15700Y40747D01*
G01X15719Y40706D01*
G01X15740Y40665D01*
G01X15762Y40625D01*
G01X15786Y40586D01*
G01X15812Y40549D01*
G01X15840Y40512D01*
G01X15869Y40477D01*
G01X15900Y40444D01*
G01X15933Y40411D01*
G01X15966Y40380D01*
G01X16001Y40351D01*
G01X16038Y40323D01*
G01X16075Y40297D01*
G01X16114Y40273D01*
G01X16154Y40251D01*
G01X16195Y40230D01*
G01X16236Y40211D01*
G01X16279Y40194D01*
G01X16322Y40179D01*
G01X16366Y40166D01*
G01X16410Y40154D01*
G01X16455Y40145D01*
G01X16500Y40138D01*
G01X16545Y40133D01*
G01X16591Y40130D01*
G01X16637Y40129D01*
G01X16682Y40130D01*
G01X16728Y40133D01*
G01X16773Y40138D01*
G01X16818Y40145D01*
G01X16863Y40154D01*
G01X16907Y40166D01*
G01X16951Y40179D01*
G01X16994Y40194D01*
G01X17037Y40211D01*
G01X17078Y40230D01*
G01X17119Y40251D01*
G01X17159Y40273D01*
G01X17198Y40297D01*
G01X17235Y40323D01*
G01X17272Y40351D01*
G01X17307Y40380D01*
G01X17340Y40411D01*
G01X17373Y40444D01*
G01X17404Y40477D01*
G01X17433Y40512D01*
G01X17461Y40549D01*
G01X17487Y40586D01*
G01X17511Y40625D01*
G01X17533Y40665D01*
G01X17554Y40706D01*
G01X17573Y40747D01*
G01X17590Y40790D01*
G01X17605Y40833D01*
G01X17618Y40877D01*
G01X17630Y40921D01*
G01X17639Y40966D01*
G01X17646Y41011D01*
G01X17651Y41056D01*
G01X17654Y41102D01*
G01X17655Y41148D01*
G01X17654Y41193D01*
G01X17651Y41239D01*
G01X17646Y41284D01*
G01X17639Y41329D01*
G01X17630Y41374D01*
G01X17618Y41418D01*
G01X17605Y41462D01*
G01X17590Y41505D01*
G01X17573Y41548D01*
G01X17554Y41589D01*
G01X17533Y41630D01*
G01X17511Y41670D01*
G01X17487Y41709D01*
G01X17461Y41746D01*
G01X17433Y41783D01*
G01X17404Y41818D01*
G01X17373Y41851D01*
G01X17340Y41884D01*
G01X17307Y41915D01*
G01X17272Y41944D01*
G01X17235Y41972D01*
G01X17198Y41998D01*
G01X17159Y42022D01*
G01X17119Y42044D01*
G01X17078Y42065D01*
G01X17037Y42084D01*
G01X16994Y42101D01*
G01X16951Y42116D01*
G01X16907Y42129D01*
G01X16863Y42141D01*
G01X16818Y42150D01*
G01X16773Y42157D01*
G01X16728Y42162D01*
G01X16682Y42165D01*
G37*
G36*
G01X24302Y42927D02*
G01X24257Y42928D01*
G01X24211Y42927D01*
G01X24165Y42924D01*
G01X24120Y42919D01*
G01X24075Y42912D01*
G01X24030Y42903D01*
G01X23986Y42891D01*
G01X23942Y42878D01*
G01X23899Y42863D01*
G01X23856Y42846D01*
G01X23815Y42827D01*
G01X23774Y42806D01*
G01X23734Y42784D01*
G01X23695Y42760D01*
G01X23658Y42734D01*
G01X23621Y42706D01*
G01X23586Y42677D01*
G01X23553Y42646D01*
G01X23520Y42613D01*
G01X23489Y42580D01*
G01X23460Y42545D01*
G01X23432Y42508D01*
G01X23406Y42471D01*
G01X23382Y42432D01*
G01X23360Y42392D01*
G01X23339Y42351D01*
G01X23320Y42310D01*
G01X23303Y42267D01*
G01X23288Y42224D01*
G01X23275Y42180D01*
G01X23263Y42136D01*
G01X23254Y42091D01*
G01X23247Y42046D01*
G01X23242Y42001D01*
G01X23239Y41955D01*
G01X23238Y41910D01*
G01X23239Y41864D01*
G01X23242Y41818D01*
G01X23247Y41773D01*
G01X23254Y41728D01*
G01X23263Y41683D01*
G01X23275Y41639D01*
G01X23288Y41595D01*
G01X23303Y41552D01*
G01X23320Y41509D01*
G01X23339Y41468D01*
G01X23360Y41427D01*
G01X23382Y41387D01*
G01X23406Y41348D01*
G01X23432Y41311D01*
G01X23460Y41274D01*
G01X23489Y41239D01*
G01X23520Y41206D01*
G01X23553Y41173D01*
G01X23586Y41142D01*
G01X23621Y41113D01*
G01X23658Y41085D01*
G01X23695Y41059D01*
G01X23734Y41035D01*
G01X23774Y41013D01*
G01X23815Y40992D01*
G01X23856Y40973D01*
G01X23899Y40956D01*
G01X23942Y40941D01*
G01X23986Y40928D01*
G01X24030Y40916D01*
G01X24075Y40907D01*
G01X24120Y40900D01*
G01X24165Y40895D01*
G01X24211Y40892D01*
G01X24257Y40891D01*
G01X24302Y40892D01*
G01X24348Y40895D01*
G01X24393Y40900D01*
G01X24438Y40907D01*
G01X24483Y40916D01*
G01X24527Y40928D01*
G01X24571Y40941D01*
G01X24614Y40956D01*
G01X24657Y40973D01*
G01X24698Y40992D01*
G01X24739Y41013D01*
G01X24779Y41035D01*
G01X24818Y41059D01*
G01X24855Y41085D01*
G01X24892Y41113D01*
G01X24927Y41142D01*
G01X24960Y41173D01*
G01X24993Y41206D01*
G01X25024Y41239D01*
G01X25053Y41274D01*
G01X25081Y41311D01*
G01X25107Y41348D01*
G01X25131Y41387D01*
G01X25153Y41427D01*
G01X25174Y41468D01*
G01X25193Y41509D01*
G01X25210Y41552D01*
G01X25225Y41595D01*
G01X25238Y41639D01*
G01X25250Y41683D01*
G01X25259Y41728D01*
G01X25266Y41773D01*
G01X25271Y41818D01*
G01X25274Y41864D01*
G01X25275Y41910D01*
G01X25274Y41955D01*
G01X25271Y42001D01*
G01X25266Y42046D01*
G01X25259Y42091D01*
G01X25250Y42136D01*
G01X25238Y42180D01*
G01X25225Y42224D01*
G01X25210Y42267D01*
G01X25193Y42310D01*
G01X25174Y42351D01*
G01X25153Y42392D01*
G01X25131Y42432D01*
G01X25107Y42471D01*
G01X25081Y42508D01*
G01X25053Y42545D01*
G01X25024Y42580D01*
G01X24993Y42613D01*
G01X24960Y42646D01*
G01X24927Y42677D01*
G01X24892Y42706D01*
G01X24855Y42734D01*
G01X24818Y42760D01*
G01X24779Y42784D01*
G01X24739Y42806D01*
G01X24698Y42827D01*
G01X24657Y42846D01*
G01X24614Y42863D01*
G01X24571Y42878D01*
G01X24527Y42891D01*
G01X24483Y42903D01*
G01X24438Y42912D01*
G01X24393Y42919D01*
G01X24348Y42924D01*
G01X24302Y42927D01*
G37*
G36*
G01X9062Y44705D02*
G01X9017Y44706D01*
G01X8971Y44705D01*
G01X8925Y44702D01*
G01X8880Y44697D01*
G01X8835Y44690D01*
G01X8790Y44681D01*
G01X8746Y44669D01*
G01X8702Y44656D01*
G01X8659Y44641D01*
G01X8616Y44624D01*
G01X8575Y44605D01*
G01X8534Y44584D01*
G01X8494Y44562D01*
G01X8455Y44538D01*
G01X8418Y44512D01*
G01X8381Y44484D01*
G01X8346Y44455D01*
G01X8313Y44424D01*
G01X8280Y44391D01*
G01X8249Y44358D01*
G01X8220Y44323D01*
G01X8192Y44286D01*
G01X8166Y44249D01*
G01X8142Y44210D01*
G01X8120Y44170D01*
G01X8099Y44129D01*
G01X8080Y44088D01*
G01X8063Y44045D01*
G01X8048Y44002D01*
G01X8035Y43958D01*
G01X8023Y43914D01*
G01X8014Y43869D01*
G01X8007Y43824D01*
G01X8002Y43779D01*
G01X7999Y43733D01*
G01X7998Y43688D01*
G01X7999Y43642D01*
G01X8002Y43596D01*
G01X8007Y43551D01*
G01X8014Y43506D01*
G01X8023Y43461D01*
G01X8035Y43417D01*
G01X8048Y43373D01*
G01X8063Y43330D01*
G01X8080Y43287D01*
G01X8099Y43246D01*
G01X8120Y43205D01*
G01X8142Y43165D01*
G01X8166Y43126D01*
G01X8192Y43089D01*
G01X8220Y43052D01*
G01X8249Y43017D01*
G01X8280Y42984D01*
G01X8313Y42951D01*
G01X8346Y42920D01*
G01X8381Y42891D01*
G01X8418Y42863D01*
G01X8455Y42837D01*
G01X8494Y42813D01*
G01X8534Y42791D01*
G01X8575Y42770D01*
G01X8616Y42751D01*
G01X8659Y42734D01*
G01X8702Y42719D01*
G01X8746Y42706D01*
G01X8790Y42694D01*
G01X8835Y42685D01*
G01X8880Y42678D01*
G01X8925Y42673D01*
G01X8971Y42670D01*
G01X9017Y42669D01*
G01X9062Y42670D01*
G01X9108Y42673D01*
G01X9153Y42678D01*
G01X9198Y42685D01*
G01X9243Y42694D01*
G01X9287Y42706D01*
G01X9331Y42719D01*
G01X9374Y42734D01*
G01X9417Y42751D01*
G01X9458Y42770D01*
G01X9499Y42791D01*
G01X9539Y42813D01*
G01X9578Y42837D01*
G01X9615Y42863D01*
G01X9652Y42891D01*
G01X9687Y42920D01*
G01X9720Y42951D01*
G01X9753Y42984D01*
G01X9784Y43017D01*
G01X9813Y43052D01*
G01X9841Y43089D01*
G01X9867Y43126D01*
G01X9891Y43165D01*
G01X9913Y43205D01*
G01X9934Y43246D01*
G01X9953Y43287D01*
G01X9970Y43330D01*
G01X9985Y43373D01*
G01X9998Y43417D01*
G01X10010Y43461D01*
G01X10019Y43506D01*
G01X10026Y43551D01*
G01X10031Y43596D01*
G01X10034Y43642D01*
G01X10035Y43688D01*
G01X10034Y43733D01*
G01X10031Y43779D01*
G01X10026Y43824D01*
G01X10019Y43869D01*
G01X10010Y43914D01*
G01X9998Y43958D01*
G01X9985Y44002D01*
G01X9970Y44045D01*
G01X9953Y44088D01*
G01X9934Y44129D01*
G01X9913Y44170D01*
G01X9891Y44210D01*
G01X9867Y44249D01*
G01X9841Y44286D01*
G01X9813Y44323D01*
G01X9784Y44358D01*
G01X9753Y44391D01*
G01X9720Y44424D01*
G01X9687Y44455D01*
G01X9652Y44484D01*
G01X9615Y44512D01*
G01X9578Y44538D01*
G01X9539Y44562D01*
G01X9499Y44584D01*
G01X9458Y44605D01*
G01X9417Y44624D01*
G01X9374Y44641D01*
G01X9331Y44656D01*
G01X9287Y44669D01*
G01X9243Y44681D01*
G01X9198Y44690D01*
G01X9153Y44697D01*
G01X9108Y44702D01*
G01X9062Y44705D01*
G37*
G36*
G01X16192Y44132D02*
G01X16192Y44604D01*
G01X16149Y44582D01*
G01X16107Y44557D01*
G01X16066Y44531D01*
G01X16026Y44503D01*
G01X15988Y44473D01*
G01X15951Y44441D01*
G01X15916Y44408D01*
G01X15883Y44373D01*
G01X15851Y44336D01*
G01X15821Y44298D01*
G01X15793Y44258D01*
G01X15767Y44217D01*
G01X15742Y44175D01*
G01X15720Y44132D01*
G01X16192Y44132D01*
G37*
G36*
G01X17553Y43243D02*
G01X17081Y43243D01*
G01X17081Y42771D01*
G01X17124Y42793D01*
G01X17166Y42818D01*
G01X17207Y42844D01*
G01X17247Y42872D01*
G01X17285Y42902D01*
G01X17322Y42934D01*
G01X17357Y42967D01*
G01X17390Y43002D01*
G01X17422Y43039D01*
G01X17452Y43077D01*
G01X17480Y43117D01*
G01X17506Y43158D01*
G01X17531Y43200D01*
G01X17553Y43243D01*
G37*
G36*
G01X17124Y44582D02*
G01X17081Y44604D01*
G01X17081Y44132D01*
G01X17553Y44132D01*
G01X17531Y44175D01*
G01X17506Y44217D01*
G01X17480Y44258D01*
G01X17452Y44298D01*
G01X17422Y44336D01*
G01X17390Y44373D01*
G01X17357Y44408D01*
G01X17322Y44441D01*
G01X17285Y44473D01*
G01X17247Y44503D01*
G01X17207Y44531D01*
G01X17166Y44557D01*
G01X17124Y44582D01*
G37*
G36*
G01X16192Y43243D02*
G01X15720Y43243D01*
G01X15742Y43200D01*
G01X15767Y43158D01*
G01X15793Y43117D01*
G01X15821Y43077D01*
G01X15851Y43039D01*
G01X15883Y43002D01*
G01X15916Y42967D01*
G01X15951Y42934D01*
G01X15988Y42902D01*
G01X16026Y42872D01*
G01X16066Y42844D01*
G01X16107Y42818D01*
G01X16149Y42793D01*
G01X16192Y42771D01*
G01X16192Y43243D01*
G37*
G36*
G01X24744Y40264D02*
G01X24701Y40286D01*
G01X24701Y39814D01*
G01X25173Y39814D01*
G01X25151Y39857D01*
G01X25126Y39899D01*
G01X25100Y39940D01*
G01X25072Y39980D01*
G01X25042Y40018D01*
G01X25010Y40055D01*
G01X24977Y40090D01*
G01X24942Y40123D01*
G01X24905Y40155D01*
G01X24867Y40185D01*
G01X24827Y40213D01*
G01X24786Y40239D01*
G01X24744Y40264D01*
G37*
G36*
G01X25173Y38925D02*
G01X24701Y38925D01*
G01X24701Y38453D01*
G01X24744Y38475D01*
G01X24786Y38500D01*
G01X24827Y38526D01*
G01X24867Y38554D01*
G01X24905Y38584D01*
G01X24942Y38616D01*
G01X24977Y38649D01*
G01X25010Y38684D01*
G01X25042Y38721D01*
G01X25072Y38759D01*
G01X25100Y38799D01*
G01X25126Y38840D01*
G01X25151Y38882D01*
G01X25173Y38925D01*
G37*
G36*
G01X23812Y39814D02*
G01X23812Y40286D01*
G01X23769Y40264D01*
G01X23727Y40239D01*
G01X23686Y40213D01*
G01X23646Y40185D01*
G01X23608Y40155D01*
G01X23571Y40123D01*
G01X23536Y40090D01*
G01X23503Y40055D01*
G01X23471Y40018D01*
G01X23441Y39980D01*
G01X23413Y39940D01*
G01X23387Y39899D01*
G01X23362Y39857D01*
G01X23340Y39814D01*
G01X23812Y39814D01*
G37*
G36*
G01X23812Y38925D02*
G01X23340Y38925D01*
G01X23362Y38882D01*
G01X23387Y38840D01*
G01X23413Y38799D01*
G01X23441Y38759D01*
G01X23471Y38721D01*
G01X23503Y38684D01*
G01X23536Y38649D01*
G01X23571Y38616D01*
G01X23608Y38584D01*
G01X23646Y38554D01*
G01X23686Y38526D01*
G01X23727Y38500D01*
G01X23769Y38475D01*
G01X23812Y38453D01*
G01X23812Y38925D01*
G37*

%LPD*%
G54D11*
G01X6096Y28829D02*
G01X6096Y33274D01*
G01X14097Y35052D02*
G01X4699Y35052D01*
G54D13*
G01X24257Y41910D03*
G01X24257Y39370D03*
G01X24257Y36830D03*
G01X24257Y34290D03*
G01X24257Y31750D03*
G01X24257Y16510D03*
G01X24257Y13970D03*
G01X24257Y11430D03*
G01X24257Y8890D03*
G01X24257Y6350D03*
G01X1397Y11430D03*
G01X1397Y13970D03*
G01X1397Y16510D03*
G01X1397Y19050D03*
G01X1397Y21590D03*
G01X1397Y24130D03*
G01X1397Y26670D03*
G01X1397Y29210D03*
G01X1397Y31750D03*
G01X16637Y43688D03*
G01X16637Y41148D03*
G01X14097Y43688D03*
G01X14097Y41148D03*
G01X11557Y43688D03*
G01X11557Y41148D03*
G01X9017Y43688D03*
G01X9017Y41148D03*
G54D12*
G01X6096Y28829D03*
G01X6096Y33274D03*
G01X14097Y35052D03*
G01X4699Y35052D03*
M00*
M02*
