;Layer: Drill PTH
;EasyEDA v6.2.46, 2019-11-02T22:46:44+01:00
;ac1458d9b49046569834fa52976d048a,2f1dc3ff27c442d188d0821d71f234e9,NaN
;Gerber Generator version 0.2
M48
METRIC,LZ,000.000
;Holesize 1 = 0.305 METRIC
T01C0.305
;Holesize 2 = 0.915 METRIC
T02C0.915
%
G05
G90
T01
X+006096Y+028829
X+006096Y+033274
X+014097Y+035052
X+004699Y+035052
T02
X+024257Y+041910
X+024257Y+039370
X+024257Y+036830
X+024257Y+034290
X+024257Y+031750
X+024257Y+016510
X+024257Y+013970
X+024257Y+011430
X+024257Y+008890
X+024257Y+006350
X+001397Y+011430
X+001397Y+013970
X+001397Y+016510
X+001397Y+019050
X+001397Y+021590
X+001397Y+024130
X+001397Y+026670
X+001397Y+029210
X+001397Y+031750
X+016637Y+043688
X+016637Y+041148
X+014097Y+043688
X+014097Y+041148
X+011557Y+043688
X+011557Y+041148
X+009017Y+043688
X+009017Y+041148
M30
